SplineFontDB: 3.0
FontName: MScore-20
FullName: MScore
Weight: Book
Copyright: This font is distributed under the GNU General Public License. As a special exception, if you create a document which uses this font, and embed this font or unaltered portions of this font into the document, this font does not by itself cause the resulting document to be covered by the GNU General Public License.
ItalicAngle: 0
UnderlinePosition: -96.6797
UnderlineWidth: 47.8516
Ascent: 800
Descent: 200
LayerCount: 2
Layer: 0 1 "Back"  1
Layer: 1 1 "Fore"  0
XUID: [1021 577 2134738168 4204088]
OS2Version: 0
OS2_WeightWidthSlopeOnly: 0
OS2_UseTypoMetrics: 0
CreationTime: 1383849253
ModificationTime: 1383849578
PfmFamily: 17
TTFWeight: 400
TTFWidth: 5
LineGap: 88
VLineGap: 0
Panose: 2 0 5 3 0 0 0 0 0 0
OS2TypoAscent: 0
OS2TypoAOffset: 1
OS2TypoDescent: 0
OS2TypoDOffset: 1
OS2TypoLinegap: 0
OS2WinAscent: 977
OS2WinAOffset: 1
OS2WinDescent: 293
OS2WinDOffset: 1
HheadAscent: 977
HheadAOffset: 1
HheadDescent: -293
HheadDOffset: 1
OS2SubXSize: 650
OS2SubYSize: 699
OS2SubXOff: 0
OS2SubYOff: 140
OS2SupXSize: 650
OS2SupYSize: 699
OS2SupXOff: 0
OS2SupYOff: 479
OS2StrikeYSize: 49
OS2StrikeYPos: 258
OS2Vendor: 'PfEd'
Lookup: 258 0 0 "'kern' Horizontal Kerning in Latin lookup 0"  {"'kern' Horizontal Kerning in Latin lookup 0 subtable"  } ['kern' ('latn' <'dflt' > ) ]
MarkAttachClasses: 1
DEI: 91125
ShortTable: maxp 16
  1
  0
  220
  187
  5
  0
  0
  2
  1
  2
  22
  0
  256
  46
  0
  0
EndShort
LangName: 1033 "" "" "" "FontForge 2.0 : MScore : 12-4-2010" 
GaspTable: 2 8 2 65535 3 0
Encoding: Custom
Compacted: 1
UnicodeInterp: none
NameList: Adobe Glyph List
DisplaySize: -96
AntiAlias: 1
FitToEm: 1
ExtremaBound: 10
WinInfo: 136 8 11
BeginPrivate: 0
EndPrivate
Grid
0 138.671875 m 25
 329.426757812 138.997070312 l 25
 329.1015625 -137.696289062 l 25
 0 -137.369140625 l 1053
EndSplineSet

StartChar: .notdef
Encoding: 256 -1 0
Width: 362
Flags: W
HStem: 0 33<66 265> 633 33<66 265>
VStem: 33 33<33 633> 265 33<33 633>
LayerCount: 2
Fore
SplineSet
33 0 m 257,0,-1
 33 666 l 257,1,-1
 298 666 l 257,2,-1
 298 0 l 257,3,-1
 33 0 l 257,0,-1
66 33 m 257,4,-1
 265 33 l 257,5,-1
 265 633 l 257,6,-1
 66 633 l 257,7,-1
 66 33 l 257,4,-1
EndSplineSet
EndChar

StartChar: plus
Encoding: 260 43 4
Width: 250
Flags: W
HStem: 225 51<7 100 150 243>
VStem: 100 51<133 225 275 367>
LayerCount: 2
Fore
SplineSet
125 125 m 256,0,1
 114 125 114 125 107 132 c 256,2,3
 100 139 100 139 100 150 c 258,4,-1
 100 225 l 257,5,-1
 25 225 l 258,6,7
 14 225 14 225 7 232 c 256,8,9
 0 240 0 240 0 250 c 256,10,11
 0 260 0 260 7 268 c 256,12,13
 14 276 14 276 25 275 c 258,14,-1
 100 275 l 257,15,-1
 100 350 l 258,16,17
 100 360 100 360 107 367 c 256,18,19
 114 375 114 375 125 375 c 256,20,21
 136 375 136 375 143 368 c 256,22,23
 150 361 150 361 150 350 c 258,24,-1
 150 275 l 257,25,-1
 225 275 l 258,26,27
 236 275 236 275 243 268 c 256,28,29
 250 260 250 260 250 250 c 256,30,31
 250 240 250 240 243 232 c 256,32,33
 236 224 236 224 225 225 c 258,34,-1
 150 225 l 257,35,-1
 150 150 l 258,36,37
 150 140 150 140 143 133 c 256,38,39
 136 125 136 125 125 125 c 256,0,1
EndSplineSet
EndChar

StartChar: comma
Encoding: 261 44 5
Width: 114
Flags: W
HStem: -157 272<39 53>
VStem: 66 49<-60 69>
LayerCount: 2
Fore
SplineSet
66 -36 m 256,0,1
 66 -19 66 -19 56 -9 c 256,2,3
 45 2 45 2 33 6 c 256,4,5
 21 10 21 10 11 23 c 256,6,7
 0 36 0 36 0 57 c 256,8,9
 0 81 0 81 17 98 c 256,10,11
 34 115 34 115 57 115 c 256,12,13
 81 115 81 115 98 98 c 256,14,15
 115 81 115 81 115 57 c 256,16,17
 115 -27 115 -27 57 -149 c 256,18,19
 53 -157 53 -157 45 -157 c 256,20,21
 39 -157 39 -157 34 -153 c 256,22,23
 29 -149 29 -149 29 -143 c 256,24,25
 29 -140 29 -140 48 -100 c 256,26,27
 66 -60 66 -60 66 -36 c 256,0,1
EndSplineSet
EndChar

StartChar: hyphen
Encoding: 262 45 6
Width: 165
Flags: W
HStem: 152 28<0 167>
VStem: 0 167<152 181>
LayerCount: 2
Fore
SplineSet
152 152 m 258,0,-1
 15 152 l 258,1,2
 0 152 0 152 0 167 c 256,3,4
 0 181 0 181 15 181 c 258,5,-1
 152 181 l 258,6,7
 167 181 167 181 167 167 c 256,8,9
 167 152 167 152 152 152 c 258,0,-1
EndSplineSet
EndChar

StartChar: period
Encoding: 263 46 7
Width: 114
Flags: W
HStem: 0 115<13 102>
VStem: 0 115<13 102>
LayerCount: 2
Fore
SplineSet
0 58 m 256,0,1
 0 81 0 81 17 98 c 256,2,3
 34 115 34 115 58 115 c 256,4,5
 81 115 81 115 98 98 c 256,6,7
 115 81 115 81 115 58 c 256,8,9
 115 35 115 35 98 17 c 256,10,11
 81 0 81 0 58 0 c 256,12,13
 35 0 35 0 17 17 c 256,14,15
 0 35 0 35 0 58 c 256,0,1
EndSplineSet
EndChar

StartChar: zero
Encoding: 264 48 8
Width: 366
VWidth: 750
Flags: W
HStem: -500 29<147 221> -29 29<147 221>
VStem: 0 116<-370 -129> 251 116<-370 -129>
LayerCount: 2
Fore
SplineSet
184 221 m 256,0,1
 140 221 140 221 127 166 c 256,2,3
 116 124 116 124 116 55 c 258,4,-1
 116 -55 l 258,5,6
 116 -123 116 -123 127 -166 c 256,7,8
 140 -221 140 -221 184 -221 c 256,9,10
 228 -221 228 -221 240 -166 c 256,11,12
 251 -123 251 -123 251 -55 c 258,13,-1
 251 55 l 258,14,15
 251 124 251 124 240 166 c 256,16,17
 228 221 228 221 184 221 c 256,0,1
184 250 m 256,18,19
 267 250 267 250 317 175 c 256,20,21
 367 100 367 100 367 0 c 256,22,23
 367 -101 367 -101 317 -175 c 256,24,25
 267 -250 267 -250 184 -250 c 256,26,27
 101 -250 101 -250 50 -175 c 256,28,29
 0 -100 0 -100 0 0 c 256,30,31
 0 101 0 101 50 175 c 256,32,33
 101 250 101 250 184 250 c 256,18,19
EndSplineSet
EndChar

StartChar: one
Encoding: 265 49 9
Width: 317
VWidth: 750
Flags: W
HStem: -500 23<32 80 271 318> -19 20G<220 227>
VStem: 117 116<-448 -119>
DStem2: 0 -250 26 -262 0.424434 0.905459<-6.94258 160.878>
LayerCount: 2
Fore
SplineSet
175 237 m 256,0,1
 187 237 187 237 203 244 c 256,2,3
 220 251 220 251 221 251 c 256,4,5
 233 251 233 251 233 234 c 257,6,-1
 233 -133 l 258,7,8
 233 -172 233 -172 254 -199 c 256,9,10
 275 -227 275 -227 307 -227 c 256,11,12
 319 -227 319 -227 318 -238 c 256,13,14
 318 -250 318 -250 307 -250 c 256,15,16
 286 -250 286 -250 240 -244 c 256,17,18
 195 -238 195 -238 175 -237 c 256,19,20
 154 -237 154 -237 110 -244 c 256,21,22
 66 -250 66 -250 44 -250 c 256,23,24
 32 -250 32 -250 32 -238 c 256,25,26
 32 -226 32 -226 44 -227 c 256,27,28
 75 -227 75 -227 97 -199 c 256,29,30
 118 -172 118 -172 117 -133 c 258,31,-1
 117 112 l 258,32,33
 117 120 117 120 112 125 c 256,34,35
 107 130 107 130 100 131 c 256,36,37
 93 131 93 131 90 124 c 258,38,-1
 26 -12 l 258,39,40
 22 -21 22 -21 14 -21 c 256,41,42
 8 -21 8 -21 3 -17 c 256,43,44
 -2 -13 -2 -13 -2 -7 c 256,45,46
 -2 -4 -2 -4 0 0 c 258,47,-1
 117 250 l 258,48,49
 118 253 118 253 122 253 c 256,50,51
 126 253 126 253 144 245 c 256,52,53
 161 237 161 237 175 237 c 256,0,1
EndSplineSet
EndChar

StartChar: two
Encoding: 266 50 10
Width: 366
VWidth: 750
Flags: W
HStem: -250 79<213 307> -184 71<65 132> 227 23<128 199>
VStem: 12 103<108 199> 235 116<22 176> 339 28<-165 -133>
LayerCount: 2
Fore
SplineSet
229 -250 m 256,0,1
 198 -250 198 -250 175 -239 c 256,2,3
 153 -228 153 -228 143 -217 c 256,4,5
 133 -205 133 -205 118 -194 c 256,6,7
 103 -183 103 -183 85 -184 c 256,8,9
 61 -184 61 -184 43 -199 c 256,10,11
 25 -214 25 -214 23 -239 c 256,12,13
 21 -250 21 -250 12 -250 c 256,14,15
 0 -250 0 -250 0 -239 c 256,16,17
 0 -202 0 -202 18 -171 c 256,18,19
 36 -140 36 -140 61 -119 c 256,20,21
 87 -98 87 -98 118 -74 c 256,22,23
 149 -50 149 -50 174 -27 c 256,24,25
 200 -5 200 -5 218 30 c 256,26,27
 236 65 236 65 235 105 c 256,28,29
 235 156 235 156 218 191 c 256,30,31
 201 226 201 226 165 227 c 256,32,33
 144 227 144 227 129 217 c 256,34,35
 114 207 114 207 114 190 c 256,36,37
 114 176 114 176 132 156 c 256,38,39
 150 135 150 135 149 122 c 256,40,41
 149 93 149 93 129 73 c 256,42,43
 109 53 109 53 81 53 c 256,44,45
 52 53 52 53 32 73 c 256,46,47
 12 94 12 94 12 122 c 256,48,49
 12 178 12 178 57 214 c 256,50,51
 102 250 102 250 165 250 c 256,52,53
 240 250 240 250 296 209 c 256,54,55
 352 168 352 168 352 105 c 256,56,57
 352 62 352 62 336 30 c 256,58,59
 321 -2 321 -2 292 -21 c 256,60,61
 263 -41 263 -41 234 -55 c 256,62,63
 205 -69 205 -69 166 -84 c 256,64,65
 127 -100 127 -100 103 -115 c 257,66,67
 116 -112 116 -112 129 -112 c 256,68,69
 174 -112 174 -112 223 -142 c 256,70,71
 272 -171 272 -171 300 -171 c 256,72,73
 316 -171 316 -171 326 -165 c 256,74,75
 336 -159 336 -159 339 -152 c 256,76,77
 342 -145 342 -145 346 -139 c 256,78,79
 350 -133 350 -133 355 -133 c 256,80,81
 367 -133 367 -133 367 -145 c 256,82,83
 367 -171 367 -171 329 -210 c 256,84,85
 291 -250 291 -250 229 -250 c 256,0,1
EndSplineSet
EndChar

StartChar: three
Encoding: 267 51 11
Width: 332
VWidth: 750
Flags: W
HStem: -250 23<105 187> 0 29<73 201> 227 23<101 188>
VStem: 0 91<-198 -123> 12 79<135 205> 217 116<-185 -34> 217 103<50 199>
LayerCount: 2
Fore
SplineSet
263 15 m 256,0,1
 263 5 263 5 274 -4 c 256,2,3
 285 -13 285 -13 298 -21 c 256,4,5
 311 -29 311 -29 322 -52 c 256,6,7
 333 -75 333 -75 333 -110 c 256,8,9
 333 -177 333 -177 283 -214 c 256,10,11
 233 -250 233 -250 154 -250 c 256,12,13
 92 -250 92 -250 46 -219 c 256,14,15
 0 -188 0 -188 0 -137 c 256,16,17
 0 -110 0 -110 20 -90 c 256,18,19
 40 -71 40 -71 66 -71 c 256,20,21
 93 -71 93 -71 112 -91 c 256,22,23
 131 -111 131 -111 131 -137 c 256,24,25
 131 -150 131 -150 111 -164 c 256,26,27
 91 -178 91 -178 91 -190 c 256,28,29
 91 -209 91 -209 109 -218 c 256,30,31
 128 -227 128 -227 154 -227 c 256,32,33
 188 -227 188 -227 203 -193 c 256,34,35
 217 -159 217 -159 217 -110 c 258,36,-1
 217 -94 l 258,37,38
 217 -61 217 -61 215 -44 c 256,39,40
 213 -27 213 -27 202 -14 c 256,41,42
 191 0 191 0 167 0 c 258,43,-1
 87 0 l 258,44,45
 73 0 73 0 73 15 c 256,46,47
 73 29 73 29 87 29 c 258,48,-1
 167 29 l 258,49,50
 194 29 194 29 206 47 c 256,51,52
 215 61 215 61 217 96 c 256,53,54
 217 108 217 108 217 128 c 258,55,-1
 217 136 l 258,56,57
 217 227 217 227 150 227 c 256,58,59
 91 227 91 227 91 194 c 256,60,61
 91 183 91 183 109 171 c 256,62,63
 127 158 127 158 127 147 c 256,64,65
 127 123 127 123 110 106 c 256,66,67
 93 89 93 89 69 89 c 256,68,69
 45 89 45 89 28 106 c 256,70,71
 11 123 11 123 12 147 c 256,72,73
 12 194 12 194 53 222 c 256,74,75
 94 250 94 250 150 250 c 256,76,77
 224 250 224 250 272 222 c 256,78,79
 319 194 319 194 319 136 c 256,80,81
 319 95 319 95 311 72 c 256,82,83
 302 50 302 50 291 45 c 256,84,85
 280 40 280 40 271 33 c 256,86,87
 263 27 263 27 263 15 c 256,0,1
EndSplineSet
EndChar

StartChar: four
Encoding: 268 52 12
Width: 399
VWidth: 750
Flags: W
HStem: -250 23<111 159 350 397> -125 29<29 196 313 400> 231 19G<145 152 298 304>
VStem: 196 117<-198 -125 -96 67>
LayerCount: 2
Fore
SplineSet
225 237 m 256,0,1
 253 237 253 237 274 244 c 256,2,3
 295 251 295 251 301 251 c 256,4,5
 308 251 308 251 312 247 c 256,6,7
 315 244 315 244 315 240 c 256,8,9
 315 236 315 236 313 234 c 258,10,-1
 29 -96 l 257,11,-1
 196 -96 l 257,12,-1
 196 35 l 258,13,14
 196 49 196 49 204 57 c 256,15,16
 211 65 211 65 223 69 c 256,17,18
 235 73 235 73 254 96 c 256,19,20
 269 113 269 113 291 157 c 256,21,22
 294 163 294 163 300 163 c 256,23,24
 313 163 313 163 313 149 c 257,25,-1
 313 -96 l 257,26,-1
 385 -96 l 258,27,28
 400 -96 400 -96 400 -110 c 256,29,30
 400 -125 400 -125 385 -125 c 258,31,-1
 313 -125 l 257,32,-1
 313 -133 l 258,33,34
 313 -174 313 -174 333 -199 c 256,35,36
 354 -227 354 -227 386 -227 c 256,37,38
 398 -227 398 -227 397 -238 c 256,39,40
 397 -250 397 -250 386 -250 c 256,41,42
 365 -250 365 -250 319 -244 c 256,43,44
 274 -238 274 -238 254 -237 c 256,45,46
 232 -237 232 -237 188 -244 c 256,47,48
 144 -250 144 -250 123 -250 c 256,49,50
 111 -250 111 -250 111 -238 c 256,51,52
 111 -226 111 -226 123 -227 c 256,53,54
 154 -227 154 -227 176 -199 c 256,55,56
 197 -172 197 -172 196 -133 c 258,57,-1
 196 -125 l 257,58,-1
 29 -125 l 258,59,60
 13 -125 13 -125 6 -118 c 256,61,62
 -2 -111 -2 -111 -2 -102 c 256,63,64
 -2 -99 -2 -99 13 -81 c 256,65,66
 28 -63 28 -63 48 -33 c 256,67,68
 69 -3 69 -3 89 35 c 256,69,70
 110 73 110 73 124 126 c 256,71,72
 138 179 138 179 138 234 c 256,73,74
 138 250 138 250 151 250 c 256,75,76
 153 250 153 250 164 247 c 256,77,78
 175 244 175 244 192 241 c 256,79,80
 209 237 209 237 225 237 c 256,0,1
EndSplineSet
EndChar

StartChar: five
Encoding: 269 53 13
Width: 336
VWidth: 750
Flags: W
HStem: -250 23<105 197> 42 29<97 201> 141 109<58 182>
VStem: 0 91<-198 -123> 29 28<28 140> 233 115<-167 0>
LayerCount: 2
Fore
SplineSet
45 250 m 256,0,1
 53 250 53 250 62 247 c 256,2,3
 65 246 65 246 107 242 c 256,4,5
 148 237 148 237 184 237 c 256,6,7
 228 237 228 237 266 242 c 256,8,9
 312 248 312 248 313 248 c 256,10,11
 324 250 324 250 328 250 c 256,12,13
 341 250 341 250 341 241 c 256,14,15
 341 237 341 237 338 234 c 256,16,17
 245 141 245 141 75 141 c 256,18,19
 68 141 68 141 63 136 c 256,20,21
 58 131 58 131 58 124 c 258,22,-1
 58 28 l 257,23,24
 101 71 101 71 163 71 c 256,25,26
 252 71 252 71 300 31 c 256,27,28
 348 -9 348 -9 349 -90 c 256,29,30
 349 -159 349 -159 294 -205 c 256,31,32
 239 -250 239 -250 163 -250 c 256,33,34
 97 -250 97 -250 48 -220 c 256,35,36
 0 -190 0 -190 0 -137 c 256,37,38
 0 -110 0 -110 20 -90 c 256,39,40
 40 -71 40 -71 66 -71 c 256,41,42
 93 -71 93 -71 112 -91 c 256,43,44
 131 -111 131 -111 131 -137 c 256,45,46
 131 -150 131 -150 111 -164 c 256,47,48
 91 -178 91 -178 91 -190 c 256,49,50
 91 -226 91 -226 163 -227 c 256,51,52
 233 -227 233 -227 233 -90 c 256,53,54
 233 42 233 42 163 42 c 256,55,56
 131 42 131 42 107 34 c 256,57,58
 84 26 84 26 75 17 c 256,59,60
 66 7 66 7 57 -1 c 256,61,62
 49 -9 49 -9 44 -9 c 256,63,64
 29 -9 29 -9 29 6 c 258,65,-1
 29 234 l 258,66,67
 29 250 29 250 45 250 c 256,0,1
EndSplineSet
EndChar

StartChar: six
Encoding: 270 54 14
Width: 339
VWidth: 750
Flags: W
HStem: -250 23<134 207> 6 23<134 208> 227 23<150 227>
VStem: 0 117<-127 -2 16 117> 231 108<-189 -31> 236 92<134 205>
LayerCount: 2
Fore
SplineSet
170 6 m 256,0,1
 133 6 133 6 124 -23 c 256,2,3
 117 -46 117 -46 117 -96 c 258,4,-1
 117 -125 l 258,5,6
 117 -174 117 -174 124 -197 c 256,7,8
 133 -226 133 -226 170 -227 c 256,9,10
 212 -227 212 -227 222 -192 c 256,11,12
 232 -158 232 -158 231 -110 c 256,13,14
 231 -51 231 -51 220 -23 c 256,15,16
 209 6 209 6 170 6 c 256,0,1
117 16 m 257,17,18
 149 29 149 29 170 29 c 257,19,20
 249 29 249 29 294 -6 c 256,21,22
 339 -41 339 -41 340 -110 c 256,23,24
 340 -179 340 -179 294 -214 c 256,25,26
 248 -250 248 -250 170 -250 c 256,27,28
 90 -250 90 -250 45 -176 c 256,29,30
 0 -102 0 -102 0 0 c 256,31,32
 0 101 0 101 53 175 c 256,33,34
 106 250 106 250 190 250 c 256,35,36
 246 250 246 250 287 222 c 256,37,38
 328 194 328 194 328 147 c 256,39,40
 328 120 328 120 309 101 c 256,41,42
 290 81 290 81 263 81 c 256,43,44
 236 81 236 81 217 101 c 256,45,46
 197 121 197 121 197 147 c 256,47,48
 197 159 197 159 217 171 c 256,49,50
 237 183 237 183 236 196 c 256,51,52
 236 210 236 210 222 218 c 256,53,54
 208 226 208 226 190 227 c 256,55,56
 145 227 145 227 130 190 c 256,57,58
 115 154 115 154 115 88 c 256,59,60
 115 76 115 76 116 52 c 256,61,62
 117 28 117 28 117 16 c 257,17,18
EndSplineSet
EndChar

StartChar: seven
Encoding: 271 55 15
Width: 336
VWidth: 750
Flags: W
HStem: 103 92<167 269> 160 90<64 136>
VStem: 0 29<0 142 206 250>
LayerCount: 2
Fore
SplineSet
67 160 m 256,0,1
 52 160 52 160 41 143 c 256,2,3
 29 125 29 125 29 90 c 258,4,-1
 29 15 l 258,5,6
 29 0 29 0 15 0 c 256,7,8
 0 0 0 0 0 15 c 258,9,-1
 0 235 l 258,10,11
 0 250 0 250 15 250 c 256,12,13
 29 250 29 250 29 235 c 258,14,-1
 29 221 l 258,15,16
 29 217 29 217 32 212 c 256,17,18
 35 208 35 208 39 206 c 256,19,20
 43 204 43 204 44 206 c 256,21,22
 76 250 76 250 122 250 c 256,23,24
 160 250 160 250 193 222 c 256,25,26
 226 194 226 194 249 194 c 256,27,28
 273 194 273 194 294 208 c 256,29,30
 315 222 315 222 328 236 c 256,31,32
 340 250 340 250 344 250 c 256,33,34
 350 250 350 250 355 246 c 256,35,36
 360 242 360 242 360 236 c 256,37,38
 360 232 360 232 335 194 c 256,39,40
 310 156 310 156 279 106 c 256,41,42
 249 56 249 56 224 -18 c 256,43,44
 199 -92 199 -92 199 -160 c 256,45,46
 199 -177 199 -177 201 -194 c 256,47,48
 203 -211 203 -211 205 -221 c 256,49,50
 206 -231 206 -231 207 -239 c 256,51,52
 207 -247 207 -247 204 -250 c 256,53,54
 201 -253 201 -253 194 -253 c 256,55,-1
 166 -245 l 256,56,57
 137 -237 137 -237 117 -237 c 256,58,59
 96 -237 96 -237 69 -245 c 256,60,61
 42 -253 42 -253 39 -253 c 256,62,63
 32 -253 32 -253 28 -248 c 256,64,65
 24 -243 24 -243 27 -236 c 256,66,67
 63 -150 63 -150 115 -69 c 256,68,69
 166 13 166 13 243 119 c 257,70,71
 214 103 214 103 184 103 c 256,72,73
 152 103 152 103 120 131 c 256,74,75
 88 160 88 160 67 160 c 256,0,1
EndSplineSet
EndChar

StartChar: eight
Encoding: 272 56 16
Width: 366
VWidth: 750
Flags: W
HStem: -250 23<122 228> 227 23<149 251>
VStem: 0 44<-174 -52> 15 102<110 183> 269 104<-176 -91> 308 44<74 192>
DStem2: 146 104 106 -8 0.866778 -0.498694<14.3385 133.995 164.492 216.456>
LayerCount: 2
Fore
SplineSet
259 38 m 257,0,1
 308 91 308 91 308 140 c 256,2,3
 308 180 308 180 273 203 c 256,4,5
 239 226 239 226 191 227 c 256,6,7
 157 227 157 227 137 205 c 256,8,9
 116 184 116 184 116 156 c 256,10,11
 116 122 116 122 146 104 c 258,12,-1
 259 38 l 257,0,1
289 21 m 257,13,14
 372 -27 372 -27 372 -106 c 256,15,16
 372 -165 372 -165 322 -208 c 256,17,18
 272 -250 272 -250 183 -250 c 256,19,20
 109 -250 109 -250 54 -211 c 256,21,22
 0 -172 0 -172 0 -110 c 256,23,24
 0 -87 0 -87 14 -63 c 256,25,26
 28 -39 28 -39 39 -27 c 256,27,28
 50 -15 50 -15 76 10 c 257,29,30
 15 52 15 52 15 116 c 256,31,32
 15 171 15 171 62 210 c 256,33,34
 109 250 109 250 191 250 c 256,35,36
 256 250 256 250 304 221 c 256,37,38
 351 192 351 192 352 140 c 256,39,40
 351 86 351 86 289 21 c 257,13,14
106 -8 m 257,41,42
 44 -62 44 -62 44 -110 c 257,43,44
 44 -160 44 -160 85 -193 c 256,45,46
 127 -226 127 -226 183 -227 c 256,47,48
 222 -227 222 -227 245 -202 c 256,49,50
 268 -177 268 -177 269 -144 c 256,51,52
 269 -102 269 -102 234 -82 c 258,53,-1
 106 -8 l 257,41,42
EndSplineSet
EndChar

StartChar: nine
Encoding: 273 57 17
Width: 339
VWidth: 750
Flags: W
HStem: -250 23<113 191> -29 23<134 205> 227 23<131 205>
VStem: 0 109<31 189> 12 92<-205 -134> 223 117<-118 -16 2 127>
LayerCount: 2
Fore
SplineSet
170 -6 m 256,0,1
 207 -6 207 -6 216 23 c 256,2,3
 223 46 223 46 223 96 c 258,4,-1
 223 125 l 258,5,6
 223 174 223 174 216 197 c 256,7,8
 207 226 207 226 170 227 c 256,9,10
 126 227 126 227 117 192 c 256,11,12
 109 163 109 163 109 110 c 256,13,14
 109 48 109 48 120 23 c 256,15,16
 133 -6 133 -6 170 -6 c 256,0,1
223 -16 m 257,17,18
 191 -30 191 -30 170 -29 c 257,19,20
 91 -29 91 -29 45 6 c 256,21,22
 0 41 0 41 0 110 c 256,23,24
 0 179 0 179 46 214 c 256,25,26
 92 250 92 250 170 250 c 256,27,28
 250 250 250 250 295 176 c 256,29,30
 340 102 340 102 340 0 c 256,31,32
 340 -101 340 -101 288 -175 c 256,33,34
 236 -250 236 -250 150 -250 c 256,35,36
 94 -250 94 -250 53 -222 c 256,37,38
 11 -194 11 -194 12 -147 c 256,39,40
 12 -120 12 -120 31 -101 c 256,41,42
 50 -81 50 -81 77 -81 c 256,43,44
 104 -81 104 -81 123 -101 c 256,45,46
 143 -121 143 -121 143 -147 c 256,47,48
 143 -159 143 -159 123 -171 c 256,49,50
 103 -183 103 -183 104 -196 c 256,51,52
 104 -210 104 -210 118 -218 c 256,53,54
 132 -226 132 -226 150 -227 c 256,55,56
 195 -227 195 -227 210 -190 c 256,57,58
 225 -154 225 -154 225 -88 c 256,59,60
 225 -76 225 -76 224 -52 c 256,61,62
 223 -28 223 -28 223 -16 c 257,17,18
EndSplineSet
EndChar

StartChar: f
Encoding: 274 102 18
Width: 573
Flags: W
HStem: -288 38<-77 28> 474 39<103 229 467 604> 831 37<567 676>
VStem: -182 104<-248 -190> 677 104<770 828>
LayerCount: 2
Fore
SplineSet
456 474 m 257,0,-1
 362 168 l 258,1,2
 341 98 341 98 302 21 c 256,3,4
 263 -55 263 -55 213 -126 c 256,5,6
 163 -197 163 -197 99 -243 c 256,7,8
 35 -288 35 -288 -26 -288 c 256,9,10
 -90 -288 -90 -288 -136 -265 c 256,11,12
 -181 -242 -181 -242 -182 -194 c 256,13,14
 -182 -138 -182 -138 -157 -97 c 256,15,16
 -133 -55 -133 -55 -89 -56 c 256,17,18
 -57 -56 -57 -56 -33 -79 c 256,19,20
 -10 -102 -10 -102 -10 -134 c 256,21,22
 -10 -152 -10 -152 -21 -164 c 256,23,24
 -32 -177 -32 -177 -44 -183 c 256,25,26
 -57 -189 -57 -189 -67 -201 c 256,27,28
 -78 -213 -78 -213 -78 -231 c 256,29,30
 -78 -250 -78 -250 -38 -250 c 258,31,-1
 -26 -250 l 258,32,33
 -3 -250 -3 -250 16 -239 c 256,34,35
 35 -228 35 -228 45 -215 c 256,36,37
 56 -202 56 -202 66 -176 c 256,38,39
 76 -150 76 -150 81 -131 c 256,40,41
 85 -112 85 -112 92 -78 c 256,42,43
 99 -43 99 -43 104 -28 c 258,44,-1
 229 474 l 257,45,-1
 122 474 l 258,46,47
 102 474 102 474 103 493 c 256,48,49
 103 513 103 513 122 513 c 258,50,-1
 239 513 l 257,51,52
 280 653 280 653 390 760 c 256,53,54
 500 868 500 868 625 868 c 256,55,56
 689 868 689 868 735 845 c 256,57,58
 781 822 781 822 781 774 c 256,59,60
 781 718 781 718 756 677 c 256,61,62
 731 635 731 635 687 636 c 256,63,64
 655 636 655 636 632 659 c 256,65,66
 610 682 610 682 609 714 c 256,67,68
 609 732 609 732 620 744 c 256,69,70
 630 757 630 757 643 763 c 256,71,72
 657 769 657 769 667 781 c 256,73,74
 677 795 677 795 677 812 c 256,75,76
 677 832 677 832 637 831 c 258,77,-1
 625 831 l 258,78,79
 589 831 589 831 563 812 c 256,80,81
 538 792 538 792 523 754 c 256,82,83
 508 716 508 716 501 681 c 256,84,85
 493 646 493 646 483 594 c 256,86,87
 473 541 473 541 467 513 c 257,88,-1
 584 513 l 258,89,90
 604 513 604 513 604 493 c 256,91,92
 604 473 604 473 584 474 c 258,93,-1
 456 474 l 257,0,-1
EndSplineSet
EndChar

StartChar: m
Encoding: 275 109 19
Width: 782
Flags: W
HStem: 0 21G<9 128 257 376> 416 112<87 175 321 400 546 627>
VStem: 507 163<33 128>
DStem2: 6 18 143 18 0.322729 0.946491<18.3851 387.626> 253 18 390 18 0.275449 0.961316<13.2627 382.743> 509 65 671 118 0.230305 0.973119<80.0512 326.43>
LayerCount: 2
Fore
SplineSet
-49 254 m 256,0,1
 -49 256 -49 256 -39 285 c 256,2,3
 -15 357 -15 357 39 434 c 256,4,5
 106 529 106 529 191 528 c 256,6,7
 223 528 223 528 244 500 c 256,8,9
 264 472 264 472 268 431 c 257,10,11
 331 528 331 528 410 528 c 256,12,13
 444 528 444 528 466 499 c 256,14,15
 487 470 487 470 492 428 c 257,16,17
 553 528 553 528 630 528 c 256,18,19
 673 528 673 528 705 492 c 256,20,21
 737 455 737 455 737 409 c 256,22,23
 737 396 737 396 734 384 c 258,24,-1
 671 118 l 258,25,26
 670 115 670 115 670 109 c 256,27,28
 670 95 670 95 682 95 c 256,29,30
 702 95 702 95 740 125 c 256,31,32
 779 156 779 156 781 156 c 256,33,34
 792 156 792 156 792 146 c 256,35,36
 792 140 792 140 786 134 c 256,37,38
 703 54 703 54 669 31 c 256,39,40
 614 -7 614 -7 566 -7 c 256,41,42
 539 -7 539 -7 523 9 c 256,43,44
 507 25 507 25 507 48 c 256,45,46
 507 53 507 53 509 65 c 258,47,-1
 578 358 l 258,48,49
 582 376 582 376 582 384 c 256,50,51
 582 416 582 416 561 416 c 256,52,53
 540 416 540 416 517 399 c 256,54,55
 495 382 495 382 487 358 c 258,56,-1
 390 18 l 258,57,58
 385 0 385 0 367 0 c 258,59,-1
 266 0 l 258,60,61
 248 0 248 0 253 18 c 258,62,-1
 350 358 l 258,63,64
 355 375 355 375 355 387 c 256,65,66
 355 416 355 416 333 416 c 256,67,68
 311 416 311 416 289 398 c 256,69,70
 267 380 267 380 259 358 c 258,71,-1
 143 18 l 258,72,73
 138 0 138 0 119 0 c 258,74,-1
 18 0 l 258,75,76
 1 0 1 0 6 18 c 258,77,-1
 122 358 l 258,78,79
 128 378 128 378 128 386 c 256,80,81
 128 416 128 416 103 416 c 256,82,83
 68 416 68 416 36 368 c 256,84,85
 5 320 5 320 -15 260 c 256,86,87
 -21 244 -21 244 -37 244 c 256,88,89
 -49 244 -49 244 -49 254 c 256,0,1
EndSplineSet
EndChar

StartChar: p
Encoding: 276 112 20
Width: 651
Flags: W
HStem: -260 29<-241 -79 112 219> -251 22<-200 -78> 28 35<207 290> 434 88<66 158 359 453>
VStem: 461 176<259 422>
DStem2: -70 -205 106 -197 0.324365 0.945932<56.2661 310.489>
LayerCount: 2
Fore
SplineSet
417 434 m 256,0,1
 368 434 368 434 325 377 c 256,2,3
 282 320 282 320 259 251 c 256,4,5
 237 182 237 182 236 133 c 256,6,7
 236 64 236 64 290 63 c 256,8,9
 338 63 338 63 370 98 c 257,10,11
 405 137 405 137 433 235 c 256,12,13
 461 333 461 333 461 374 c 256,14,15
 461 434 461 434 417 434 c 256,0,1
134 521 m 256,16,17
 183 521 183 521 217 496 c 256,18,19
 252 471 252 471 262 428 c 257,20,21
 301 471 301 471 351 496 c 256,22,23
 401 521 401 521 447 521 c 256,24,25
 537 521 537 521 587 464 c 256,26,27
 637 407 637 407 637 317 c 256,28,29
 637 167 637 167 531 74 c 256,30,31
 438 -8 438 -8 357 -8 c 256,32,33
 315 -8 315 -8 283 1 c 256,34,35
 251 10 251 10 233 19 c 256,36,37
 215 28 215 28 207 28 c 256,38,39
 183 28 183 28 177 10 c 258,40,-1
 106 -197 l 258,41,42
 105 -200 105 -200 105 -206 c 256,43,44
 105 -223 105 -223 134 -227 c 256,45,46
 162 -231 162 -231 190 -232 c 256,47,48
 218 -234 218 -234 219 -247 c 256,49,50
 219 -260 219 -260 206 -260 c 256,51,52
 55 -251 55 -251 -11 -251 c 256,53,54
 -79 -251 -79 -251 -227 -260 c 256,55,56
 -242 -260 -242 -260 -241 -247 c 256,57,58
 -241 -235 -241 -235 -214 -230 c 256,59,60
 -198 -228 -198 -228 -117 -229 c 256,61,62
 -78 -229 -78 -229 -70 -205 c 258,63,-1
 128 373 l 274,64,65
 133 388 133 388 133 400 c 256,66,67
 133 433 133 433 104 434 c 256,68,69
 62 434 62 434 15 378 c 256,70,71
 -33 321 -33 321 -59 260 c 256,72,73
 -66 243 -66 243 -84 243 c 256,74,75
 -98 243 -98 243 -98 255 c 272,76,77
 -98 267 -98 267 -88 283 c 256,78,79
 -45 378 -45 378 -10 428 c 256,80,81
 15 464 15 464 55 493 c 256,82,83
 94 521 94 521 134 521 c 256,16,17
EndSplineSet
EndChar

StartChar: r
Encoding: 277 114 21
Width: 390
Flags: W
HStem: 0 21G<9 126> 459 77<304 426> 476 60<52 152>
VStem: -30 28<386 425>
DStem2: 5 18 140 18 0.25088 0.968018<10.2212 435.679>
LayerCount: 2
Fore
SplineSet
433 378 m 256,0,1
 407 378 407 378 393 391 c 256,2,3
 379 404 379 404 376 418 c 256,4,5
 374 433 374 433 365 446 c 256,6,7
 356 459 356 459 338 459 c 256,8,9
 308 459 308 459 274 433 c 256,10,11
 240 407 240 407 233 377 c 257,12,-1
 140 18 l 258,13,14
 135 0 135 0 118 0 c 258,15,-1
 18 0 l 258,16,17
 0 0 0 0 5 18 c 258,18,-1
 108 417 l 258,19,20
 111 429 111 429 111 440 c 256,21,22
 111 475 111 475 84 476 c 256,23,24
 61 476 61 476 33 449 c 256,25,26
 9 427 9 427 -2 396 c 280,27,28
 -6 385 -6 385 -18 386 c 257,29,30
 -30 386 -30 386 -30 397 c 257,31,32
 -30 433 -30 433 23 490 c 256,33,34
 66 535 66 535 134 535 c 256,35,36
 170 535 170 535 197 518 c 256,37,38
 224 501 224 501 237 472 c 257,39,40
 313 536 313 536 402 536 c 256,41,42
 450 536 450 536 479 516 c 256,43,44
 508 496 508 496 509 463 c 256,45,46
 509 432 509 432 485 405 c 256,47,48
 462 378 462 378 433 378 c 256,0,1
EndSplineSet
EndChar

StartChar: s
Encoding: 278 115 22
Width: 368
Flags: W
HStem: 0 27<127 236> 498 23<269 334>
VStem: 34 74<46 119> 112 106<326 427> 288 108<93 180> 345 90<387 476>
LayerCount: 2
Fore
SplineSet
219 394 m 256,0,1
 219 369 219 369 247 344 c 256,2,3
 275 320 275 320 308 300 c 256,4,5
 341 280 341 280 369 246 c 256,6,7
 397 212 397 212 396 171 c 256,8,9
 396 96 396 96 333 48 c 256,10,11
 270 0 270 0 184 0 c 256,12,13
 123 0 123 0 79 28 c 256,14,15
 35 56 35 56 34 104 c 256,16,17
 34 134 34 134 49 156 c 256,18,19
 64 178 64 178 89 178 c 256,20,21
 113 178 113 178 130 161 c 256,22,23
 147 144 147 144 146 120 c 256,24,25
 146 108 146 108 127 95 c 256,26,27
 108 81 108 81 108 69 c 256,28,29
 108 47 108 47 129 37 c 256,30,31
 150 27 150 27 180 27 c 256,32,33
 224 27 224 27 256 54 c 256,34,35
 288 80 288 80 288 120 c 256,36,37
 288 156 288 156 261 186 c 256,38,39
 234 216 234 216 200 234 c 256,40,41
 167 253 167 253 140 281 c 256,42,43
 113 309 113 309 112 343 c 256,44,45
 112 418 112 418 168 470 c 256,46,47
 224 522 224 522 303 521 c 256,48,49
 369 521 369 521 402 489 c 256,50,51
 435 456 435 456 435 413 c 256,52,53
 435 383 435 383 419 362 c 256,54,55
 404 341 404 341 377 342 c 256,56,57
 354 342 354 342 337 354 c 256,58,59
 320 366 320 366 320 380 c 256,60,61
 320 384 320 384 333 407 c 256,62,63
 345 430 345 430 345 454 c 256,64,65
 345 473 345 473 336 485 c 256,66,67
 327 498 327 498 311 498 c 256,68,69
 272 498 272 498 245 467 c 256,70,71
 219 436 219 436 219 394 c 256,0,1
EndSplineSet
EndChar

StartChar: z
Encoding: 279 122 23
Width: 510
Flags: W
HStem: -28 134<253 461> 18 107<54 240> 321 154<104 194>
VStem: 483 26<123 211>
DStem2: 5 25 131 105 0.731118 0.682251<146.737 519.592>
LayerCount: 2
Fore
SplineSet
63 18 m 256,0,1
 44 18 44 18 30 9 c 256,2,3
 15 0 15 0 14 0 c 256,4,5
 0 -1 0 -1 0 13 c 256,6,7
 0 21 0 21 5 25 c 258,8,-1
 385 380 l 257,9,10
 352 369 352 369 314 362 c 256,11,12
 276 355 276 355 227 348 c 256,13,14
 178 341 178 341 153 337 c 256,15,16
 70 321 70 321 62 321 c 256,17,18
 29 321 29 321 28 351 c 257,19,20
 28 396 28 396 78 436 c 256,21,22
 127 476 127 476 177 476 c 256,23,24
 245 476 245 476 316 460 c 256,25,26
 387 444 387 444 426 444 c 256,27,28
 448 444 448 444 463 454 c 256,29,30
 478 464 478 464 480 464 c 256,31,32
 494 464 494 464 494 449 c 256,33,34
 494 443 494 443 490 439 c 258,35,-1
 131 105 l 257,36,37
 173 125 173 125 190 125 c 256,38,39
 238 125 238 125 303 115 c 256,40,41
 367 105 367 105 415 105 c 256,42,43
 483 105 483 105 483 159 c 256,44,45
 483 173 483 173 479 189 c 256,46,47
 474 206 474 206 474 207 c 256,48,49
 474 220 474 220 488 220 c 256,50,51
 509 220 509 220 510 136 c 256,52,53
 510 71 510 71 481 20 c 256,54,55
 454 -28 454 -28 401 -28 c 256,56,57
 374 -28 374 -28 266 -9 c 256,58,59
 119 18 119 18 63 18 c 256,0,1
EndSplineSet
EndChar

StartChar: rests.0
Encoding: 280 57600 24
Width: 375
Flags: W
HStem: -156 156<0 375>
LayerCount: 2
Fore
SplineSet
365 -156 m 258,0,-1
 10 -156 l 258,1,2
 0 -156 0 -156 0 -146 c 258,3,-1
 0 -10 l 258,4,5
 0 0 0 0 10 0 c 258,6,-1
 365 0 l 258,7,8
 375 0 375 0 375 -10 c 258,9,-1
 375 -146 l 258,10,11
 375 -156 375 -156 365 -156 c 258,0,-1
EndSplineSet
EndChar

StartChar: rests.1
Encoding: 281 57601 25
Width: 375
Flags: W
HStem: 0 156<0 375>
LayerCount: 2
Fore
SplineSet
365 0 m 258,0,-1
 10 0 l 258,1,2
 0 0 0 0 0 10 c 258,3,-1
 0 146 l 258,4,5
 0 156 0 156 10 156 c 258,6,-1
 365 156 l 258,7,8
 375 156 375 156 375 146 c 258,9,-1
 375 10 l 258,10,11
 375 0 375 0 365 0 c 258,0,-1
EndSplineSet
EndChar

StartChar: rests.0o
Encoding: 282 57602 26
Width: 375
Flags: W
HStem: -156 182<0 375> -25 51<-156 0 375 531>
LayerCount: 2
Fore
SplineSet
365 -156 m 258,0,-1
 10 -156 l 258,1,2
 0 -156 0 -156 0 -146 c 258,3,-1
 0 -25 l 257,4,-1
 -131 -25 l 258,5,6
 -142 -25 -142 -25 -149 -18 c 256,7,8
 -156 -10 -156 -10 -156 0 c 256,9,10
 -156 10 -156 10 -149 18 c 256,11,12
 -142 26 -142 26 -131 25 c 258,13,-1
 506 25 l 258,14,15
 516 25 516 25 523 18 c 256,16,17
 531 10 531 10 531 0 c 256,18,19
 531 -10 531 -10 523 -18 c 256,20,21
 515 -26 515 -26 506 -25 c 258,22,-1
 375 -25 l 257,23,-1
 375 -146 l 258,24,25
 375 -156 375 -156 365 -156 c 258,0,-1
EndSplineSet
EndChar

StartChar: rests.1o
Encoding: 283 57603 27
Width: 375
Flags: W
HStem: -25 182<0 375> -25 51<-156 0 375 531>
LayerCount: 2
Fore
SplineSet
506 -25 m 258,0,-1
 -131 -25 l 258,1,2
 -142 -25 -142 -25 -149 -18 c 256,3,4
 -156 -10 -156 -10 -156 0 c 256,5,6
 -156 10 -156 10 -149 18 c 256,7,8
 -142 26 -142 26 -131 25 c 258,9,-1
 0 25 l 257,10,-1
 0 146 l 258,11,12
 0 156 0 156 10 156 c 258,13,-1
 365 156 l 258,14,15
 375 156 375 156 375 146 c 258,16,-1
 375 25 l 257,17,-1
 506 25 l 258,18,19
 516 25 516 25 523 18 c 256,20,21
 531 10 531 10 531 0 c 256,22,23
 531 -10 531 -10 523 -18 c 256,24,25
 516 -25 516 -25 506 -25 c 258,0,-1
EndSplineSet
EndChar

StartChar: rests.M3
Encoding: 284 57604 28
Width: 449
Flags: W
VStem: 0 150<-250 250> 300 150<-250 250>
LayerCount: 2
Fore
SplineSet
440 -250 m 258,0,-1
 310 -250 l 258,1,2
 300 -250 300 -250 300 -240 c 258,3,-1
 300 240 l 258,4,5
 300 250 300 250 310 250 c 258,6,-1
 440 250 l 258,7,8
 450 250 450 250 450 240 c 258,9,-1
 450 -240 l 258,10,11
 450 -250 450 -250 440 -250 c 258,0,-1
140 -250 m 258,12,-1
 10 -250 l 258,13,14
 0 -250 0 -250 0 -240 c 258,15,-1
 0 240 l 258,16,17
 0 250 0 250 10 250 c 258,18,-1
 140 250 l 258,19,20
 151 250 151 250 150 240 c 258,21,-1
 150 -240 l 258,22,23
 151 -250 151 -250 140 -250 c 258,12,-1
EndSplineSet
EndChar

StartChar: rests.M2
Encoding: 285 57605 29
Width: 148
Flags: W
VStem: 0 150<-250 250>
LayerCount: 2
Fore
SplineSet
140 -250 m 258,0,-1
 10 -250 l 258,1,2
 0 -250 0 -250 0 -240 c 258,3,-1
 0 240 l 258,4,5
 0 250 0 250 10 250 c 258,6,-1
 140 250 l 258,7,8
 151 250 151 250 150 240 c 258,9,-1
 150 -240 l 258,10,11
 151 -250 151 -250 140 -250 c 258,0,-1
EndSplineSet
EndChar

StartChar: rests.M1
Encoding: 286 57606 30
Width: 148
Flags: W
HStem: 0 250<0 150>
VStem: 0 150<0 250>
LayerCount: 2
Fore
SplineSet
140 0 m 258,0,-1
 10 0 l 258,1,2
 0 0 0 0 0 10 c 258,3,-1
 0 240 l 258,4,5
 0 250 0 250 10 250 c 258,6,-1
 140 250 l 258,7,8
 151 250 151 250 150 240 c 258,9,-1
 150 10 l 258,10,11
 151 0 151 0 140 0 c 258,0,-1
EndSplineSet
EndChar

StartChar: rests.2
Encoding: 287 57607 31
Width: 236
Flags: W
HStem: -146 72<-3 140>
VStem: -23 76<-243 -95> -6 125<-17 87> 118 125<176 280>
DStem2: 82 391 58 371 0.644264 -0.764803<-10.6367 109.574> 143 -65 136 -105 0.640184 -0.768221<-52.1869 26.3826>
LayerCount: 2
Fore
SplineSet
-6 78 m 256,0,1
 -6 97 -6 97 14 117 c 256,2,3
 34 138 34 138 56 154 c 256,4,5
 79 170 79 170 99 198 c 256,6,7
 119 226 119 226 118 260 c 256,8,9
 118 300 118 300 93 329 c 258,10,-1
 58 371 l 258,11,12
 54 375 54 375 54 381 c 256,13,14
 54 387 54 387 60 392 c 256,15,16
 66 397 66 397 71 396 c 256,17,18
 78 396 78 396 82 391 c 258,19,-1
 233 211 l 258,20,21
 243 198 243 198 243 186 c 256,22,23
 243 167 243 167 224 146 c 256,24,25
 204 125 204 125 181 110 c 256,26,27
 158 94 158 94 139 65 c 256,28,29
 119 37 119 37 119 4 c 256,30,31
 119 -37 119 -37 143 -65 c 258,32,-1
 227 -164 l 258,33,34
 231 -168 231 -168 231 -174 c 257,35,36
 231 -181 231 -181 226 -186 c 256,37,38
 221 -191 221 -191 215 -190 c 256,39,40
 213 -190 213 -190 199 -179 c 256,41,42
 185 -168 185 -168 160 -157 c 256,43,44
 135 -146 135 -146 106 -146 c 256,45,46
 81 -146 81 -146 67 -160 c 256,47,48
 53 -174 53 -174 53 -213 c 256,49,50
 53 -274 53 -274 81 -307 c 256,51,52
 84 -312 84 -312 82 -316 c 256,53,54
 80 -320 80 -320 75 -320 c 256,55,56
 68 -320 68 -320 45 -285 c 256,57,58
 22 -250 22 -250 -1 -200 c 256,59,60
 -23 -150 -23 -150 -23 -116 c 256,61,62
 -23 -74 -23 -74 17 -74 c 256,63,64
 65 -74 65 -74 136 -105 c 257,65,-1
 4 53 l 257,66,67
 -6 66 -6 66 -6 78 c 256,0,1
EndSplineSet
EndChar

StartChar: rests.2classical
Encoding: 288 57608 32
Width: 250
Flags: W
HStem: -260 21G<143 159> 54 54<75 184>
VStem: 0 28<149 177> 121 132<110 183> 123 55<-259 -231>
LayerCount: 2
Fore
SplineSet
180 205 m 256,0,1
 210 205 210 205 231 184 c 256,2,3
 252 163 252 163 253 133 c 256,4,5
 253 99 253 99 227 76 c 256,6,7
 201 54 201 54 166 54 c 256,8,9
 123 54 123 54 61 76 c 257,10,-1
 178 -250 l 257,11,12
 167 -260 167 -260 150 -260 c 256,13,14
 134 -260 134 -260 123 -250 c 257,15,-1
 0 170 l 257,16,17
 4 179 4 179 14 179 c 256,18,19
 24 179 24 179 28 170 c 256,20,21
 35 156 35 156 57 132 c 256,22,23
 78 108 78 108 89 107 c 256,24,25
 104 107 104 107 111 123 c 256,26,27
 118 138 118 138 121 156 c 256,28,29
 123 174 123 174 137 189 c 256,30,31
 152 205 152 205 180 205 c 256,0,1
EndSplineSet
EndChar

StartChar: rests.3
Encoding: 289 57609 33
Width: 250
Flags: W
HStem: -260 21G<91 108> 54 54<66 175>
VStem: -3 132<110 183> 72 55<-259 -231> 222 28<149 177>
LayerCount: 2
Fore
SplineSet
70 205 m 256,0,1
 98 205 98 205 113 189 c 256,2,3
 127 173 127 173 129 156 c 256,4,5
 131 138 131 138 139 123 c 256,6,7
 146 108 146 108 161 107 c 256,8,9
 172 107 172 107 193 132 c 256,10,11
 214 156 214 156 222 170 c 256,12,13
 227 180 227 180 236 179 c 256,14,15
 246 179 246 179 250 170 c 257,16,-1
 127 -250 l 257,17,18
 116 -260 116 -260 100 -260 c 256,19,20
 83 -260 83 -260 72 -250 c 257,21,-1
 189 76 l 257,22,23
 127 54 127 54 84 54 c 256,24,25
 49 54 49 54 23 76 c 256,26,27
 -3 98 -3 98 -3 133 c 256,28,29
 -3 163 -3 163 19 184 c 256,30,31
 40 205 40 205 70 205 c 256,0,1
EndSplineSet
EndChar

StartChar: rests.4
Encoding: 290 57610 34
Width: 299
Flags: W
HStem: -196 54<43 150> 54 54<121 228>
VStem: -26 132<-140 -67> 52 131<110 183> 66 55<-500 -445>
DStem2: 66 -500 121 -500 0.25775 0.966212<-1.81616 342.021> 243 76 300 170 0.25775 0.966212<-186.8 0 53.6947 110.034>
LayerCount: 2
Fore
SplineSet
125 205 m 256,0,1
 153 205 153 205 167 189 c 256,2,3
 181 173 181 173 183 156 c 256,4,5
 185 138 185 138 193 123 c 256,6,7
 200 108 200 108 215 107 c 256,8,9
 225 107 225 107 245 131 c 256,10,11
 265 155 265 155 272 170 c 256,12,13
 277 180 277 180 287 179 c 256,14,15
 296 179 296 179 300 170 c 257,16,-1
 121 -500 l 257,17,18
 110 -510 110 -510 94 -510 c 256,19,20
 77 -510 77 -510 66 -500 c 257,21,-1
 167 -173 l 257,22,23
 102 -196 102 -196 61 -196 c 256,24,25
 26 -196 26 -196 -0 -174 c 256,26,27
 -26 -152 -26 -152 -26 -117 c 256,28,29
 -26 -87 -26 -87 -5 -66 c 256,30,31
 16 -45 16 -45 46 -45 c 256,32,33
 74 -45 74 -45 88 -61 c 256,34,35
 102 -77 102 -77 105 -94 c 256,36,37
 108 -112 108 -112 115 -127 c 256,38,39
 122 -142 122 -142 137 -143 c 256,40,41
 148 -143 148 -143 170 -116 c 256,42,43
 193 -89 193 -89 197 -75 c 258,44,-1
 243 76 l 257,45,46
 181 54 181 54 139 54 c 256,47,48
 104 54 104 54 78 76 c 256,49,50
 52 98 52 98 52 133 c 256,51,52
 52 163 52 163 73 184 c 256,53,54
 95 205 95 205 125 205 c 256,0,1
EndSplineSet
EndChar

StartChar: rests.5
Encoding: 291 57611 35
Width: 324
Flags: W
HStem: -196 54<15 122> 54 54<82 189> 304 54<151 258>
VStem: -55 131<-140 -67> 13 132<110 183> 54 56<-500 -444> 82 131<360 433>
DStem2: 54 -500 109 -500 0.228406 0.973566<-2.28869 338.129 364.29 563.993> 206 77 325 420 0.228406 0.973566<-113.6 0 52.197 257.608 293.315 362.054>
CounterMasks: 1 e0
LayerCount: 2
Fore
SplineSet
154 455 m 256,0,1
 182 455 182 455 197 439 c 256,2,3
 211 423 211 423 213 406 c 256,4,5
 215 388 215 388 223 373 c 256,6,7
 230 358 230 358 245 357 c 256,8,9
 255 357 255 357 273 381 c 256,10,11
 291 405 291 405 297 420 c 256,12,13
 302 430 302 430 312 429 c 256,14,15
 322 429 322 429 325 420 c 257,16,-1
 109 -500 l 257,17,18
 98 -510 98 -510 81 -510 c 256,19,20
 65 -510 65 -510 54 -500 c 257,21,-1
 140 -173 l 257,22,23
 78 -196 78 -196 32 -196 c 256,24,25
 -3 -196 -3 -196 -29 -174 c 256,26,27
 -55 -152 -55 -152 -55 -117 c 256,28,29
 -55 -87 -55 -87 -34 -66 c 256,30,31
 -13 -45 -13 -45 17 -45 c 256,32,33
 45 -45 45 -45 60 -61 c 256,34,35
 75 -77 75 -77 77 -94 c 256,36,37
 79 -112 79 -112 86 -127 c 256,38,39
 93 -142 93 -142 108 -143 c 256,40,41
 120 -143 120 -143 142 -115 c 256,42,43
 163 -87 163 -87 167 -72 c 258,44,-1
 206 77 l 257,45,46
 141 54 141 54 100 54 c 256,47,48
 65 54 65 54 39 76 c 256,49,50
 13 98 13 98 13 133 c 256,51,52
 13 163 13 163 34 184 c 256,53,54
 55 205 55 205 86 205 c 256,55,56
 114 205 114 205 128 189 c 256,57,58
 142 173 142 173 145 156 c 256,59,60
 148 138 148 138 154 123 c 256,61,62
 161 108 161 108 176 107 c 256,63,64
 187 107 187 107 208 134 c 256,65,66
 229 161 229 161 232 175 c 258,67,-1
 272 326 l 257,68,69
 212 304 212 304 169 304 c 256,70,71
 134 304 134 304 108 326 c 256,72,73
 82 348 82 348 82 383 c 256,74,75
 82 413 82 413 103 434 c 256,76,77
 124 455 124 455 154 455 c 256,0,1
EndSplineSet
EndChar

StartChar: rests.6
Encoding: 292 57612 36
Width: 349
Flags: W
HStem: -446 54<2 110> -196 54<62 182> 54 54<121 227> 304 54<182 287>
VStem: -67 132<-390 -317> -7 131<-140 -67> 52 131<110 183> 60 56<-750 -694> 112 131<360 433>
DStem2: 60 -750 115 -750 0.196431 0.980518<-3.21235 336.119 367.472 580.798> 189 -173 350 420 0.196431 0.980518<-436.263 -255.298 -197.785 0 43.5139 256.064>
LayerCount: 2
Fore
SplineSet
184 455 m 256,0,1
 212 455 212 455 227 439 c 256,2,3
 242 423 242 423 244 406 c 256,4,5
 246 388 246 388 253 373 c 256,6,7
 260 358 260 358 275 357 c 256,8,9
 284 357 284 357 300 381 c 256,10,11
 316 404 316 404 322 420 c 256,12,13
 327 430 327 430 336 429 c 256,14,15
 345 429 345 429 350 420 c 257,16,-1
 115 -750 l 257,17,18
 104 -760 104 -760 87 -760 c 256,19,20
 71 -760 71 -760 60 -750 c 257,21,-1
 133 -422 l 257,22,23
 67 -446 67 -446 20 -446 c 256,24,25
 -15 -446 -15 -446 -42 -424 c 256,26,27
 -68 -402 -68 -402 -67 -367 c 256,28,29
 -67 -337 -67 -337 -46 -316 c 256,30,31
 -25 -295 -25 -295 6 -295 c 256,32,33
 34 -295 34 -295 48 -311 c 256,34,35
 62 -327 62 -327 64 -344 c 256,36,37
 67 -362 67 -362 74 -377 c 256,38,39
 81 -392 81 -392 96 -393 c 256,40,41
 108 -393 108 -393 130 -364 c 256,42,43
 153 -335 153 -335 156 -320 c 258,44,-1
 189 -173 l 257,45,46
 127 -196 127 -196 80 -196 c 256,47,48
 45 -196 45 -196 19 -174 c 256,49,50
 -7 -152 -7 -152 -7 -117 c 256,51,52
 -7 -87 -7 -87 14 -66 c 256,53,54
 35 -45 35 -45 65 -45 c 256,55,56
 93 -45 93 -45 108 -61 c 256,57,58
 122 -77 122 -77 125 -94 c 256,59,60
 127 -112 127 -112 134 -127 c 256,61,62
 141 -142 141 -142 156 -143 c 256,63,64
 168 -143 168 -143 188 -115 c 256,65,66
 209 -87 209 -87 211 -72 c 258,67,-1
 245 77 l 257,68,69
 180 54 180 54 139 54 c 256,70,71
 104 54 104 54 78 76 c 256,72,73
 52 98 52 98 52 133 c 256,74,75
 52 163 52 163 73 184 c 256,76,77
 94 205 94 205 125 205 c 256,78,79
 153 205 153 205 167 189 c 256,80,81
 181 173 181 173 183 156 c 256,82,83
 185 138 185 138 193 123 c 256,84,85
 200 108 200 108 215 107 c 256,86,87
 225 107 225 107 244 134 c 256,88,89
 263 161 263 161 267 175 c 258,90,-1
 301 326 l 257,91,92
 240 304 240 304 199 304 c 256,93,94
 164 304 164 304 138 326 c 256,95,96
 112 348 112 348 112 383 c 256,97,98
 112 413 112 413 133 434 c 256,99,100
 154 455 154 455 184 455 c 256,0,1
EndSplineSet
EndChar

StartChar: rests.7
Encoding: 293 57613 37
Width: 375
Flags: W
HStem: -446 54<10 131> -196 54<60 167> 54 54<110 216> 304 54<160 266> 554 54<211 315>
VStem: -60 131<-390 -317> -10 131<-140 -67> 41 131<110 183> 83 55<-750 -695> 91 131<360 433> 142 132<610 683>
DStem2: 83 -750 138 -750 0.164839 0.98632<-4.42242 334.58 370.504 587.924 615.948 822.19> 236 77 375 670 0.164839 0.98632<-197.663 0 43.3689 253.344 286.932 507.489>
LayerCount: 2
Fore
SplineSet
214 705 m 256,0,1
 242 705 242 705 257 689 c 256,2,3
 272 673 272 673 274 656 c 256,4,5
 276 638 276 638 283 623 c 256,6,7
 290 608 290 608 305 607 c 256,8,9
 318 607 318 607 347 670 c 256,10,11
 352 680 352 680 361 679 c 256,12,13
 371 679 371 679 375 670 c 257,14,-1
 138 -750 l 257,15,16
 127 -760 127 -760 110 -760 c 256,17,18
 94 -760 94 -760 83 -750 c 257,19,-1
 144 -421 l 257,20,21
 76 -446 76 -446 27 -446 c 256,22,23
 -8 -446 -8 -446 -34 -424 c 256,24,25
 -60 -402 -60 -402 -60 -367 c 256,26,27
 -60 -337 -60 -337 -39 -316 c 256,28,29
 -18 -295 -18 -295 12 -295 c 256,30,31
 40 -295 40 -295 55 -311 c 256,32,33
 70 -327 70 -327 72 -344 c 256,34,35
 74 -362 74 -362 81 -377 c 256,36,37
 88 -392 88 -392 103 -393 c 256,38,39
 116 -393 116 -393 138 -363 c 256,40,41
 161 -333 161 -333 163 -317 c 258,42,-1
 190 -172 l 257,43,44
 122 -196 122 -196 77 -196 c 256,45,46
 42 -196 42 -196 16 -174 c 256,47,48
 -10 -152 -10 -152 -10 -117 c 256,49,50
 -10 -87 -10 -87 11 -66 c 256,51,52
 32 -45 32 -45 62 -45 c 256,53,54
 90 -45 90 -45 104 -61 c 256,55,56
 119 -77 119 -77 122 -94 c 256,57,58
 124 -112 124 -112 131 -127 c 256,59,60
 138 -142 138 -142 153 -143 c 256,61,62
 165 -143 165 -143 186 -114 c 256,63,64
 207 -85 207 -85 209 -70 c 258,65,-1
 236 77 l 257,66,67
 174 54 174 54 128 54 c 256,68,69
 93 54 93 54 67 76 c 256,70,71
 41 98 41 98 41 133 c 256,72,73
 41 163 41 163 62 184 c 256,74,75
 83 205 83 205 113 205 c 256,76,77
 141 205 141 205 156 189 c 256,78,79
 170 173 170 173 172 156 c 256,80,81
 174 138 174 138 182 123 c 256,82,83
 189 108 189 108 204 107 c 256,84,85
 215 107 215 107 233 135 c 256,86,87
 252 163 252 163 255 178 c 258,88,-1
 283 326 l 257,89,90
 221 304 221 304 178 304 c 256,91,92
 143 304 143 304 117 326 c 256,93,94
 91 348 91 348 91 383 c 256,95,96
 91 413 91 413 112 434 c 256,97,98
 133 455 133 455 163 455 c 256,99,100
 191 455 191 455 206 439 c 256,101,102
 220 423 220 423 222 406 c 256,103,104
 224 388 224 388 232 373 c 256,105,106
 239 358 239 358 254 357 c 256,107,108
 264 357 264 357 281 384 c 256,109,110
 298 411 298 411 301 425 c 258,111,-1
 329 576 l 257,112,113
 270 554 270 554 229 554 c 256,114,115
 194 554 194 554 167 576 c 256,116,117
 141 598 141 598 142 633 c 256,118,119
 142 663 142 663 163 684 c 256,120,121
 184 705 184 705 214 705 c 256,0,1
EndSplineSet
EndChar

StartChar: accidentals.sharp
Encoding: 294 57614 38
Width: 274
Flags: W
VStem: 0 96<-211 -198 51 65> 59 37<-375 -211 -95 51 167 330> 179 37<-330 -167 -51 95 211 375>
LayerCount: 2
Fore
SplineSet
216 -312 m 258,0,1
 216 -331 216 -331 197 -330 c 256,2,3
 178 -330 178 -330 179 -312 c 258,4,-1
 179 -167 l 257,5,-1
 96 -198 l 257,6,-1
 96 -356 l 258,7,8
 96 -375 96 -375 77 -375 c 256,9,10
 58 -375 58 -375 59 -356 c 258,11,-1
 59 -211 l 257,12,-1
 27 -223 l 258,13,14
 25 -224 25 -224 20 -224 c 256,15,16
 12 -224 12 -224 6 -218 c 256,17,18
 0 -212 0 -212 0 -204 c 258,19,-1
 0 -144 l 258,20,21
 0 -130 0 -130 13 -125 c 258,22,-1
 59 -109 l 257,23,-1
 59 51 l 257,24,-1
 27 40 l 258,25,26
 25 39 25 39 20 39 c 256,27,28
 12 39 12 39 6 45 c 256,29,30
 0 51 0 51 0 59 c 258,31,-1
 0 119 l 258,32,33
 0 132 0 132 13 137 c 258,34,-1
 59 154 l 257,35,-1
 59 312 l 258,36,37
 59 331 59 331 77 330 c 256,38,39
 96 330 96 330 96 312 c 258,40,-1
 96 167 l 257,41,-1
 179 198 l 257,42,-1
 179 356 l 257,43,44
 179 375 179 375 197 375 c 256,45,46
 216 375 216 375 216 356 c 258,47,-1
 216 211 l 257,48,-1
 248 223 l 258,49,50
 250 224 250 224 255 224 c 256,51,52
 263 224 263 224 269 218 c 256,53,54
 275 212 275 212 275 204 c 258,55,-1
 275 144 l 258,56,57
 275 130 275 130 262 125 c 258,58,-1
 216 109 l 257,59,-1
 216 -51 l 257,60,-1
 248 -40 l 258,61,62
 250 -39 250 -39 255 -39 c 256,63,64
 263 -39 263 -39 269 -45 c 256,65,66
 275 -51 275 -51 275 -59 c 258,67,-1
 275 -119 l 258,68,69
 275 -132 275 -132 262 -137 c 258,70,-1
 216 -154 l 257,71,-1
 216 -312 l 258,0,1
179 95 m 257,72,-1
 96 65 l 257,73,-1
 96 -95 l 257,74,-1
 179 -65 l 257,75,-1
 179 95 l 257,72,-1
EndSplineSet
EndChar

StartChar: accidentals.sharp.slashslash.stem
Encoding: 295 57615 39
Width: 173
Flags: W
VStem: 69 37<-337 -195 -67 67 195 337>
LayerCount: 2
Fore
SplineSet
106 -318 m 258,0,1
 106 -337 106 -337 88 -337 c 256,2,3
 69 -337 69 -337 69 -318 c 258,4,-1
 69 -195 l 257,5,-1
 30 -217 l 258,6,7
 26 -220 26 -220 20 -220 c 256,8,9
 12 -220 12 -220 6 -214 c 256,10,11
 0 -209 0 -209 0 -200 c 258,12,-1
 0 -140 l 258,13,14
 0 -129 0 -129 10 -122 c 257,15,-1
 69 -89 l 257,16,-1
 69 67 l 257,17,-1
 30 45 l 258,18,19
 27 43 27 43 20 43 c 256,20,21
 12 43 12 43 6 48 c 256,22,23
 0 53 0 53 0 63 c 258,24,-1
 0 123 l 258,25,26
 0 133 0 133 10 140 c 257,27,-1
 69 174 l 257,28,-1
 69 318 l 258,29,30
 69 337 69 337 88 337 c 256,31,32
 107 337 107 337 106 318 c 258,33,-1
 106 195 l 257,34,-1
 145 217 l 258,35,36
 150 220 150 220 155 220 c 256,37,38
 163 220 163 220 169 214 c 256,39,40
 175 209 175 209 175 200 c 258,41,-1
 175 140 l 258,42,43
 175 129 175 129 165 122 c 257,44,-1
 106 89 l 257,45,-1
 106 -67 l 257,46,-1
 145 -45 l 258,47,48
 148 -43 148 -43 155 -43 c 256,49,50
 163 -43 163 -43 169 -48 c 256,51,52
 175 -53 175 -53 175 -63 c 258,53,-1
 175 -123 l 258,54,55
 175 -133 175 -133 165 -140 c 257,56,-1
 106 -174 l 257,57,-1
 106 -318 l 258,0,1
EndSplineSet
EndChar

StartChar: accidentals.sharp.slashslashslash.stemstem
Encoding: 296 57616 40
Width: 274
Flags: W
VStem: 59 37<-375 -217 -123 -73 33 83 177 335> 179 37<-335 -177 -83 -33 73 123 217 375>
DStem2: 14 6 26 -83 0.950249 0.311492<-21.5423 18.0475 86.4675 144.66 213.08 253.43> 30 156 59 83 0.951405 0.307943<-18.6396 4.38969 68.5653 130.999 195.175 219.134> 30 -144 59 -217 0.951405 0.307943<-18.6396 4.38969 68.5653 130.999 195.175 219.134>
LayerCount: 2
Fore
SplineSet
216 -316 m 258,0,1
 216 -335 216 -335 197 -335 c 256,2,3
 178 -335 178 -335 179 -316 c 258,4,-1
 179 -177 l 257,5,-1
 96 -205 l 257,6,-1
 96 -356 l 258,7,8
 96 -375 96 -375 77 -375 c 256,9,10
 58 -375 58 -375 59 -356 c 258,11,-1
 59 -217 l 257,12,-1
 43 -222 l 258,13,14
 41 -223 41 -223 36 -223 c 256,15,16
 28 -223 28 -223 22 -217 c 256,17,18
 16 -211 16 -211 16 -203 c 258,19,-1
 16 -163 l 258,20,21
 16 -149 16 -149 30 -144 c 257,22,-1
 59 -135 l 257,23,-1
 59 -73 l 257,24,-1
 26 -83 l 258,25,26
 24 -84 24 -84 20 -84 c 256,27,28
 12 -84 12 -84 6 -78 c 256,29,30
 0 -72 0 -72 0 -64 c 258,31,-1
 0 -13 l 258,32,33
 0 1 0 1 14 6 c 258,34,-1
 59 20 l 257,35,-1
 59 83 l 257,36,-1
 43 78 l 258,37,38
 41 77 41 77 36 77 c 256,39,40
 28 77 28 77 22 83 c 256,41,42
 16 89 16 89 16 97 c 258,43,-1
 16 137 l 258,44,45
 16 151 16 151 30 156 c 257,46,-1
 59 165 l 257,47,-1
 59 316 l 258,48,49
 59 335 59 335 77 335 c 256,50,51
 96 335 96 335 96 316 c 258,52,-1
 96 177 l 257,53,-1
 179 205 l 257,54,-1
 179 356 l 258,55,56
 179 375 179 375 197 375 c 256,57,58
 216 375 216 375 216 356 c 258,59,-1
 216 217 l 257,60,-1
 232 222 l 258,61,62
 234 223 234 223 239 223 c 256,63,64
 247 223 247 223 253 217 c 256,65,66
 259 211 259 211 259 203 c 258,67,-1
 259 163 l 258,68,69
 259 149 259 149 245 144 c 257,70,-1
 216 135 l 257,71,-1
 216 73 l 257,72,-1
 249 83 l 258,73,74
 251 84 251 84 255 84 c 256,75,76
 263 84 263 84 269 78 c 256,77,78
 275 72 275 72 275 64 c 258,79,-1
 275 13 l 258,80,81
 275 -1 275 -1 261 -6 c 258,82,-1
 216 -20 l 257,83,-1
 216 -83 l 257,84,-1
 232 -78 l 258,85,86
 234 -77 234 -77 239 -77 c 256,87,88
 247 -77 247 -77 253 -83 c 256,89,90
 259 -89 259 -89 259 -97 c 258,91,-1
 259 -137 l 258,92,93
 259 -151 259 -151 245 -156 c 257,94,-1
 216 -165 l 257,95,-1
 216 -316 l 258,0,1
179 -33 m 257,96,-1
 96 -60 l 257,97,-1
 96 -123 l 257,98,-1
 179 -95 l 257,99,-1
 179 -33 l 257,96,-1
179 60 m 257,100,-1
 179 123 l 257,101,-1
 96 95 l 257,102,-1
 96 33 l 257,103,-1
 179 60 l 257,100,-1
EndSplineSet
EndChar

StartChar: accidentals.sharp.slashslashslash.stem
Encoding: 297 57617 41
Width: 236
Flags: W
VStem: 100 38<-323 -200 -100 -60 60 100 200 323>
DStem2: 36 157 52 80 0.923431 0.383764<-21.678 36.5049 110.275 169.36> 36 -143 52 -220 0.923431 0.383764<-21.678 36.5049 110.275 169.36> 100 44 100 -60 0.922403 0.386228<-117.033 -39.9807 41.1654 119.483>
LayerCount: 2
Fore
SplineSet
138 -304 m 258,0,1
 137 -324 137 -324 118 -323 c 256,2,3
 99 -323 99 -323 100 -304 c 258,4,-1
 100 -200 l 257,5,-1
 52 -220 l 258,6,7
 46 -222 46 -222 44 -222 c 256,8,9
 36 -222 36 -222 30 -216 c 256,10,11
 24 -211 24 -211 24 -202 c 258,12,-1
 24 -162 l 258,13,14
 24 -148 24 -148 36 -143 c 258,15,-1
 100 -116 l 257,16,-1
 100 -60 l 257,17,-1
 28 -90 l 258,18,19
 22 -92 22 -92 20 -92 c 256,20,21
 12 -92 12 -92 6 -86 c 256,22,23
 0 -81 0 -81 0 -72 c 258,24,-1
 0 -12 l 258,25,26
 0 2 0 2 12 7 c 258,27,-1
 100 44 l 257,28,-1
 100 100 l 257,29,-1
 52 80 l 258,30,31
 46 78 46 78 44 78 c 256,32,33
 36 78 36 78 30 83 c 256,34,35
 24 88 24 88 24 98 c 258,36,-1
 24 138 l 258,37,38
 24 152 24 152 36 157 c 258,39,-1
 100 184 l 257,40,-1
 100 304 l 258,41,42
 100 324 100 324 119 323 c 256,43,44
 138 323 138 323 138 304 c 258,45,-1
 138 200 l 257,46,-1
 186 220 l 258,47,48
 192 222 192 222 194 222 c 256,49,50
 202 222 202 222 208 216 c 256,51,52
 214 211 214 211 214 202 c 258,53,-1
 214 162 l 258,54,55
 214 148 214 148 202 143 c 257,56,-1
 138 116 l 257,57,-1
 138 60 l 257,58,-1
 210 90 l 258,59,60
 216 92 216 92 218 92 c 256,61,62
 226 92 226 92 232 86 c 256,63,64
 238 81 238 81 238 72 c 258,65,-1
 238 12 l 258,66,67
 238 -1 238 -1 225 -7 c 258,68,-1
 138 -44 l 257,69,-1
 138 -100 l 257,70,-1
 186 -80 l 258,71,72
 192 -78 192 -78 194 -78 c 256,73,74
 202 -78 202 -78 208 -83 c 256,75,76
 214 -88 214 -88 214 -98 c 258,77,-1
 214 -138 l 258,78,79
 214 -152 214 -152 202 -157 c 257,80,-1
 138 -184 l 257,81,-1
 138 -304 l 258,0,1
EndSplineSet
EndChar

StartChar: accidentals.sharp.slashslash.stemstemstem
Encoding: 298 57618 42
Width: 399
Flags: W
VStem: 69 37<-375 -215 -104 48 158 319> 182 37<-347 -187 -76 76 187 347> 294 37<-318 -158 -48 104 215 375>
DStem2: 15 136 25 37 0.97045 0.241301<-19.2974 31.8634 94.5042 147.684 210.324 263.267 326.143 377.069> 15 -127 25 -226 0.970598 0.240708<-19.0024 31.9235 94.7395 147.743 210.324 263.563 326.144 379.301>
CounterMasks: 1 e0
LayerCount: 2
Fore
SplineSet
331 -300 m 257,0,1
 330 -319 330 -319 312 -318 c 256,2,3
 293 -318 293 -318 294 -300 c 258,4,-1
 294 -158 l 257,5,-1
 219 -177 l 257,6,-1
 219 -328 l 258,7,8
 219 -347 219 -347 200 -347 c 256,9,10
 181 -347 181 -347 182 -328 c 258,11,-1
 182 -187 l 257,12,-1
 106 -205 l 257,13,-1
 106 -356 l 258,14,15
 106 -375 106 -375 88 -375 c 256,16,17
 69 -375 69 -375 69 -356 c 258,18,-1
 69 -215 l 257,19,-1
 25 -226 l 257,20,-1
 20 -226 l 258,21,22
 12 -226 12 -226 6 -220 c 256,23,24
 0 -214 0 -214 0 -206 c 258,25,-1
 0 -146 l 258,26,27
 0 -130 0 -130 15 -127 c 258,28,-1
 69 -113 l 257,29,-1
 69 48 l 257,30,-1
 25 37 l 257,31,-1
 20 36 l 257,32,33
 12 36 12 36 6 42 c 256,34,35
 0 48 0 48 0 56 c 258,36,-1
 0 116 l 258,37,38
 0 132 0 132 15 136 c 258,39,-1
 69 149 l 257,40,-1
 69 300 l 258,41,42
 69 320 69 320 88 319 c 256,43,44
 107 319 107 319 106 300 c 258,45,-1
 106 158 l 257,46,-1
 182 177 l 257,47,-1
 182 328 l 258,48,49
 182 347 182 347 200 347 c 256,50,51
 219 347 219 347 219 328 c 258,52,-1
 219 187 l 257,53,-1
 294 205 l 257,54,-1
 294 356 l 258,55,56
 294 375 294 375 312 375 c 256,57,58
 331 375 331 375 331 356 c 258,59,-1
 331 215 l 257,60,-1
 376 226 l 257,61,-1
 381 226 l 258,62,63
 389 226 389 226 395 220 c 256,64,65
 401 214 401 214 401 206 c 258,66,-1
 401 146 l 258,67,68
 401 130 401 130 386 127 c 258,69,-1
 331 113 l 257,70,-1
 331 -48 l 257,71,-1
 376 -37 l 257,72,-1
 381 -36 l 257,73,74
 389 -36 389 -36 395 -42 c 256,75,76
 401 -48 401 -48 401 -56 c 258,77,-1
 401 -116 l 258,78,79
 401 -133 401 -133 386 -136 c 258,80,-1
 331 -149 l 257,81,-1
 331 -300 l 257,0,1
294 104 m 257,82,-1
 219 85 l 257,83,-1
 219 -76 l 257,84,-1
 294 -57 l 257,85,-1
 294 104 l 257,82,-1
182 76 m 257,86,-1
 106 57 l 257,87,-1
 106 -104 l 257,88,-1
 182 -85 l 257,89,-1
 182 76 l 257,86,-1
EndSplineSet
EndChar

StartChar: accidentals.natural
Encoding: 299 57619 43
Width: 166
Flags: W
VStem: -8 48<-112 95 192 382> 0 36<-112 95 192 316> 124 51<-382 -192 -95 112>
LayerCount: 2
Fore
SplineSet
-8 375 m 257,0,1
 6 382 6 382 18 382 c 256,2,3
 30 382 30 382 43 375 c 257,4,-1
 40 192 l 257,5,-1
 146 212 l 257,6,-1
 150 212 l 258,7,8
 168 212 168 212 168 195 c 258,9,-1
 175 -375 l 257,10,11
 161 -382 161 -382 149 -382 c 256,12,13
 137 -382 137 -382 124 -375 c 257,14,-1
 127 -192 l 257,15,-1
 21 -212 l 257,16,-1
 18 -212 l 258,17,18
 0 -212 0 -212 0 -195 c 258,19,-1
 -8 375 l 257,0,1
128 -95 m 257,20,-1
 131 112 l 257,21,-1
 39 95 l 257,22,-1
 36 -112 l 257,23,-1
 128 -95 l 257,20,-1
EndSplineSet
EndChar

StartChar: accidentals.flat
Encoding: 300 57620 44
Width: 198
Flags: W
HStem: 104 43<40 131>
VStem: -27 55<148 465> -15 41<-101 85 112 170> 123 77<-18 96>
DStem2: 30 -102 24 -157 0.762377 0.647134<0.060672 125.48>
LayerCount: 2
Fore
SplineSet
26 41 m 258,0,-1
 26 -36 l 258,1,2
 26 -73 26 -73 30 -102 c 257,3,4
 59 -77 59 -77 76 -61 c 256,5,6
 92 -45 92 -45 107 -18 c 256,7,8
 123 9 123 9 123 37 c 256,9,10
 123 64 123 64 111 84 c 256,11,12
 99 104 99 104 80 104 c 256,13,14
 57 104 57 104 42 85 c 256,15,16
 26 67 26 67 26 41 c 258,0,-1
-15 -138 m 258,17,-1
 -27 457 l 257,18,19
 -14 465 -14 465 0 465 c 256,20,21
 14 465 14 465 27 457 c 257,22,-1
 20 112 l 257,23,24
 60 146 60 146 111 146 c 256,25,26
 149 146 149 146 175 116 c 256,27,28
 200 85 200 85 200 44 c 256,29,30
 200 16 200 16 184 -10 c 256,31,32
 168 -35 168 -35 150 -50 c 256,33,34
 132 -65 132 -65 101 -89 c 256,35,36
 69 -113 69 -113 53 -125 c 256,37,38
 48 -129 48 -129 40 -140 c 256,39,40
 32 -151 32 -151 24 -157 c 256,41,42
 16 -163 16 -163 8 -163 c 256,43,44
 -2 -163 -2 -163 -8 -156 c 256,45,46
 -15 -149 -15 -149 -15 -138 c 258,17,-1
EndSplineSet
EndChar

StartChar: accidentals.flat.slash
Encoding: 301 57621 45
Width: 198
Flags: W
HStem: 104 43<42 131>
VStem: -22 42<113 206> -15 41<-101 85> 123 77<-18 96>
DStem2: -23 247 -22 206 0.893554 0.448956<-111.02 -17.5416 51.9693 144.161> 30 -102 24 -157 0.762377 0.647134<0.060672 125.48>
LayerCount: 2
Fore
SplineSet
27 41 m 258,0,-1
 26 -36 l 258,1,2
 26 -73 26 -73 30 -102 c 257,3,4
 59 -77 59 -77 76 -61 c 256,5,6
 92 -45 92 -45 107 -18 c 256,7,8
 123 9 123 9 123 37 c 256,9,10
 123 64 123 64 111 84 c 256,11,12
 99 104 99 104 80 104 c 256,13,14
 57 104 57 104 42 85 c 256,15,16
 28 67 28 67 27 41 c 258,0,-1
-23 247 m 257,17,-1
 -27 457 l 257,18,19
 -14 465 -14 465 0 465 c 256,20,21
 14 465 14 465 27 457 c 257,22,-1
 23 270 l 257,23,-1
 92 304 l 258,24,25
 102 309 102 309 110 302 c 256,26,27
 119 296 119 296 119 287 c 256,28,29
 119 278 119 278 108 271 c 258,30,-1
 22 228 l 257,31,-1
 20 112 l 257,32,33
 60 146 60 146 111 146 c 256,34,35
 149 146 149 146 175 116 c 256,36,37
 200 85 200 85 200 44 c 256,38,39
 200 16 200 16 184 -10 c 256,40,41
 168 -35 168 -35 150 -50 c 256,42,43
 132 -65 132 -65 101 -89 c 256,44,45
 69 -113 69 -113 53 -125 c 256,46,47
 48 -129 48 -129 40 -140 c 256,48,49
 32 -151 32 -151 24 -157 c 256,50,51
 16 -163 16 -163 8 -163 c 256,52,53
 -2 -163 -2 -163 -8 -156 c 256,54,55
 -14 -149 -14 -149 -15 -138 c 258,56,-1
 -22 206 l 257,57,-1
 -92 171 l 258,58,59
 -101 166 -101 166 -110 171 c 256,60,61
 -119 176 -119 176 -119 187 c 256,62,63
 -119 199 -119 199 -108 204 c 258,64,-1
 -23 247 l 257,17,-1
EndSplineSet
EndChar

StartChar: accidentals.flat.slashslash
Encoding: 302 57622 46
Width: 198
Flags: W
HStem: 104 43<42 131>
VStem: -15 41<-101 85 269 284 350 427> 123 77<-18 96>
DStem2: -24 325 -24 284 0.895299 0.445466<-109.386 -18.2711 55.4657 145.511> -22 208 -21 166 0.893554 0.448956<-112.118 -17.9801 50.2241 143.289> 30 -102 24 -157 0.762377 0.647134<0.060672 125.48>
LayerCount: 2
Fore
SplineSet
27 41 m 258,0,-1
 26 -36 l 258,1,2
 26 -73 26 -73 30 -102 c 257,3,4
 59 -77 59 -77 76 -61 c 256,5,6
 92 -45 92 -45 107 -18 c 256,7,8
 123 9 123 9 123 37 c 256,9,10
 123 64 123 64 111 84 c 256,11,12
 99 104 99 104 80 104 c 256,13,14
 57 104 57 104 42 85 c 256,15,16
 28 67 28 67 27 41 c 258,0,-1
-24 325 m 257,17,-1
 -27 457 l 257,18,19
 -14 465 -14 465 0 465 c 256,20,21
 14 465 14 465 27 457 c 257,22,-1
 25 350 l 257,23,-1
 92 383 l 258,24,25
 102 388 102 388 110 381 c 256,26,27
 119 375 119 375 119 366 c 256,28,29
 119 357 119 357 108 350 c 257,30,-1
 24 308 l 257,31,-1
 22 230 l 257,32,-1
 92 265 l 258,33,34
 102 270 102 270 110 263 c 256,35,36
 119 257 119 257 119 247 c 256,37,38
 119 237 119 237 108 231 c 258,39,-1
 22 188 l 257,40,-1
 20 112 l 257,41,42
 60 146 60 146 111 146 c 256,43,44
 149 146 149 146 175 116 c 256,45,46
 200 85 200 85 200 44 c 256,47,48
 200 16 200 16 184 -10 c 256,49,50
 168 -35 168 -35 150 -50 c 256,51,52
 132 -65 132 -65 101 -89 c 256,53,54
 69 -113 69 -113 53 -125 c 256,55,56
 48 -129 48 -129 40 -140 c 256,57,58
 32 -151 32 -151 24 -157 c 256,59,60
 16 -163 16 -163 8 -163 c 256,61,62
 -2 -163 -2 -163 -8 -156 c 256,63,64
 -14 -149 -14 -149 -15 -138 c 258,65,-1
 -21 166 l 257,66,-1
 -92 131 l 258,67,68
 -101 126 -101 126 -110 132 c 256,69,70
 -119 138 -119 138 -119 148 c 256,71,72
 -119 160 -119 160 -108 165 c 258,73,-1
 -22 208 l 257,74,-1
 -24 284 l 257,75,-1
 -92 250 l 258,76,77
 -101 245 -101 245 -110 251 c 256,78,79
 -119 257 -119 257 -119 267 c 256,80,81
 -119 278 -119 278 -108 283 c 258,82,-1
 -24 325 l 257,17,-1
EndSplineSet
EndChar

StartChar: accidentals.mirroredflat.flat
Encoding: 303 57623 47
Width: 399
Flags: W
HStem: 104 43<69 158 241 312>
VStem: 0 77<-18 96> 173 54<-101 85 113 465> 323 77<-18 96>
DStem2: 230 -102 225 -157 0.762377 0.647134<0.060672 117.719>
LayerCount: 2
Fore
SplineSet
208 -163 m 258,0,-1
 192 -163 l 258,1,2
 183 -163 183 -163 176 -157 c 256,3,4
 168 -151 168 -151 160 -140 c 256,5,6
 152 -129 152 -129 147 -125 c 256,7,8
 132 -113 132 -113 100 -89 c 256,9,10
 67 -65 67 -65 50 -50 c 256,11,12
 32 -35 32 -35 16 -10 c 256,13,14
 0 15 0 15 0 44 c 256,15,16
 0 85 0 85 25 116 c 256,17,18
 50 147 50 147 89 146 c 256,19,20
 141 146 141 146 180 113 c 257,21,-1
 173 457 l 257,22,23
 186 465 186 465 200 465 c 256,24,25
 214 465 214 465 227 457 c 257,26,-1
 220 113 l 257,27,28
 259 146 259 146 311 146 c 256,29,30
 349 146 349 146 375 116 c 256,31,32
 401 85 401 85 400 44 c 256,33,34
 400 16 400 16 384 -10 c 256,35,36
 368 -35 368 -35 351 -50 c 256,37,38
 333 -65 333 -65 300 -89 c 256,39,40
 267 -113 267 -113 253 -125 c 256,41,42
 248 -129 248 -129 240 -140 c 256,43,44
 232 -151 232 -151 225 -157 c 256,45,46
 217 -163 217 -163 208 -163 c 258,0,-1
173 41 m 258,47,48
 172 67 172 67 157 85 c 256,49,50
 142 103 142 103 120 104 c 256,51,52
 100 104 100 104 89 84 c 256,53,54
 77 64 77 64 77 37 c 256,55,56
 77 10 77 10 93 -18 c 256,57,58
 109 -45 109 -45 125 -61 c 256,59,60
 141 -77 141 -77 170 -102 c 257,61,62
 174 -73 174 -73 174 -36 c 258,63,-1
 173 41 l 258,47,48
227 41 m 258,64,-1
 226 -36 l 258,65,66
 226 -73 226 -73 230 -102 c 257,67,68
 259 -77 259 -77 276 -61 c 256,69,70
 292 -45 292 -45 308 -18 c 256,71,72
 324 9 324 9 323 37 c 256,73,74
 323 64 323 64 312 84 c 256,75,76
 300 104 300 104 280 104 c 256,77,78
 257 104 257 104 242 85 c 256,79,80
 228 67 228 67 227 41 c 258,64,-1
EndSplineSet
EndChar

StartChar: accidentals.mirroredflat
Encoding: 304 57624 48
Width: 198
Flags: W
HStem: 104 43<40 128>
VStem: -30 77<-18 96> 143 55<148 464>
LayerCount: 2
Fore
SplineSet
143 41 m 258,0,1
 142 67 142 67 127 85 c 256,2,3
 113 103 113 103 90 104 c 256,4,5
 70 104 70 104 59 84 c 256,6,7
 47 64 47 64 47 37 c 256,8,9
 46 10 46 10 62 -18 c 256,10,11
 78 -45 78 -45 95 -61 c 256,12,13
 112 -77 112 -77 140 -102 c 257,14,15
 144 -73 144 -73 144 -36 c 258,16,-1
 143 41 l 258,0,1
185 -138 m 258,17,18
 185 -149 185 -149 178 -156 c 256,19,20
 172 -163 172 -163 162 -163 c 256,21,22
 153 -163 153 -163 146 -157 c 256,23,24
 138 -151 138 -151 130 -140 c 256,25,26
 122 -129 122 -129 117 -125 c 256,27,28
 102 -113 102 -113 70 -89 c 256,29,30
 37 -65 37 -65 20 -50 c 256,31,32
 2 -35 2 -35 -14 -10 c 256,33,34
 -30 15 -30 15 -30 44 c 256,35,36
 -30 85 -30 85 -4 116 c 256,37,38
 22 147 22 147 59 146 c 256,39,40
 110 146 110 146 150 112 c 257,41,-1
 143 457 l 257,42,43
 156 465 156 465 169 465 c 256,44,45
 183 465 183 465 197 457 c 257,46,-1
 185 -138 l 258,17,18
EndSplineSet
EndChar

StartChar: accidentals.mirroredflat.backslash
Encoding: 305 57625 49
Width: 198
Flags: W
HStem: 104 43<-12 58>
VStem: -100 76<-19 96> 73 42<-101 85 112 206>
DStem2: 8 304 -8 271 0.893554 -0.448956<-15.3062 77.3006 145.938 239.867> 24 -61 76 -157 0.76361 -0.645678<-69.4914 61.0541>
LayerCount: 2
Fore
SplineSet
73 41 m 258,0,1
 72 67 72 67 58 85 c 256,2,3
 43 103 43 103 20 104 c 256,4,5
 0 104 0 104 -12 84 c 256,6,7
 -24 64 -24 64 -23 37 c 256,8,9
 -23 10 -23 10 -8 -18 c 256,10,11
 8 -45 8 -45 24 -61 c 256,12,13
 41 -77 41 -77 70 -102 c 257,14,15
 74 -73 74 -73 74 -36 c 258,16,-1
 73 41 l 258,0,1
123 247 m 257,17,-1
 208 204 l 258,18,19
 219 199 219 199 219 187 c 256,20,21
 219 177 219 177 210 171 c 256,22,23
 201 166 201 166 192 171 c 258,24,-1
 122 206 l 257,25,-1
 115 -138 l 258,26,27
 115 -149 115 -149 108 -156 c 256,28,29
 101 -163 101 -163 92 -163 c 256,30,31
 83 -163 83 -163 76 -157 c 256,32,33
 69 -151 69 -151 60 -140 c 256,34,35
 52 -129 52 -129 47 -125 c 256,36,37
 32 -113 32 -113 -0 -89 c 256,38,39
 -33 -65 -33 -65 -51 -50 c 256,40,41
 -69 -35 -69 -35 -84 -10 c 256,42,43
 -100 15 -100 15 -100 44 c 256,44,45
 -100 85 -100 85 -74 116 c 256,46,47
 -49 147 -49 147 -11 146 c 256,48,49
 40 146 40 146 80 112 c 257,50,-1
 78 228 l 257,51,-1
 -8 271 l 258,52,53
 -18 277 -18 277 -18 287 c 256,54,55
 -18 296 -18 296 -10 302 c 256,56,57
 -2 308 -2 308 8 304 c 258,58,-1
 77 270 l 257,59,-1
 73 457 l 257,60,61
 86 465 86 465 100 465 c 256,62,63
 114 465 114 465 127 457 c 257,64,-1
 123 247 l 257,17,-1
EndSplineSet
EndChar

StartChar: accidentals.flatflat
Encoding: 306 57626 50
Width: 361
Flags: W
HStem: 104 43<32 104 204 289>
VStem: -27 55<148 465> -15 31<-103 92 112 190> 92 99<-32 85> 135 55<153 465> 145 44<-101 -32 125 263> 279 83<-18 91>
LayerCount: 2
Fore
SplineSet
190 41 m 258,0,-1
 188 -36 l 258,1,2
 188 -73 188 -73 192 -102 c 257,3,4
 279 -29 279 -29 279 37 c 256,5,6
 279 65 279 65 269 84 c 256,7,8
 259 103 259 103 239 104 c 256,9,10
 217 104 217 104 204 85 c 256,11,12
 191 67 191 67 190 41 c 258,0,-1
147 -138 m 258,13,-1
 145 -32 l 257,14,15
 129 -52 129 -52 90 -86 c 256,16,17
 51 -120 51 -120 47 -125 c 256,18,19
 43 -129 43 -129 37 -140 c 256,20,21
 31 -151 31 -151 23 -157 c 256,22,23
 16 -163 16 -163 8 -163 c 256,24,25
 -2 -163 -2 -163 -8 -156 c 256,26,27
 -14 -149 -14 -149 -15 -138 c 258,28,-1
 -27 457 l 257,29,30
 -14 465 -14 465 0 465 c 256,31,32
 14 465 14 465 27 457 c 257,33,-1
 20 112 l 257,34,35
 48 146 48 146 90 146 c 256,36,37
 119 146 119 146 142 125 c 257,38,-1
 135 457 l 257,39,40
 148 465 148 465 162 465 c 256,41,42
 176 465 176 465 189 457 c 257,43,-1
 183 112 l 257,44,45
 222 146 222 146 270 146 c 256,46,47
 309 146 309 146 335 116 c 256,48,49
 362 86 362 86 362 45 c 256,50,51
 362 17 362 17 346 -9 c 256,52,53
 330 -35 330 -35 312 -50 c 256,54,55
 294 -65 294 -65 262 -89 c 256,56,57
 229 -113 229 -113 215 -125 c 256,58,59
 210 -129 210 -129 203 -140 c 256,60,61
 196 -151 196 -151 188 -157 c 256,62,63
 180 -163 180 -163 171 -163 c 256,64,65
 161 -163 161 -163 154 -155 c 256,66,67
 147 -148 147 -148 147 -138 c 258,13,-1
17 -36 m 258,68,69
 17 -73 17 -73 21 -104 c 257,70,71
 91 -36 91 -36 92 37 c 256,72,73
 92 103 92 103 59 104 c 257,74,75
 21 104 21 104 19 41 c 258,76,-1
 17 -36 l 258,68,69
EndSplineSet
EndChar

StartChar: accidentals.flatflat.slash
Encoding: 307 57627 51
Width: 361
Flags: W
HStem: 104 43<32 104 204 289>
VStem: -21 44<134 166 249 465> -15 31<-103 92 112 166> 92 99<-31 85> 145 44<-38 -32 125 258 343 417> 279 83<-18 91>
DStem2: -22 223 -21 166 0.867977 0.496604<-140.278 -27.2803 52.9328 158.166 241.044 337.785>
LayerCount: 2
Fore
SplineSet
190 41 m 258,0,-1
 188 -36 l 258,1,2
 188 -73 188 -73 192 -102 c 257,3,4
 279 -29 279 -29 279 37 c 256,5,6
 279 65 279 65 269 84 c 256,7,8
 259 103 259 103 239 104 c 256,9,10
 217 104 217 104 204 85 c 256,11,12
 191 67 191 67 190 41 c 258,0,-1
-121 112 m 256,13,14
 -131 112 -131 112 -139 120 c 256,15,16
 -147 127 -147 127 -146 137 c 256,17,18
 -146 151 -146 151 -133 159 c 258,19,-1
 -22 223 l 257,20,-1
 -27 457 l 257,21,22
 -14 465 -14 465 0 465 c 256,23,24
 14 465 14 465 27 457 c 257,25,-1
 23 249 l 257,26,-1
 138 315 l 257,27,-1
 135 457 l 257,28,29
 148 465 148 465 162 465 c 256,30,31
 176 465 176 465 189 457 c 257,32,-1
 187 343 l 257,33,-1
 259 384 l 258,34,35
 267 388 267 388 272 388 c 256,36,37
 282 388 282 388 290 380 c 256,38,39
 297 373 297 373 297 363 c 256,40,41
 297 349 297 349 284 341 c 257,42,-1
 186 284 l 257,43,-1
 183 112 l 257,44,45
 222 146 222 146 270 146 c 256,46,47
 309 146 309 146 335 116 c 256,48,49
 362 86 362 86 362 45 c 256,50,51
 362 17 362 17 346 -9 c 256,52,53
 330 -35 330 -35 312 -50 c 256,54,55
 294 -65 294 -65 262 -89 c 256,56,57
 229 -113 229 -113 215 -125 c 256,58,59
 210 -129 210 -129 203 -140 c 256,60,61
 196 -151 196 -151 188 -157 c 256,62,63
 180 -163 180 -163 171 -163 c 256,64,65
 161 -163 161 -163 154 -156 c 256,66,67
 147 -149 147 -149 147 -138 c 258,68,-1
 145 -32 l 257,69,70
 129 -52 129 -52 90 -86 c 256,71,72
 51 -120 51 -120 47 -125 c 256,73,74
 43 -129 43 -129 37 -140 c 256,75,76
 31 -151 31 -151 23 -157 c 256,77,78
 16 -163 16 -163 8 -163 c 256,79,80
 -2 -163 -2 -163 -8 -156 c 256,81,82
 -14 -149 -14 -149 -15 -138 c 258,83,-1
 -21 166 l 257,84,-1
 -108 116 l 258,85,86
 -116 112 -116 112 -121 112 c 256,13,14
140 258 m 257,87,-1
 22 190 l 257,88,-1
 20 112 l 257,89,90
 48 146 48 146 90 146 c 256,91,92
 119 146 119 146 142 125 c 257,93,-1
 140 258 l 257,87,-1
17 -36 m 258,94,95
 17 -73 17 -73 21 -104 c 257,96,97
 91 -35 91 -35 92 37 c 256,98,99
 92 103 92 103 59 104 c 257,100,101
 21 104 21 104 19 41 c 258,102,-1
 17 -36 l 258,94,95
EndSplineSet
EndChar

StartChar: accidentals.doublesharp
Encoding: 308 57628 52
Width: 250
Flags: W
HStem: -135 106<-2 70 181 252> -27 55<98 152> 28 106<-2 70 181 252>
VStem: -10 106<-126 -56 56 126> -1 98<-107 -35 35 107> 98 55<-27 27> 153 106<-127 -56 56 127> 153 98<-107 -35 35 107>
CounterMasks: 1 e0
LayerCount: 2
Fore
SplineSet
152 0 m 257,0,1
 180 -28 180 -28 241 -28 c 256,2,3
 251 -28 251 -28 251 -38 c 258,4,-1
 260 -125 l 258,5,6
 261 -129 261 -129 258 -132 c 256,7,8
 255 -135 255 -135 251 -135 c 258,9,-1
 163 -126 l 258,10,11
 153 -124 153 -124 153 -116 c 256,12,13
 153 -55 153 -55 125 -27 c 257,14,15
 97 -55 97 -55 97 -116 c 256,16,17
 97 -124 97 -124 88 -126 c 258,18,-1
 -1 -135 l 258,19,20
 -5 -135 -5 -135 -8 -132 c 256,21,22
 -11 -129 -11 -129 -10 -125 c 258,23,-1
 -1 -38 l 258,24,25
 -1 -28 -1 -28 9 -28 c 256,26,27
 70 -28 70 -28 98 0 c 257,28,29
 70 28 70 28 9 28 c 256,30,31
 -1 28 -1 28 -1 38 c 258,32,-1
 -10 125 l 258,33,34
 -11 129 -11 129 -8 132 c 256,35,36
 -5 135 -5 135 -1 135 c 258,37,-1
 88 126 l 258,38,39
 97 124 97 124 97 116 c 256,40,41
 97 55 97 55 125 27 c 257,42,43
 153 55 153 55 153 116 c 256,44,45
 153 124 153 124 163 126 c 258,46,-1
 251 135 l 258,47,48
 255 135 255 135 258 132 c 256,49,50
 261 129 261 129 260 125 c 258,51,-1
 251 38 l 258,52,53
 251 28 251 28 241 28 c 256,54,55
 180 28 180 28 152 0 c 257,0,1
EndSplineSet
EndChar

StartChar: accidentals.rightparen
Encoding: 309 57629 53
Width: 148
Flags: W
VStem: 100 51<-123 124>
LayerCount: 2
Fore
SplineSet
37 -250 m 256,0,1
 37 -249 37 -249 53 -225 c 256,2,3
 69 -201 69 -201 84 -142 c 256,4,5
 100 -84 100 -84 100 0 c 256,6,7
 100 84 100 84 84 143 c 256,8,9
 68 202 68 202 53 225 c 256,10,11
 37 249 37 249 37 250 c 256,12,13
 37 263 37 263 50 263 c 256,14,15
 59 263 59 263 83 227 c 256,16,17
 107 191 107 191 128 125 c 256,18,19
 150 60 150 60 150 0 c 256,20,21
 150 -61 150 -61 128 -125 c 256,22,23
 106 -190 106 -190 82 -227 c 256,24,25
 59 -263 59 -263 50 -263 c 256,26,27
 37 -263 37 -263 37 -250 c 256,0,1
EndSplineSet
EndChar

StartChar: accidentals.leftparen
Encoding: 310 57630 54
Width: 0
Flags: W
VStem: -150 51<-123 124>
LayerCount: 2
Fore
SplineSet
-37 -250 m 256,0,1
 -37 -263 -37 -263 -50 -263 c 256,2,3
 -59 -263 -59 -263 -82 -227 c 256,4,5
 -105 -191 -105 -191 -128 -125 c 256,6,7
 -150 -60 -150 -60 -150 0 c 256,8,9
 -150 60 -150 60 -128 125 c 256,10,11
 -106 190 -106 190 -83 227 c 256,12,13
 -59 263 -59 263 -50 263 c 256,14,15
 -37 263 -37 263 -37 250 c 256,16,17
 -37 249 -37 249 -53 225 c 256,18,19
 -69 201 -69 201 -84 143 c 256,20,21
 -100 84 -100 84 -100 0 c 256,22,23
 -100 -84 -100 -84 -84 -142 c 256,24,25
 -68 -200 -68 -200 -53 -225 c 256,26,27
 -37 -249 -37 -249 -37 -250 c 256,0,1
EndSplineSet
EndChar

StartChar: arrowheads.open.01
Encoding: 311 57631 55
Width: 250
Flags: W
HStem: -20 39<-103 20>
VStem: -250 270
LayerCount: 2
Fore
SplineSet
20 0 m 256,0,1
 20 20 20 20 0 20 c 256,2,3
 -52 20 -52 20 -96 36 c 256,4,5
 -140 53 -140 53 -165 72 c 256,6,7
 -189 92 -189 92 -206 108 c 256,8,9
 -224 125 -224 125 -230 125 c 256,10,11
 -238 125 -238 125 -244 120 c 256,12,13
 -250 115 -250 115 -250 105 c 256,14,15
 -250 90 -250 90 -208 55 c 256,16,17
 -166 19 -166 19 -112 0 c 257,18,19
 -162 -18 -162 -18 -206 -53 c 256,20,21
 -250 -89 -250 -89 -250 -105 c 256,22,23
 -250 -114 -250 -114 -244 -120 c 256,24,25
 -238 -125 -238 -125 -230 -125 c 256,26,27
 -224 -125 -224 -125 -207 -108 c 256,28,29
 -189 -91 -189 -91 -165 -72 c 256,30,31
 -141 -52 -141 -52 -96 -36 c 256,32,33
 -52 -19 -52 -19 0 -20 c 256,34,35
 20 -20 20 -20 20 0 c 256,0,1
EndSplineSet
EndChar

StartChar: arrowheads.open.0M1
Encoding: 312 57632 56
Width: 250
Flags: W
HStem: -20 39<-20 103>
VStem: -20 270
LayerCount: 2
Fore
SplineSet
-20 0 m 256,0,1
 -20 20 -20 20 0 20 c 256,2,3
 52 20 52 20 96 36 c 256,4,5
 140 53 140 53 165 72 c 256,6,7
 189 92 189 92 206 108 c 256,8,9
 224 125 224 125 230 125 c 256,10,11
 238 125 238 125 244 120 c 256,12,13
 250 115 250 115 250 105 c 256,14,15
 250 90 250 90 208 55 c 256,16,17
 166 19 166 19 112 0 c 257,18,19
 162 -18 162 -18 206 -53 c 256,20,21
 250 -89 250 -89 250 -105 c 256,22,23
 250 -114 250 -114 244 -120 c 256,24,25
 238 -125 238 -125 230 -125 c 256,26,27
 224 -125 224 -125 207 -108 c 256,28,29
 189 -91 189 -91 165 -72 c 256,30,31
 141 -52 141 -52 96 -36 c 256,32,33
 52 -19 52 -19 0 -20 c 256,34,35
 -20 -20 -20 -20 -20 0 c 256,0,1
EndSplineSet
EndChar

StartChar: arrowheads.open.11
Encoding: 313 57633 57
Width: 125
Flags: W
HStem: -250 270
VStem: -20 39<-103 20>
LayerCount: 2
Fore
SplineSet
0 20 m 256,0,1
 -20 20 -20 20 -20 0 c 256,2,3
 -20 -52 -20 -52 -36 -96 c 256,4,5
 -53 -140 -53 -140 -72 -165 c 256,6,7
 -92 -189 -92 -189 -108 -206 c 256,8,9
 -125 -224 -125 -224 -125 -230 c 256,10,11
 -125 -238 -125 -238 -120 -244 c 256,12,13
 -115 -250 -115 -250 -105 -250 c 256,14,15
 -90 -250 -90 -250 -55 -208 c 256,16,17
 -19 -166 -19 -166 0 -112 c 257,18,19
 18 -162 18 -162 53 -206 c 256,20,21
 89 -250 89 -250 105 -250 c 256,22,23
 114 -250 114 -250 120 -244 c 256,24,25
 125 -238 125 -238 125 -230 c 256,26,27
 125 -224 125 -224 108 -207 c 256,28,29
 91 -189 91 -189 72 -165 c 256,30,31
 52 -141 52 -141 36 -96 c 256,32,33
 19 -52 19 -52 20 0 c 256,34,35
 20 20 20 20 0 20 c 256,0,1
EndSplineSet
EndChar

StartChar: arrowheads.open.1M1
Encoding: 314 57634 58
Width: 125
Flags: W
HStem: -20 270
VStem: -20 39<-20 103>
LayerCount: 2
Fore
SplineSet
0 -20 m 256,0,1
 -20 -20 -20 -20 -20 0 c 256,2,3
 -20 52 -20 52 -36 96 c 256,4,5
 -53 140 -53 140 -72 165 c 256,6,7
 -92 189 -92 189 -108 206 c 256,8,9
 -125 224 -125 224 -125 230 c 256,10,11
 -125 238 -125 238 -120 244 c 256,12,13
 -115 250 -115 250 -105 250 c 256,14,15
 -90 250 -90 250 -55 208 c 256,16,17
 -19 166 -19 166 0 112 c 257,18,19
 18 162 18 162 53 206 c 256,20,21
 89 250 89 250 105 250 c 256,22,23
 114 250 114 250 120 244 c 256,24,25
 125 238 125 238 125 230 c 256,26,27
 125 224 125 224 108 207 c 256,28,29
 91 189 91 189 72 165 c 256,30,31
 52 141 52 141 36 96 c 256,32,33
 19 52 19 52 20 0 c 256,34,35
 20 -20 20 -20 0 -20 c 256,0,1
EndSplineSet
EndChar

StartChar: arrowheads.close.01
Encoding: 315 57635 59
Width: 0
Flags: W
HStem: -10 20<-54 10>
VStem: -250 260
LayerCount: 2
Fore
SplineSet
10 0 m 256,0,1
 10 -10 10 -10 0 -10 c 256,2,3
 -45 -10 -45 -10 -125 -48 c 256,4,5
 -205 -86 -205 -86 -232 -121 c 256,6,7
 -236 -125 -236 -125 -240 -125 c 256,8,9
 -250 -125 -250 -125 -250 -115 c 256,10,11
 -250 -114 -250 -114 -249 -108 c 256,12,13
 -248 -102 -248 -102 -246 -91 c 256,14,15
 -245 -80 -245 -80 -242 -66 c 256,16,17
 -240 -52 -240 -52 -239 -35 c 256,18,19
 -238 -17 -238 -17 -237 0 c 256,20,21
 -237 17 -237 17 -239 35 c 256,22,23
 -240 53 -240 53 -242 66 c 256,24,25
 -244 80 -244 80 -246 91 c 256,26,27
 -247 102 -247 102 -249 108 c 256,28,29
 -250 114 -250 114 -250 115 c 256,30,31
 -250 125 -250 125 -240 125 c 256,32,33
 -236 125 -236 125 -232 121 c 256,34,35
 -204 86 -204 86 -125 48 c 256,36,37
 -45 10 -45 10 0 10 c 256,38,39
 10 10 10 10 10 0 c 256,0,1
EndSplineSet
EndChar

StartChar: arrowheads.close.0M1
Encoding: 316 57636 60
Width: 250
Flags: W
HStem: -10 20<-10 54>
VStem: -10 260
LayerCount: 2
Fore
SplineSet
-10 0 m 256,0,1
 -10 10 -10 10 0 10 c 256,2,3
 45 10 45 10 125 48 c 256,4,5
 205 86 205 86 232 121 c 256,6,7
 236 125 236 125 240 125 c 256,8,9
 250 125 250 125 250 115 c 256,10,11
 250 114 250 114 249 108 c 256,12,13
 248 102 248 102 246 91 c 256,14,15
 245 80 245 80 242 66 c 256,16,17
 240 52 240 52 239 35 c 256,18,19
 238 17 238 17 237 0 c 256,20,21
 237 -17 237 -17 239 -35 c 256,22,23
 240 -53 240 -53 242 -66 c 256,24,25
 244 -80 244 -80 246 -91 c 256,26,27
 247 -102 247 -102 249 -108 c 256,28,29
 250 -114 250 -114 250 -115 c 256,30,31
 250 -125 250 -125 240 -125 c 256,32,33
 236 -125 236 -125 232 -121 c 256,34,35
 204 -86 204 -86 125 -48 c 256,36,37
 45 -10 45 -10 0 -10 c 256,38,39
 -10 -10 -10 -10 -10 0 c 256,0,1
EndSplineSet
EndChar

StartChar: arrowheads.close.11
Encoding: 317 57637 61
Width: 125
Flags: W
HStem: -250 260
VStem: -10 20<-54 10>
LayerCount: 2
Fore
SplineSet
0 10 m 256,0,1
 10 10 10 10 10 0 c 256,2,3
 10 -45 10 -45 48 -125 c 256,4,5
 86 -205 86 -205 121 -232 c 256,6,7
 125 -236 125 -236 125 -240 c 256,8,9
 125 -250 125 -250 115 -250 c 256,10,11
 114 -250 114 -250 108 -249 c 256,12,13
 102 -248 102 -248 91 -246 c 256,14,15
 80 -245 80 -245 66 -242 c 256,16,17
 52 -240 52 -240 35 -239 c 256,18,19
 17 -238 17 -238 0 -237 c 256,20,21
 -17 -237 -17 -237 -35 -239 c 256,22,23
 -53 -240 -53 -240 -66 -242 c 256,24,25
 -80 -244 -80 -244 -91 -246 c 256,26,27
 -102 -247 -102 -247 -108 -249 c 256,28,29
 -114 -250 -114 -250 -115 -250 c 256,30,31
 -125 -250 -125 -250 -125 -240 c 256,32,33
 -125 -236 -125 -236 -121 -232 c 256,34,35
 -86 -204 -86 -204 -48 -125 c 256,36,37
 -10 -45 -10 -45 -10 0 c 256,38,39
 -10 10 -10 10 0 10 c 256,0,1
EndSplineSet
EndChar

StartChar: arrowheads.close.1M1
Encoding: 318 57638 62
Width: 125
Flags: W
HStem: -10 260
VStem: -10 20<-10 54>
LayerCount: 2
Fore
SplineSet
0 -10 m 256,0,1
 -10 -10 -10 -10 -10 0 c 256,2,3
 -10 45 -10 45 -48 125 c 256,4,5
 -86 205 -86 205 -121 232 c 256,6,7
 -125 236 -125 236 -125 240 c 256,8,9
 -125 250 -125 250 -115 250 c 256,10,11
 -114 250 -114 250 -108 249 c 256,12,13
 -102 248 -102 248 -91 246 c 256,14,15
 -80 245 -80 245 -66 242 c 256,16,17
 -52 240 -52 240 -35 239 c 256,18,19
 -17 238 -17 238 0 237 c 256,20,21
 17 237 17 237 35 239 c 256,22,23
 53 240 53 240 66 242 c 256,24,25
 80 244 80 244 91 246 c 256,26,27
 102 247 102 247 108 249 c 256,28,29
 114 250 114 250 115 250 c 256,30,31
 125 250 125 250 125 240 c 256,32,33
 125 236 125 236 121 232 c 256,34,35
 86 204 86 204 48 125 c 256,36,37
 10 45 10 45 10 0 c 256,38,39
 10 -10 10 -10 0 -10 c 256,0,1
EndSplineSet
EndChar

StartChar: dots.dot
Encoding: 319 57639 63
Width: 343
Flags: W
HStem: -57 113<17 96>
VStem: 0 113<-40 40>
LayerCount: 2
Fore
SplineSet
0 0 m 256,0,1
 0 23 0 23 17 40 c 256,2,3
 34 57 34 57 57 57 c 256,4,5
 80 57 80 57 97 40 c 256,6,7
 114 23 114 23 113 0 c 256,8,9
 113 -23 113 -23 97 -40 c 256,10,11
 80 -57 80 -57 57 -57 c 256,12,13
 34 -57 34 -57 17 -40 c 256,14,15
 0 -23 0 -23 0 0 c 256,0,1
EndSplineSet
EndChar

StartChar: noteheads.uM2
Encoding: 320 57640 64
Width: 573
Flags: W
HStem: -138 25<265 358> 112 25<216 309>
VStem: 0 49<-138 -39 39 138> 388 186<-39 38> 524 49<-138 -39 39 888>
LayerCount: 2
Fore
SplineSet
287 138 m 256,0,1
 385 138 385 138 445 106 c 256,2,3
 506 75 506 75 524 39 c 257,4,-1
 524 862 l 258,5,6
 524 887 524 887 549 888 c 256,7,8
 573 888 573 888 573 862 c 258,9,-1
 573 -112 l 258,10,11
 573 -137 573 -137 549 -138 c 256,12,13
 525 -138 525 -138 524 -112 c 258,14,-1
 524 -39 l 257,15,16
 505 -75 505 -75 445 -106 c 256,17,18
 384 -137 384 -137 287 -138 c 256,19,20
 189 -138 189 -138 129 -106 c 256,21,22
 68 -75 68 -75 49 -39 c 257,23,-1
 49 -112 l 258,24,25
 49 -137 49 -137 24 -138 c 256,26,27
 0 -138 0 -138 0 -112 c 258,28,-1
 0 112 l 258,29,30
 0 137 0 137 24 138 c 256,31,32
 48 138 48 138 49 112 c 258,33,-1
 49 39 l 257,34,35
 69 75 69 75 129 106 c 256,36,37
 189 138 189 138 287 138 c 256,0,1
254 112 m 256,38,39
 221 111 221 111 203 88 c 256,40,41
 185 65 185 65 186 24 c 256,42,43
 186 -22 186 -22 210 -55 c 256,44,45
 234 -88 234 -88 264 -100 c 256,46,47
 293 -113 293 -113 319 -112 c 256,48,49
 353 -111 353 -111 371 -88 c 256,50,51
 389 -65 389 -65 388 -24 c 256,52,53
 388 22 388 22 363 55 c 256,54,55
 340 88 340 88 311 100 c 256,56,57
 281 112 281 112 254 112 c 256,38,39
EndSplineSet
EndChar

StartChar: noteheads.dM2
Encoding: 321 57641 65
Width: 573
Flags: W
HStem: -138 25<265 358> 112 25<216 309>
VStem: 0 49<-888 -39 39 138> 388 186<-39 38> 524 49<-138 -39 39 138>
LayerCount: 2
Fore
SplineSet
287 138 m 256,0,1
 385 138 385 138 445 106 c 256,2,3
 506 75 506 75 524 39 c 257,4,-1
 524 112 l 258,5,6
 524 137 524 137 549 138 c 256,7,8
 573 138 573 138 573 112 c 258,9,-1
 573 -113 l 258,10,11
 573 -137 573 -137 549 -138 c 256,12,13
 525 -138 525 -138 524 -113 c 258,14,-1
 524 -39 l 257,15,16
 505 -75 505 -75 445 -106 c 256,17,18
 384 -137 384 -137 287 -138 c 256,19,20
 189 -138 189 -138 129 -106 c 256,21,22
 68 -75 68 -75 49 -39 c 257,23,-1
 49 -863 l 258,24,25
 49 -887 49 -887 24 -888 c 256,26,27
 0 -888 0 -888 0 -863 c 258,28,-1
 0 112 l 258,29,30
 0 137 0 137 24 138 c 256,31,32
 48 138 48 138 49 112 c 258,33,-1
 49 39 l 257,34,35
 69 75 69 75 129 106 c 256,36,37
 189 138 189 138 287 138 c 256,0,1
254 112 m 256,38,39
 221 111 221 111 203 88 c 256,40,41
 185 65 185 65 186 24 c 256,42,43
 186 -22 186 -22 210 -55 c 256,44,45
 234 -88 234 -88 264 -100 c 256,46,47
 293 -113 293 -113 319 -112 c 256,48,49
 353 -111 353 -111 371 -88 c 256,50,51
 389 -65 389 -65 388 -24 c 256,52,53
 388 22 388 22 363 55 c 256,54,55
 340 88 340 88 311 100 c 256,56,57
 281 112 281 112 254 112 c 256,38,39
EndSplineSet
EndChar

StartChar: noteheads.sM1
Encoding: 322 57642 66
Width: 573
Flags: MW
HStem: -138 25<265 358> 112 25<216 309>
VStem: 0 49<-138 -39 39 138> 524 49<-138 -39 39 138>
LayerCount: 2
Fore
SplineSet
287 138 m 256,0,1
 385 138 385 138 445 106 c 256,2,3
 506 75 506 75 524 39 c 257,4,-1
 524 112 l 258,5,6
 524 137 524 137 549 138 c 256,7,8
 573 138 573 138 573 112 c 258,9,-1
 573 -112 l 258,10,11
 573 -137 573 -137 549 -138 c 256,12,13
 525 -138 525 -138 524 -112 c 258,14,-1
 524 -39 l 257,15,16
 505 -75 505 -75 445 -106 c 256,17,18
 384 -137 384 -137 287 -138 c 256,19,20
 189 -138 189 -138 129 -106 c 256,21,22
 68 -75 68 -75 49 -39 c 257,23,-1
 49 -112 l 258,24,25
 49 -137 49 -137 24 -138 c 256,26,27
 0 -138 0 -138 0 -112 c 258,28,-1
 0 112 l 258,29,30
 0 137 0 137 24 138 c 256,31,32
 48 138 48 138 49 112 c 258,33,-1
 49 39 l 257,34,35
 69 75 69 75 129 106 c 256,36,37
 189 138 189 138 287 138 c 256,0,1
254 112 m 256,38,39
 221 111 221 111 203 88 c 256,40,41
 185 65 185 65 186 24 c 256,42,43
 186 -22 186 -22 210 -55 c 256,44,45
 234 -88 234 -88 264 -100 c 256,46,47
 293 -113 293 -113 319 -112 c 256,48,49
 353 -111 353 -111 371 -88 c 256,50,51
 389 -65 389 -65 388 -24 c 256,52,53
 388 22 388 22 363 55 c 256,54,55
 340 88 340 88 311 100 c 256,56,57
 281 112 281 112 254 112 c 256,38,39
EndSplineSet
EndChar

StartChar: noteheads.s0
Encoding: 323 57643 67
Width: 494
Flags: W
HStem: -138 25<225 320> 112 25<176 271>
VStem: 0 146<-50 57> 349 146<-57 50>
LayerCount: 2
Fore
SplineSet
215 112 m 256,0,1
 181 112 181 112 164 88 c 256,2,3
 147 64 147 64 146 24 c 256,4,5
 146 -22 146 -22 171 -54 c 256,6,7
 195 -87 195 -87 224 -100 c 256,8,9
 253 -113 253 -113 280 -112 c 256,10,11
 314 -112 314 -112 332 -88 c 256,12,13
 349 -64 349 -64 349 -24 c 256,14,15
 349 22 349 22 324 54 c 256,16,17
 300 87 300 87 271 100 c 256,18,19
 242 112 242 112 215 112 c 256,0,1
248 138 m 256,20,21
 353 138 353 138 424 97 c 256,22,23
 495 56 495 56 495 0 c 256,24,25
 495 -59 495 -59 421 -98 c 256,26,27
 347 -138 347 -138 248 -138 c 256,28,29
 144 -138 144 -138 72 -97 c 256,30,31
 0 -56 0 -56 0 0 c 256,32,33
 0 59 0 59 74 98 c 256,34,35
 148 138 148 138 248 138 c 256,20,21
EndSplineSet
EndChar

StartChar: noteheads.s1
Encoding: 324 57644 68
Width: 346
Flags: W
HStem: -138 31<43 119> 106 31<229 305>
VStem: 0 32<-95 -32> 315 32<32 97>
LayerCount: 2
Fore
SplineSet
315 65 m 256,0,1
 315 82 315 82 303 94 c 256,2,3
 290 106 290 106 273 106 c 256,4,5
 245 106 245 106 155 48 c 256,6,7
 65 -11 65 -11 43 -37 c 256,8,9
 32 -50 32 -50 32 -65 c 256,10,11
 32 -82 32 -82 44 -94 c 256,12,13
 56 -106 56 -106 74 -106 c 256,14,15
 102 -106 102 -106 193 -48 c 256,16,17
 283 11 283 11 305 37 c 257,18,19
 315 48 315 48 315 65 c 256,0,1
264 138 m 256,20,21
 348 138 348 138 348 65 c 256,22,23
 348 30 348 30 327 -17 c 256,24,25
 306 -64 306 -64 272 -87 c 256,26,27
 196 -138 196 -138 84 -138 c 256,28,29
 0 -138 0 -138 0 -65 c 256,30,31
 0 -32 0 -32 21 16 c 256,32,33
 42 64 42 64 75 87 c 256,34,35
 152 138 152 138 264 138 c 256,20,21
EndSplineSet
EndChar

StartChar: noteheads.s2
Encoding: 325 57645 69
Width: 328
Flags: W
HStem: -138 275<126 203>
VStem: 0 329<-24 24>
LayerCount: 2
Fore
SplineSet
220 138 m 256,0,1
 269 138 269 138 299 113 c 256,2,3
 329 88 329 88 329 47 c 256,4,5
 329 -20 329 -20 259 -79 c 256,6,7
 189 -138 189 -138 109 -138 c 256,8,9
 60 -138 60 -138 30 -113 c 256,10,11
 0 -88 0 -88 0 -47 c 256,12,13
 0 20 0 20 70 79 c 256,14,15
 140 138 140 138 220 138 c 256,0,1
EndSplineSet
EndChar

StartChar: noteheads.s0diamond
Encoding: 326 57646 70
Width: 494
Flags: W
HStem: -138 62<212 305> -53 106<21 134 360 474> 75 62<191 283>
VStem: 0 184<-37 36> 311 185<-36 37>
LayerCount: 2
Fore
SplineSet
210 75 m 256,0,1
 196 75 196 75 190 62 c 256,2,3
 184 48 184 48 184 1 c 256,4,5
 184 -32 184 -32 196 -43 c 256,6,7
 209 -54 209 -54 245 -66 c 256,8,9
 274 -75 274 -75 285 -75 c 256,10,11
 299 -75 299 -75 305 -62 c 256,12,13
 311 -48 311 -48 311 -1 c 256,14,15
 311 32 311 32 298 43 c 256,16,17
 286 54 286 54 250 66 c 256,18,19
 221 75 221 75 210 75 c 256,0,1
495 0 m 256,20,21
 495 -26 495 -26 475 -37 c 256,22,23
 455 -47 455 -47 420 -53 c 256,24,25
 385 -59 385 -59 370 -68 c 257,26,27
 355 -76 355 -76 333 -95 c 256,28,29
 310 -114 310 -114 290 -126 c 256,30,31
 270 -138 270 -138 248 -138 c 256,32,33
 226 -138 226 -138 205 -126 c 256,34,35
 184 -114 184 -114 162 -95 c 256,36,37
 139 -76 139 -76 125 -68 c 256,38,39
 109 -59 109 -59 75 -53 c 256,40,41
 40 -47 40 -47 20 -37 c 256,42,43
 0 -27 0 -27 0 0 c 256,44,45
 0 26 0 26 20 37 c 256,46,47
 40 47 40 47 75 53 c 256,48,49
 110 59 110 59 125 68 c 256,50,51
 129 70 129 70 174 104 c 256,52,53
 219 138 219 138 248 138 c 256,54,55
 270 138 270 138 290 126 c 256,56,57
 310 114 310 114 333 95 c 256,58,59
 356 76 356 76 370 68 c 256,60,61
 386 59 386 59 420 53 c 256,62,63
 455 47 455 47 475 37 c 256,64,65
 495 26 495 26 495 0 c 256,20,21
EndSplineSet
EndChar

StartChar: noteheads.s1diamond
Encoding: 327 57647 71
Width: 363
Flags: W
HStem: -105 24<106 138> 81 24<226 257>
VStem: 0 72<-104 -48> 292 72<48 115>
LayerCount: 2
Fore
SplineSet
292 55 m 256,0,1
 292 81 292 81 263 81 c 256,2,3
 239 81 239 81 169 36 c 256,4,5
 100 -9 100 -9 81 -31 c 256,6,7
 72 -42 72 -42 72 -55 c 256,8,9
 72 -81 72 -81 101 -81 c 256,10,11
 125 -81 125 -81 194 -36 c 256,12,13
 263 9 263 9 283 31 c 256,14,15
 292 42 292 42 292 55 c 256,0,1
323 138 m 256,16,17
 341 138 341 138 353 125 c 256,18,19
 365 112 365 112 364 97 c 256,20,21
 364 81 364 81 345 52 c 256,22,23
 326 23 326 23 322 11 c 256,24,25
 318 -1 318 -1 316 -27 c 256,26,27
 314 -53 314 -53 311 -68 c 256,28,29
 308 -84 308 -84 290 -98 c 256,30,31
 272 -112 272 -112 239 -111 c 256,32,33
 227 -111 227 -111 201 -108 c 256,34,35
 174 -105 174 -105 161 -105 c 256,36,37
 136 -105 136 -105 97 -121 c 256,38,39
 58 -137 58 -137 41 -137 c 256,40,41
 23 -137 23 -137 12 -125 c 256,42,43
 0 -113 0 -113 0 -97 c 256,44,45
 0 -81 0 -81 19 -52 c 256,46,47
 38 -23 38 -23 42 -11 c 256,48,49
 46 1 46 1 48 27 c 256,50,51
 50 53 50 53 53 68 c 256,52,53
 56 84 56 84 74 98 c 256,54,55
 92 112 92 112 125 111 c 256,56,57
 137 111 137 111 164 108 c 256,58,59
 191 105 191 105 203 105 c 256,60,61
 228 105 228 105 268 122 c 256,62,63
 306 138 306 138 323 138 c 256,16,17
EndSplineSet
EndChar

StartChar: noteheads.s2diamond
Encoding: 328 57648 72
Width: 368
Flags: W
HStem: -125 262<102 211>
LayerCount: 2
Fore
SplineSet
331 138 m 256,0,1
 351 138 351 138 360 125 c 256,2,3
 369 112 369 112 369 99 c 256,4,5
 369 78 369 78 331 44 c 256,6,7
 292 11 292 11 283 -3 c 256,8,9
 277 -13 277 -13 260 -53 c 256,10,11
 243 -94 243 -94 225 -115 c 256,12,13
 206 -136 206 -136 180 -137 c 256,14,15
 169 -137 169 -137 145 -131 c 256,16,17
 121 -125 121 -125 107 -125 c 256,18,19
 95 -125 95 -125 71 -131 c 256,20,21
 47 -137 47 -137 37 -138 c 256,22,23
 17 -138 17 -138 9 -125 c 256,24,25
 0 -112 0 -112 0 -99 c 256,26,27
 0 -78 0 -78 39 -44 c 256,28,29
 78 -11 78 -11 86 3 c 256,30,31
 92 14 92 14 109 54 c 256,32,33
 126 94 126 94 144 115 c 256,34,35
 162 136 162 136 188 137 c 256,36,37
 199 137 199 137 224 131 c 256,38,39
 248 125 248 125 261 125 c 256,40,41
 273 125 273 125 297 131 c 256,42,43
 321 138 321 138 331 138 c 256,0,1
EndSplineSet
EndChar

StartChar: noteheads.s0triangle
Encoding: 329 57649 73
Width: 578
Flags: W
HStem: 17 44<491 579>
VStem: 103 73<-110 22>
LayerCount: 2
Fore
SplineSet
131 83 m 257,0,1
 176 4 176 4 176 -110 c 257,2,3
 276 -26 276 -26 396 19 c 257,4,5
 256 37 256 37 131 83 c 257,0,1
0 160 m 256,6,7
 0 172 0 172 15 177 c 256,8,9
 30 182 30 182 43 183 c 256,10,11
 46 183 46 183 71 170 c 256,12,13
 96 158 96 158 140 140 c 256,14,15
 183 122 183 122 240 104 c 256,16,17
 296 86 296 86 375 73 c 256,18,19
 455 60 455 60 538 61 c 258,20,-1
 543 61 l 258,21,22
 557 61 557 61 568 54 c 256,23,24
 579 48 579 48 579 37 c 256,25,26
 579 25 579 25 557 17 c 256,27,28
 535 8 535 8 492 -5 c 256,29,30
 450 -18 450 -18 399 -38 c 256,31,32
 348 -58 348 -58 281 -104 c 256,33,34
 214 -150 214 -150 153 -214 c 256,35,36
 148 -219 148 -219 138 -219 c 256,37,38
 93 -219 93 -219 93 -196 c 257,39,-1
 94 -191 l 258,40,41
 95 -186 95 -186 96 -178 c 256,42,43
 97 -169 97 -169 99 -159 c 256,44,45
 100 -149 100 -149 102 -134 c 256,46,47
 103 -120 103 -120 103 -107 c 256,48,49
 103 31 103 31 16 137 c 256,50,51
 14 139 14 139 9 144 c 256,52,53
 4 149 4 149 2 152 c 256,54,55
 0 155 0 155 0 160 c 256,6,7
EndSplineSet
EndChar

StartChar: noteheads.d1triangle
Encoding: 330 57650 74
Width: 417
Flags: W
HStem: 7 50<337 417>
VStem: 74 59<-87 33>
LayerCount: 2
Fore
SplineSet
102 69 m 257,0,1
 133 -4 133 -4 133 -87 c 257,2,3
 194 -26 194 -26 278 16 c 257,4,5
 183 32 183 32 102 69 c 257,0,1
0 142 m 256,6,7
 0 152 0 152 9 158 c 256,8,9
 18 165 18 165 32 165 c 256,10,11
 37 165 37 165 66 148 c 256,12,13
 95 131 95 131 135 111 c 256,14,15
 174 91 174 91 244 74 c 256,16,17
 314 57 314 57 389 57 c 256,18,19
 401 57 401 57 409 50 c 256,20,21
 418 43 418 43 418 33 c 256,22,23
 418 19 418 19 391 7 c 256,24,25
 364 -6 364 -6 323 -20 c 256,26,27
 282 -34 282 -34 225 -78 c 256,28,29
 167 -122 167 -122 119 -188 c 256,30,31
 113 -197 113 -197 98 -197 c 256,32,33
 85 -197 85 -197 76 -190 c 256,34,35
 67 -183 67 -183 66 -173 c 256,36,37
 66 -171 66 -171 68 -161 c 256,38,39
 70 -151 70 -151 72 -133 c 256,40,41
 74 -115 74 -115 74 -94 c 256,42,43
 74 -30 74 -30 56 25 c 256,44,45
 37 79 37 79 19 108 c 256,46,47
 0 138 0 138 0 142 c 256,6,7
EndSplineSet
EndChar

StartChar: noteheads.u1triangle
Encoding: 331 57651 75
Width: 417
Flags: W
HStem: 7 50<337 417>
VStem: 74 59<-87 33>
LayerCount: 2
Fore
SplineSet
102 69 m 257,0,1
 133 -4 133 -4 133 -87 c 257,2,3
 194 -26 194 -26 278 16 c 257,4,5
 183 32 183 32 102 69 c 257,0,1
0 142 m 256,6,7
 0 152 0 152 9 158 c 256,8,9
 18 165 18 165 32 165 c 256,10,11
 37 165 37 165 66 148 c 256,12,13
 95 131 95 131 135 111 c 256,14,15
 174 91 174 91 244 74 c 256,16,17
 314 57 314 57 389 57 c 256,18,19
 401 57 401 57 409 50 c 256,20,21
 418 43 418 43 418 33 c 256,22,23
 418 19 418 19 391 7 c 256,24,25
 364 -6 364 -6 323 -20 c 256,26,27
 282 -34 282 -34 225 -78 c 256,28,29
 167 -122 167 -122 119 -188 c 256,30,31
 113 -197 113 -197 98 -197 c 256,32,33
 85 -197 85 -197 76 -190 c 256,34,35
 67 -183 67 -183 66 -173 c 256,36,37
 66 -171 66 -171 68 -161 c 256,38,39
 70 -151 70 -151 72 -133 c 256,40,41
 74 -115 74 -115 74 -94 c 256,42,43
 74 -30 74 -30 56 25 c 256,44,45
 37 79 37 79 19 108 c 256,46,47
 0 138 0 138 0 142 c 256,6,7
EndSplineSet
EndChar

StartChar: noteheads.u2triangle
Encoding: 332 57652 76
Width: 347
Flags: W
VStem: 55 293<-54 57>
LayerCount: 2
Fore
SplineSet
55 -173 m 256,0,1
 55 -171 55 -171 56 -161 c 256,2,3
 57 -151 57 -151 60 -132 c 256,4,5
 62 -114 62 -114 62 -93 c 256,6,7
 62 -31 62 -31 46 22 c 256,8,9
 31 76 31 76 16 106 c 256,10,11
 0 136 0 136 0 140 c 256,12,13
 0 150 0 150 7 157 c 256,14,15
 14 165 14 165 25 165 c 256,16,17
 30 165 30 165 55 148 c 256,18,19
 80 131 80 131 112 111 c 256,20,21
 144 91 144 91 203 74 c 256,22,23
 261 57 261 57 324 57 c 256,24,25
 334 57 334 57 341 49 c 256,26,27
 348 42 348 42 348 32 c 256,28,29
 348 17 348 17 333 10 c 256,30,31
 319 3 319 3 280 -16 c 256,32,33
 240 -35 240 -35 200 -69 c 256,34,35
 169 -95 169 -95 146 -122 c 256,36,37
 124 -148 124 -148 116 -163 c 256,38,39
 108 -178 108 -178 99 -188 c 256,40,41
 90 -198 90 -198 80 -197 c 256,42,43
 69 -197 69 -197 62 -190 c 256,44,45
 55 -183 55 -183 55 -173 c 256,0,1
EndSplineSet
EndChar

StartChar: noteheads.d2triangle
Encoding: 333 57653 77
Width: 347
Flags: W
VStem: 55 293<-54 57>
LayerCount: 2
Fore
SplineSet
55 -173 m 256,0,1
 55 -171 55 -171 56 -161 c 256,2,3
 57 -151 57 -151 60 -132 c 256,4,5
 62 -114 62 -114 62 -93 c 256,6,7
 62 -31 62 -31 46 22 c 256,8,9
 31 76 31 76 16 106 c 256,10,11
 0 136 0 136 0 140 c 256,12,13
 0 150 0 150 7 157 c 256,14,15
 14 165 14 165 25 165 c 256,16,17
 30 165 30 165 55 148 c 256,18,19
 80 131 80 131 112 111 c 256,20,21
 144 91 144 91 203 74 c 256,22,23
 261 57 261 57 324 57 c 256,24,25
 334 57 334 57 341 49 c 256,26,27
 348 42 348 42 348 32 c 256,28,29
 348 17 348 17 333 10 c 256,30,31
 319 3 319 3 280 -16 c 256,32,33
 240 -35 240 -35 200 -69 c 256,34,35
 169 -95 169 -95 146 -122 c 256,36,37
 124 -148 124 -148 116 -163 c 256,38,39
 108 -178 108 -178 99 -188 c 256,40,41
 90 -198 90 -198 80 -197 c 256,42,43
 69 -197 69 -197 62 -190 c 256,44,45
 55 -183 55 -183 55 -173 c 256,0,1
EndSplineSet
EndChar

StartChar: noteheads.s0slash
Encoding: 334 57654 78
Width: 754
Flags: W
HStem: -263 69<117 401> 193 69<352 637>
DStem2: 1 -247 117 -193 0.521517 0.853241<106.435 558.629> 401 -193 444 -258 0.520314 0.853975<0 452.705>
LayerCount: 2
Fore
SplineSet
117 -193 m 257,0,-1
 401 -193 l 257,1,-1
 637 193 l 257,2,-1
 352 193 l 257,3,-1
 117 -193 l 257,0,-1
10 -263 m 258,4,5
 0 -263 0 -263 0 -252 c 256,6,7
 0 -249 0 -249 1 -247 c 258,8,-1
 310 258 l 258,9,10
 313 263 313 263 319 263 c 258,11,-1
 744 263 l 258,12,13
 754 263 754 263 754 252 c 256,14,15
 754 251 754 251 752 247 c 258,16,-1
 444 -258 l 258,17,18
 441 -263 441 -263 435 -263 c 258,19,-1
 10 -263 l 258,4,5
EndSplineSet
EndChar

StartChar: noteheads.s1slash
Encoding: 335 57655 79
Width: 586
Flags: W
HStem: -263 69<117 234> 193 69<352 469>
DStem2: 1 -247 117 -193 0.521517 0.853241<106.435 558.629> 234 -193 276 -258 0.521517 0.853241<0 452.194>
LayerCount: 2
Fore
SplineSet
117 -193 m 257,0,-1
 234 -193 l 257,1,-1
 469 193 l 257,2,-1
 352 193 l 257,3,-1
 117 -193 l 257,0,-1
10 -263 m 258,4,5
 0 -263 0 -263 0 -252 c 256,6,7
 0 -249 0 -249 1 -247 c 258,8,-1
 310 258 l 258,9,10
 313 263 313 263 319 263 c 258,11,-1
 576 263 l 258,12,13
 586 263 586 263 586 252 c 256,14,15
 586 249 586 249 585 247 c 258,16,-1
 276 -258 l 258,17,18
 273 -263 273 -263 267 -263 c 258,19,-1
 10 -263 l 258,4,5
EndSplineSet
EndChar

StartChar: noteheads.s2slash
Encoding: 336 57656 80
Width: 428
Flags: W
DStem2: 1 -247 119 -258 0.521517 0.853241<33.8732 610.723>
LayerCount: 2
Fore
SplineSet
10 -263 m 258,0,1
 0 -263 0 -263 0 -252 c 256,2,3
 0 -249 0 -249 1 -247 c 258,4,-1
 310 258 l 258,5,6
 313 263 313 263 319 263 c 258,7,-1
 419 263 l 258,8,9
 429 263 429 263 429 252 c 256,10,11
 429 251 429 251 427 247 c 258,12,-1
 119 -258 l 258,13,14
 116 -263 116 -263 110 -263 c 258,15,-1
 10 -263 l 258,0,1
EndSplineSet
EndChar

StartChar: noteheads.s0cross
Encoding: 337 57657 81
Width: 428
Flags: W
HStem: -75 33<198 231> 42 33<198 231>
VStem: 104 43<-21 21> 283 42<-21 21>
DStem2: 7 91 42 78 0.826022 0.563638<21.8843 90.6878> 42 78 7 66 0.827688 -0.561188<0 94.765 229.108 348.053> 7 -66 42 -78 0.827688 0.561188<22.522 117.287 251.631 370.574> 42 -78 7 -91 0.826022 -0.563638<0 68.8035> 107 147 99 117 0.826879 -0.56238<9.7577 129.466 263.001 357.81> 99 -117 107 -147 0.826879 0.56238<0 119.708 253.244 348.052> 339 147 330 117 0.826022 -0.563638<9.80332 78.6068> 330 -117 339 -147 0.826022 0.563638<0 68.8035>
LayerCount: 2
Fore
SplineSet
223 44 m 258,0,1
 220 42 220 42 215 42 c 256,2,3
 210 42 210 42 207 44 c 258,4,-1
 99 117 l 257,5,-1
 42 78 l 257,6,-1
 139 12 l 258,7,8
 147 6 147 6 146 0 c 256,9,10
 146 -6 146 -6 139 -12 c 258,11,-1
 42 -78 l 257,12,-1
 99 -117 l 257,13,-1
 207 -44 l 258,14,15
 210 -42 210 -42 215 -42 c 256,16,17
 220 -42 220 -42 223 -44 c 258,18,-1
 330 -117 l 257,19,-1
 387 -78 l 257,20,-1
 291 -12 l 258,21,22
 283 -6 283 -6 283 0 c 256,23,24
 283 6 283 6 291 12 c 258,25,-1
 387 78 l 257,26,-1
 330 117 l 257,27,-1
 223 44 l 258,0,1
215 75 m 257,28,-1
 322 147 l 258,29,30
 325 150 325 150 330 150 c 256,31,32
 336 150 336 150 339 147 c 258,33,-1
 422 91 l 258,34,35
 429 86 429 86 429 78 c 256,36,37
 429 71 429 71 422 66 c 258,38,-1
 325 0 l 257,39,-1
 422 -66 l 258,40,41
 429 -71 429 -71 429 -78 c 256,42,43
 429 -86 429 -86 422 -91 c 258,44,-1
 339 -147 l 258,45,46
 336 -150 336 -150 330 -150 c 256,47,48
 325 -150 325 -150 322 -147 c 258,49,-1
 215 -75 l 257,50,-1
 107 -147 l 258,51,52
 104 -150 104 -150 99 -150 c 256,53,54
 93 -150 93 -150 90 -147 c 258,55,-1
 7 -91 l 258,56,57
 0 -86 0 -86 0 -78 c 256,58,59
 0 -71 0 -71 7 -66 c 258,60,-1
 104 0 l 257,61,-1
 7 66 l 258,62,63
 0 71 0 71 0 78 c 256,64,65
 0 86 0 86 7 91 c 258,66,-1
 90 147 l 258,67,68
 93 150 93 150 99 150 c 256,69,70
 104 150 104 150 107 147 c 258,71,-1
 215 75 l 257,28,-1
EndSplineSet
EndChar

StartChar: noteheads.s1cross
Encoding: 338 57658 82
Width: 378
Flags: W
HStem: -65 33<173 206> 32 33<173 206>
VStem: 101 40<-20 20> 238 40<-20 20>
DStem2: 6 94 40 82 0.804433 0.594043<20.5338 67.9949> 40 82 6 70 0.804918 -0.593386<0 97.4115 207.768 324.033> 6 -70 40 -82 0.804918 0.593386<20.5581 117.97 228.325 344.592> 40 -82 6 -94 0.804433 -0.594043<0 47.461> 87 141 78 110 0.804918 -0.593386<10.8894 127.155 237.512 334.923> 78 -110 87 -141 0.804918 0.593386<0 116.266 226.622 324.033> 310 141 301 110 0.804433 -0.594043<10.9135 58.3746> 301 -110 310 -141 0.804433 0.594043<0 47.461>
LayerCount: 2
Fore
SplineSet
198 35 m 258,0,1
 194 32 194 32 189 32 c 256,2,3
 184 32 184 32 181 35 c 258,4,-1
 78 110 l 257,5,-1
 40 82 l 257,6,-1
 135 12 l 258,7,8
 141 6 141 6 141 0 c 256,9,10
 141 -6 141 -6 135 -12 c 258,11,-1
 40 -82 l 257,12,-1
 78 -110 l 257,13,-1
 181 -35 l 258,14,15
 185 -32 185 -32 189 -32 c 256,16,17
 194 -32 194 -32 198 -35 c 258,18,-1
 301 -110 l 257,19,-1
 339 -82 l 257,20,-1
 244 -12 l 258,21,22
 238 -6 238 -6 238 0 c 256,23,24
 238 6 238 6 244 12 c 258,25,-1
 339 82 l 257,26,-1
 301 110 l 257,27,-1
 198 35 l 258,0,1
189 65 m 257,28,-1
 292 141 l 258,29,30
 296 144 296 144 301 144 c 256,31,32
 306 144 306 144 310 141 c 258,33,-1
 373 94 l 258,34,35
 379 90 379 90 379 82 c 256,36,37
 379 75 379 75 373 70 c 258,38,-1
 278 0 l 257,39,-1
 373 -70 l 258,40,41
 379 -74 379 -74 379 -82 c 256,42,43
 379 -89 379 -89 373 -94 c 258,44,-1
 310 -141 l 258,45,46
 306 -144 306 -144 301 -144 c 256,47,48
 296 -144 296 -144 292 -141 c 258,49,-1
 189 -65 l 257,50,-1
 87 -141 l 258,51,52
 83 -144 83 -144 78 -144 c 256,53,54
 73 -144 73 -144 69 -141 c 258,55,-1
 6 -94 l 258,56,57
 0 -90 0 -90 0 -82 c 256,58,59
 0 -75 0 -75 6 -70 c 258,60,-1
 101 0 l 257,61,-1
 6 70 l 258,62,63
 0 74 0 74 0 82 c 256,64,65
 0 89 0 89 6 94 c 258,66,-1
 69 141 l 258,67,68
 73 144 73 144 78 144 c 256,69,70
 83 144 83 144 87 141 c 258,71,-1
 189 65 l 257,28,-1
EndSplineSet
EndChar

StartChar: noteheads.s2cross
Encoding: 339 57659 83
Width: 328
Flags: W
HStem: -138 275<31 38 291 298>
VStem: 121 87<-43 43>
DStem2: 165 36 5 95 0.775039 -0.631913<-164.77 -11.2266 56.1352 209.68> 5 -95 44 -134 0.775039 0.631913<-3.61731 149.927 217.289 370.833>
LayerCount: 2
Fore
SplineSet
165 36 m 257,0,-1
 285 134 l 258,1,2
 291 138 291 138 294 138 c 256,3,4
 298 138 298 138 304 134 c 258,5,-1
 324 118 l 258,6,7
 329 113 329 113 329 106 c 256,8,9
 329 100 329 100 324 95 c 258,10,-1
 208 0 l 257,11,-1
 324 -95 l 258,12,13
 329 -100 329 -100 329 -106 c 256,14,15
 329 -113 329 -113 324 -118 c 258,16,-1
 304 -134 l 258,17,18
 298 -138 298 -138 294 -138 c 256,19,20
 291 -138 291 -138 285 -134 c 258,21,-1
 165 -36 l 257,22,-1
 44 -134 l 258,23,24
 38 -138 38 -138 35 -138 c 256,25,26
 31 -138 31 -138 25 -134 c 258,27,-1
 5 -118 l 258,28,29
 0 -113 0 -113 0 -106 c 256,30,31
 0 -100 0 -100 5 -95 c 258,32,-1
 121 0 l 257,33,-1
 5 95 l 258,34,35
 0 100 0 100 0 106 c 256,36,37
 0 113 0 113 5 118 c 258,38,-1
 25 134 l 258,39,40
 31 138 31 138 35 138 c 256,41,42
 38 138 38 138 44 134 c 258,43,-1
 165 36 l 257,0,-1
EndSplineSet
EndChar

StartChar: noteheads.s2xcircle
Encoding: 340 57660 84
Width: 390
Flags: W
HStem: -173 37<116 275> 136 37<116 275>
VStem: 0 36<-61 61> 168 55<-27 27> 355 35<-62 62>
DStem2: 99 108 71 85 0.755033 -0.655687<0 123.427 164.717 288.144> 71 -85 99 -108 0.755033 0.655687<5.27778 128.704 169.995 293.421>
LayerCount: 2
Fore
SplineSet
196 173 m 256,0,1
 276 173 276 173 333 123 c 256,2,3
 390 73 390 73 391 0 c 256,4,5
 391 -72 391 -72 333 -123 c 256,6,7
 276 -173 276 -173 196 -173 c 256,8,9
 115 -173 115 -173 58 -123 c 256,10,11
 0 -73 0 -73 0 0 c 256,12,13
 0 72 0 72 58 123 c 256,14,15
 115 173 115 173 196 173 c 256,0,1
196 24 m 257,16,-1
 292 108 l 257,17,18
 248 135 248 135 196 136 c 256,19,20
 143 136 143 136 99 108 c 257,21,-1
 196 24 l 257,16,-1
168 0 m 257,22,-1
 71 85 l 257,23,24
 36 47 36 47 36 0 c 256,25,26
 36 -47 36 -47 71 -85 c 257,27,-1
 168 0 l 257,22,-1
223 0 m 257,28,-1
 321 -85 l 257,29,30
 355 -48 355 -48 355 0 c 256,31,32
 355 48 355 48 321 85 c 257,33,-1
 223 0 l 257,28,-1
196 -24 m 257,34,-1
 99 -108 l 257,35,36
 144 -135 144 -135 196 -136 c 256,37,38
 249 -136 249 -136 292 -108 c 257,39,-1
 196 -24 l 257,34,-1
EndSplineSet
EndChar

StartChar: noteheads.s0do
Encoding: 341 57661 85
Width: 494
Flags: W
HStem: -112 43<84 411>
DStem2: 8 -74 84 -69 0.778572 0.627556<62.3696 273.451> 261 108 248 63 0.778572 -0.627556<18.3067 228.628>
LayerCount: 2
Fore
SplineSet
84 -69 m 257,0,-1
 411 -69 l 257,1,-1
 248 63 l 257,2,-1
 84 -69 l 257,0,-1
22 -112 m 258,3,4
 13 -112 13 -112 7 -106 c 256,5,6
 0 -100 0 -100 0 -91 c 256,7,8
 0 -80 0 -80 8 -74 c 258,9,-1
 234 108 l 258,10,11
 239 112 239 112 248 112 c 256,12,13
 256 112 256 112 261 108 c 258,14,-1
 487 -74 l 258,15,16
 495 -80 495 -80 495 -91 c 256,17,18
 495 -100 495 -100 489 -106 c 256,19,20
 483 -112 483 -112 473 -112 c 258,21,-1
 22 -112 l 258,3,4
EndSplineSet
EndChar

StartChar: noteheads.d1do
Encoding: 342 57662 86
Width: 346
Flags: W
HStem: -112 43<69 279>
DStem2: 5 -77 69 -69 0.640588 0.767885<47.287 210.959> 191 105 174 57 0.635707 -0.77193<26.5174 190.81>
LayerCount: 2
Fore
SplineSet
69 -69 m 257,0,-1
 279 -69 l 257,1,-1
 174 57 l 257,2,-1
 69 -69 l 257,0,-1
22 -112 m 258,3,4
 13 -112 13 -112 7 -106 c 256,5,6
 0 -100 0 -100 0 -91 c 256,7,8
 0 -84 0 -84 5 -77 c 258,9,-1
 157 105 l 258,10,11
 163 113 163 113 174 113 c 256,12,13
 185 113 185 113 191 105 c 258,14,-1
 342 -77 l 258,15,16
 347 -84 347 -84 347 -91 c 256,17,18
 347 -100 347 -100 341 -106 c 256,19,20
 335 -112 335 -112 326 -112 c 258,21,-1
 22 -112 l 258,3,4
EndSplineSet
EndChar

StartChar: noteheads.u1do
Encoding: 343 57663 87
Width: 346
Flags: W
HStem: -112 43<69 279>
DStem2: 5 -77 69 -69 0.640588 0.767885<47.287 210.959> 191 105 174 57 0.635707 -0.77193<26.5174 190.81>
LayerCount: 2
Fore
SplineSet
69 -69 m 257,0,-1
 279 -69 l 257,1,-1
 174 57 l 257,2,-1
 69 -69 l 257,0,-1
22 -112 m 258,3,4
 13 -112 13 -112 7 -106 c 256,5,6
 0 -100 0 -100 0 -91 c 256,7,8
 0 -84 0 -84 5 -77 c 258,9,-1
 157 105 l 258,10,11
 163 113 163 113 174 113 c 256,12,13
 185 113 185 113 191 105 c 258,14,-1
 342 -77 l 258,15,16
 347 -84 347 -84 347 -91 c 256,17,18
 347 -100 347 -100 341 -106 c 256,19,20
 335 -112 335 -112 326 -112 c 258,21,-1
 22 -112 l 258,3,4
EndSplineSet
EndChar

StartChar: noteheads.d2do
Encoding: 344 57664 88
Width: 328
Flags: W
HStem: -112 226<139 191>
VStem: 0 329<-106 -57>
LayerCount: 2
Fore
SplineSet
22 -112 m 258,0,1
 13 -112 13 -112 7 -106 c 256,2,3
 0 -100 0 -100 0 -91 c 256,4,5
 0 -84 0 -84 5 -77 c 258,6,-1
 147 104 l 258,7,8
 155 114 155 114 165 113 c 256,9,10
 175 113 175 113 183 104 c 258,11,-1
 324 -77 l 258,12,13
 329 -83 329 -83 329 -91 c 256,14,15
 329 -100 329 -100 323 -106 c 256,16,17
 317 -112 317 -112 307 -112 c 258,18,-1
 22 -112 l 258,0,1
EndSplineSet
EndChar

StartChar: noteheads.u2do
Encoding: 345 57665 89
Width: 328
Flags: W
HStem: -112 226<139 191>
VStem: 0 329<-106 -57>
LayerCount: 2
Fore
SplineSet
22 -112 m 258,0,1
 13 -112 13 -112 7 -106 c 256,2,3
 0 -100 0 -100 0 -91 c 256,4,5
 0 -84 0 -84 5 -77 c 258,6,-1
 147 104 l 258,7,8
 155 114 155 114 165 113 c 256,9,10
 175 113 175 113 183 104 c 258,11,-1
 324 -77 l 258,12,13
 329 -83 329 -83 329 -91 c 256,14,15
 329 -100 329 -100 323 -106 c 256,16,17
 317 -112 317 -112 307 -112 c 258,18,-1
 22 -112 l 258,0,1
EndSplineSet
EndChar

StartChar: noteheads.s0re
Encoding: 346 57666 90
Width: 494
Flags: W
HStem: -112 43<112 384> 69 43<44 451>
VStem: 0 44<-19 69> 451 44<-22 69>
LayerCount: 2
Fore
SplineSet
44 69 m 257,0,-1
 44 36 l 258,1,2
 44 -69 44 -69 248 -69 c 256,3,4
 451 -69 451 -69 451 36 c 258,5,-1
 451 69 l 257,6,-1
 44 69 l 257,0,-1
0 91 m 258,7,8
 0 100 0 100 6 106 c 256,9,10
 12 112 12 112 22 112 c 258,11,-1
 473 112 l 258,12,13
 482 112 482 112 488 106 c 256,14,15
 495 100 495 100 495 91 c 258,16,-1
 495 36 l 258,17,18
 495 -38 495 -38 422 -75 c 256,19,20
 349 -112 349 -112 248 -112 c 256,21,22
 146 -112 146 -112 73 -75 c 256,23,24
 0 -38 0 -38 0 36 c 258,25,-1
 0 91 l 258,7,8
EndSplineSet
EndChar

StartChar: noteheads.u1re
Encoding: 347 57667 91
Width: 346
Flags: W
HStem: -112 43<96 253> 69 43<44 304>
VStem: 0 44<-23 69> 304 43<-23 69>
LayerCount: 2
Fore
SplineSet
44 69 m 257,0,-1
 44 36 l 258,1,2
 44 -10 44 -10 83 -40 c 256,3,4
 122 -70 122 -70 174 -69 c 256,5,6
 227 -69 227 -69 265 -40 c 256,7,8
 304 -10 304 -10 304 36 c 258,9,-1
 304 69 l 257,10,-1
 44 69 l 257,0,-1
0 91 m 258,11,12
 0 100 0 100 6 106 c 256,13,14
 12 112 12 112 22 112 c 258,15,-1
 326 112 l 258,16,17
 335 112 335 112 341 106 c 256,18,19
 347 100 347 100 347 91 c 258,20,-1
 347 36 l 258,21,22
 347 -28 347 -28 296 -70 c 256,23,24
 245 -112 245 -112 174 -112 c 256,25,26
 103 -112 103 -112 51 -70 c 256,27,28
 0 -28 0 -28 0 36 c 258,29,-1
 0 91 l 258,11,12
EndSplineSet
EndChar

StartChar: noteheads.d1re
Encoding: 348 57668 92
Width: 346
Flags: W
HStem: -112 43<96 253> 69 43<44 304>
VStem: 0 44<-23 69> 304 43<-23 69>
LayerCount: 2
Fore
SplineSet
44 69 m 257,0,-1
 44 36 l 258,1,2
 44 -10 44 -10 83 -40 c 256,3,4
 122 -70 122 -70 174 -69 c 256,5,6
 227 -69 227 -69 265 -40 c 256,7,8
 304 -10 304 -10 304 36 c 258,9,-1
 304 69 l 257,10,-1
 44 69 l 257,0,-1
0 91 m 258,11,12
 0 100 0 100 6 106 c 256,13,14
 12 112 12 112 22 112 c 258,15,-1
 326 112 l 258,16,17
 335 112 335 112 341 106 c 256,18,19
 347 100 347 100 347 91 c 258,20,-1
 347 36 l 258,21,22
 347 -28 347 -28 296 -70 c 256,23,24
 245 -112 245 -112 174 -112 c 256,25,26
 103 -112 103 -112 51 -70 c 256,27,28
 0 -28 0 -28 0 36 c 258,29,-1
 0 91 l 258,11,12
EndSplineSet
EndChar

StartChar: noteheads.u2re
Encoding: 349 57669 93
Width: 328
Flags: W
HStem: -112 225<78 252>
VStem: 0 329<-38 106>
LayerCount: 2
Fore
SplineSet
0 91 m 258,0,1
 0 100 0 100 6 106 c 256,2,3
 12 112 12 112 22 112 c 258,4,-1
 307 112 l 258,5,6
 316 112 316 112 322 106 c 256,7,8
 329 100 329 100 329 91 c 258,9,-1
 329 36 l 258,10,11
 329 -27 329 -27 281 -70 c 256,12,13
 233 -112 233 -112 165 -112 c 256,14,15
 98 -112 98 -112 49 -70 c 256,16,17
 0 -28 0 -28 0 36 c 258,18,-1
 0 91 l 258,0,1
EndSplineSet
EndChar

StartChar: noteheads.d2re
Encoding: 350 57670 94
Width: 328
Flags: W
HStem: -112 225<78 252>
VStem: 0 329<-38 106>
LayerCount: 2
Fore
SplineSet
0 91 m 258,0,1
 0 100 0 100 6 106 c 256,2,3
 12 112 12 112 22 112 c 258,4,-1
 307 112 l 258,5,6
 316 112 316 112 322 106 c 256,7,8
 329 100 329 100 329 91 c 258,9,-1
 329 36 l 258,10,11
 329 -27 329 -27 281 -70 c 256,12,13
 233 -112 233 -112 165 -112 c 256,14,15
 98 -112 98 -112 49 -70 c 256,16,17
 0 -28 0 -28 0 36 c 258,18,-1
 0 91 l 258,0,1
EndSplineSet
EndChar

StartChar: noteheads.s0mi
Encoding: 351 57671 95
Width: 494
Flags: W
HStem: -112 225<242 253>
DStem2: 14 20 95 6 0.926248 0.376915<69.9236 218.98> 95 6 14 -20 0.926248 -0.376915<0 179.706> 481 20 233 61 0.926248 -0.376915<-245.212 -65.5066> 262 -61 256 -111 0.926248 0.376915<0 149.057>
LayerCount: 2
Fore
SplineSet
95 6 m 257,0,-1
 262 -61 l 257,1,-1
 400 -6 l 257,2,-1
 233 61 l 257,3,-1
 95 6 l 257,0,-1
14 -20 m 258,4,5
 0 -15 0 -15 0 0 c 256,6,7
 0 15 0 15 14 20 c 258,8,-1
 239 111 l 258,9,10
 242 112 242 112 248 112 c 256,11,12
 253 112 253 112 256 111 c 258,13,-1
 481 20 l 258,14,15
 495 15 495 15 495 0 c 256,16,17
 495 -15 495 -15 481 -20 c 258,18,-1
 256 -111 l 258,19,20
 253 -112 253 -112 248 -112 c 256,21,22
 242 -112 242 -112 239 -111 c 258,23,-1
 14 -20 l 258,4,5
EndSplineSet
EndChar

StartChar: noteheads.s1mi
Encoding: 352 57672 96
Width: 328
Flags: W
HStem: -112 225<159 170>
VStem: 0 329<-11 11>
DStem2: 10 18 73 6 0.84248 0.538728<47.1645 143.335> 73 6 10 -18 0.84248 -0.538728<0 119.761> 176 109 154 58 0.84248 -0.538728<9.7833 129.544> 175 -58 176 -109 0.84248 0.538728<0 96.1703>
LayerCount: 2
Fore
SplineSet
73 6 m 257,0,-1
 175 -58 l 257,1,-1
 256 -6 l 257,2,-1
 154 58 l 257,3,-1
 73 6 l 257,0,-1
10 -18 m 258,4,5
 0 -11 0 -11 0 0 c 256,6,7
 0 11 0 11 10 18 c 258,8,-1
 153 109 l 258,9,10
 159 112 159 112 165 112 c 256,11,12
 170 112 170 112 176 109 c 258,13,-1
 319 18 l 258,14,15
 329 11 329 11 329 0 c 256,16,17
 329 -11 329 -11 319 -18 c 258,18,-1
 176 -109 l 258,19,20
 170 -112 170 -112 165 -112 c 256,21,22
 159 -112 159 -112 153 -109 c 258,23,-1
 10 -18 l 258,4,5
EndSplineSet
EndChar

StartChar: noteheads.s2mi
Encoding: 353 57673 97
Width: 328
Flags: W
HStem: -112 225<124 205>
VStem: 0 329<-25 25>
LayerCount: 2
Fore
SplineSet
10 -18 m 258,0,1
 0 -11 0 -11 0 0 c 256,2,3
 0 11 0 11 10 18 c 258,4,-1
 153 109 l 258,5,6
 159 112 159 112 165 112 c 256,7,8
 170 112 170 112 176 109 c 258,9,-1
 319 18 l 258,10,11
 329 11 329 11 329 0 c 256,12,13
 329 -11 329 -11 319 -18 c 258,14,-1
 176 -109 l 258,15,16
 170 -112 170 -112 165 -112 c 256,17,18
 159 -112 159 -112 153 -109 c 258,19,-1
 10 -18 l 258,0,1
EndSplineSet
EndChar

StartChar: noteheads.u0fa
Encoding: 354 57674 98
Width: 494
Flags: W
HStem: 69 43<7 14 135 451>
VStem: 451 44<-58 69>
DStem2: 135 69 14 70 0.927644 -0.373467<0 340.925>
LayerCount: 2
Fore
SplineSet
135 69 m 257,0,-1
 451 -58 l 257,1,-1
 451 69 l 257,2,-1
 135 69 l 257,0,-1
0 91 m 256,3,4
 0 100 0 100 6 106 c 256,5,6
 12 112 12 112 22 112 c 258,7,-1
 473 112 l 258,8,9
 482 112 482 112 488 106 c 256,10,11
 495 100 495 100 495 91 c 258,12,-1
 495 -91 l 258,13,14
 495 -100 495 -100 489 -106 c 256,15,16
 483 -112 483 -112 473 -112 c 256,17,18
 468 -112 468 -112 465 -111 c 258,19,-1
 14 70 l 258,20,21
 0 75 0 75 0 91 c 256,3,4
EndSplineSet
EndChar

StartChar: noteheads.d0fa
Encoding: 355 57675 99
Width: 494
Flags: W
HStem: -112 43<44 360 481 489>
VStem: 0 44<-69 58>
DStem2: 30 111 44 58 0.927644 -0.373467<32.7419 373.667>
LayerCount: 2
Fore
SplineSet
360 -69 m 257,0,-1
 44 58 l 257,1,-1
 44 -69 l 257,2,-1
 360 -69 l 257,0,-1
495 -91 m 256,3,4
 495 -100 495 -100 489 -106 c 256,5,6
 483 -112 483 -112 473 -112 c 258,7,-1
 22 -112 l 258,8,9
 13 -112 13 -112 7 -106 c 256,10,11
 0 -100 0 -100 0 -91 c 258,12,-1
 0 91 l 258,13,14
 0 100 0 100 6 106 c 256,15,16
 12 112 12 112 22 112 c 256,17,18
 27 112 27 112 30 111 c 258,19,-1
 481 -70 l 258,20,21
 495 -75 495 -75 495 -91 c 256,3,4
EndSplineSet
EndChar

StartChar: noteheads.u1fa
Encoding: 356 57676 100
Width: 346
Flags: W
HStem: 69 43<101 304>
VStem: 304 43<-52 69>
DStem2: 101 69 11 72 0.858223 -0.513278<0 236.482>
LayerCount: 2
Fore
SplineSet
101 69 m 257,0,-1
 304 -52 l 257,1,-1
 304 69 l 257,2,-1
 101 69 l 257,0,-1
0 91 m 256,3,4
 0 100 0 100 6 106 c 256,5,6
 12 112 12 112 22 112 c 258,7,-1
 326 112 l 258,8,9
 335 112 335 112 341 106 c 256,10,11
 347 100 347 100 347 91 c 258,12,-1
 347 -91 l 258,13,14
 347 -100 347 -100 341 -106 c 256,15,16
 335 -112 335 -112 326 -112 c 256,17,18
 318 -112 318 -112 314 -109 c 258,19,-1
 11 72 l 258,20,21
 0 78 0 78 0 91 c 256,3,4
EndSplineSet
EndChar

StartChar: noteheads.d1fa
Encoding: 357 57677 101
Width: 346
Flags: W
HStem: -112 43<44 246>
VStem: 0 44<-69 52>
DStem2: 39 105 44 52 0.858753 -0.512389<31.714 267.356>
LayerCount: 2
Fore
SplineSet
246 -69 m 257,0,-1
 44 52 l 257,1,-1
 44 -69 l 257,2,-1
 246 -69 l 257,0,-1
347 -89 m 256,3,4
 347 -100 347 -100 341 -106 c 256,5,6
 335 -112 335 -112 326 -112 c 258,7,-1
 22 -112 l 258,8,9
 13 -112 13 -112 7 -106 c 256,10,11
 0 -100 0 -100 0 -91 c 258,12,-1
 0 91 l 258,13,14
 0 100 0 100 6 106 c 256,15,16
 12 112 12 112 22 112 c 256,17,18
 27 112 27 112 39 105 c 258,19,-1
 332 -69 l 258,20,21
 347 -78 347 -78 347 -89 c 256,3,4
EndSplineSet
EndChar

StartChar: noteheads.u2fa
Encoding: 358 57678 102
Width: 328
Flags: W
HStem: -112 225<268 323>
VStem: 0 329<67 106>
LayerCount: 2
Fore
SplineSet
0 91 m 256,0,1
 0 100 0 100 6 106 c 256,2,3
 12 112 12 112 22 112 c 258,4,-1
 307 112 l 258,5,6
 316 112 316 112 322 106 c 256,7,8
 329 100 329 100 329 91 c 258,9,-1
 329 -91 l 258,10,11
 329 -100 329 -100 323 -106 c 256,12,13
 317 -112 317 -112 307 -112 c 256,14,15
 301 -112 301 -112 295 -109 c 258,16,-1
 10 72 l 258,17,18
 0 79 0 79 0 91 c 256,0,1
EndSplineSet
EndChar

StartChar: noteheads.d2fa
Encoding: 359 57679 103
Width: 328
Flags: W
HStem: -112 225<7 61>
VStem: 0 329<-106 -67>
LayerCount: 2
Fore
SplineSet
329 -91 m 256,0,1
 329 -100 329 -100 323 -106 c 256,2,3
 317 -112 317 -112 307 -112 c 258,4,-1
 22 -112 l 258,5,6
 13 -112 13 -112 7 -106 c 256,7,8
 0 -100 0 -100 0 -91 c 258,9,-1
 0 91 l 258,10,11
 0 100 0 100 6 106 c 256,12,13
 12 112 12 112 22 112 c 256,14,15
 28 112 28 112 34 109 c 258,16,-1
 319 -72 l 258,17,18
 329 -79 329 -79 329 -91 c 256,0,1
EndSplineSet
EndChar

StartChar: noteheads.s0la
Encoding: 360 57680 104
Width: 494
Flags: W
HStem: -112 43<44 451> 69 43<44 451>
VStem: 0 44<-69 69> 451 44<-69 69>
LayerCount: 2
Fore
SplineSet
44 69 m 257,0,-1
 44 -69 l 257,1,-1
 451 -69 l 257,2,-1
 451 69 l 257,3,-1
 44 69 l 257,0,-1
22 112 m 258,4,-1
 473 112 l 258,5,6
 482 112 482 112 488 106 c 256,7,8
 495 100 495 100 495 91 c 258,9,-1
 495 -91 l 258,10,11
 495 -100 495 -100 489 -106 c 256,12,13
 483 -112 483 -112 473 -112 c 258,14,-1
 22 -112 l 258,15,16
 13 -112 13 -112 7 -106 c 256,17,18
 0 -100 0 -100 0 -91 c 258,19,-1
 0 91 l 258,20,21
 0 100 0 100 7 106 c 256,22,23
 13 112 13 112 22 112 c 258,4,-1
EndSplineSet
EndChar

StartChar: noteheads.s1la
Encoding: 361 57681 105
Width: 346
Flags: W
HStem: -112 43<44 304> 69 43<44 304>
VStem: 0 44<-69 69> 304 43<-69 69>
LayerCount: 2
Fore
SplineSet
44 69 m 257,0,-1
 44 -69 l 257,1,-1
 304 -69 l 257,2,-1
 304 69 l 257,3,-1
 44 69 l 257,0,-1
22 112 m 258,4,-1
 326 112 l 258,5,6
 335 112 335 112 341 106 c 256,7,8
 347 100 347 100 347 91 c 258,9,-1
 347 -91 l 258,10,11
 347 -100 347 -100 341 -106 c 256,12,13
 335 -112 335 -112 326 -112 c 258,14,-1
 22 -112 l 258,15,16
 13 -112 13 -112 7 -106 c 256,17,18
 0 -100 0 -100 0 -91 c 258,19,-1
 0 91 l 258,20,21
 0 100 0 100 7 106 c 256,22,23
 13 112 13 112 22 112 c 258,4,-1
EndSplineSet
EndChar

StartChar: noteheads.s2la
Encoding: 362 57682 106
Width: 328
Flags: W
HStem: -112 225<0 323>
VStem: 0 329<-106 112>
LayerCount: 2
Fore
SplineSet
22 112 m 258,0,-1
 307 112 l 258,1,2
 316 112 316 112 322 106 c 256,3,4
 329 100 329 100 329 91 c 258,5,-1
 329 -91 l 258,6,7
 329 -100 329 -100 323 -106 c 256,8,9
 317 -112 317 -112 307 -112 c 258,10,-1
 22 -112 l 258,11,12
 13 -112 13 -112 7 -106 c 256,13,14
 0 -100 0 -100 0 -91 c 258,15,-1
 0 91 l 258,16,17
 0 100 0 100 7 106 c 256,18,19
 13 112 13 112 22 112 c 258,0,-1
EndSplineSet
EndChar

StartChar: noteheads.s0ti
Encoding: 363 57683 107
Width: 494
Flags: W
HStem: 69 44<120 376>
DStem2: 68 26 12 6 0.889777 -0.456395<0 202.224> 248 -66 258 -110 0.888974 0.457957<0 201.356>
LayerCount: 2
Fore
SplineSet
248 -66 m 257,0,-1
 427 26 l 257,1,2
 341 69 341 69 248 69 c 256,3,4
 154 69 154 69 68 26 c 257,5,-1
 248 -66 l 257,0,-1
0 25 m 256,6,7
 0 49 0 49 82 82 c 256,8,9
 164 114 164 114 248 113 c 256,10,11
 373 113 373 113 483 45 c 256,12,13
 495 37 495 37 495 25 c 256,14,15
 495 11 495 11 483 6 c 258,16,-1
 258 -110 l 258,17,18
 255 -112 255 -112 248 -112 c 256,19,20
 241 -112 241 -112 238 -110 c 258,21,-1
 12 6 l 258,22,23
 0 11 0 11 0 25 c 256,6,7
EndSplineSet
EndChar

StartChar: noteheads.u1ti
Encoding: 364 57684 108
Width: 346
Flags: W
HStem: -112 49<149 198> 69 43<87 261>
DStem2: 56 27 9 8 0.793194 -0.608969<0 149.034> 174 -63 187 -108 0.795081 0.606504<0 149.033>
LayerCount: 2
Fore
SplineSet
174 -63 m 257,0,-1
 292 27 l 257,1,2
 241 69 241 69 174 69 c 256,3,4
 107 69 107 69 56 27 c 257,5,-1
 174 -63 l 257,0,-1
174 112 m 256,6,7
 220 112 220 112 262 94 c 256,8,9
 304 76 304 76 326 56 c 256,10,11
 347 35 347 35 348 24 c 256,12,13
 348 15 348 15 339 8 c 258,14,-1
 187 -108 l 258,15,16
 182 -112 182 -112 174 -112 c 256,17,18
 165 -112 165 -112 160 -108 c 258,19,-1
 9 8 l 258,20,21
 0 15 0 15 0 24 c 256,22,23
 0 36 0 36 21 56 c 256,24,25
 42 76 42 76 85 94 c 256,26,27
 128 112 128 112 174 112 c 256,6,7
EndSplineSet
EndChar

StartChar: noteheads.d1ti
Encoding: 365 57685 109
Width: 346
Flags: W
HStem: -112 49<149 198> 69 43<87 261>
DStem2: 56 27 9 8 0.793194 -0.608969<0 149.034> 174 -63 187 -108 0.795081 0.606504<0 149.033>
LayerCount: 2
Fore
SplineSet
174 -63 m 257,0,-1
 292 27 l 257,1,2
 241 69 241 69 174 69 c 256,3,4
 107 69 107 69 56 27 c 257,5,-1
 174 -63 l 257,0,-1
174 112 m 256,6,7
 220 112 220 112 262 94 c 256,8,9
 304 76 304 76 326 56 c 256,10,11
 347 35 347 35 348 24 c 256,12,13
 348 15 348 15 339 8 c 258,14,-1
 187 -108 l 258,15,16
 182 -112 182 -112 174 -112 c 256,17,18
 165 -112 165 -112 160 -108 c 258,19,-1
 9 8 l 258,20,21
 0 15 0 15 0 24 c 256,22,23
 0 36 0 36 21 56 c 256,24,25
 42 76 42 76 85 94 c 256,26,27
 128 112 128 112 174 112 c 256,6,7
EndSplineSet
EndChar

StartChar: noteheads.u2ti
Encoding: 366 57686 110
Width: 328
Flags: W
HStem: -112 225<131 198>
VStem: 0 329<-3 54>
LayerCount: 2
Fore
SplineSet
165 112 m 256,0,1
 200 112 200 112 232 101 c 256,2,3
 264 90 264 90 285 74 c 256,4,5
 305 58 305 58 317 45 c 256,6,7
 329 31 329 31 329 24 c 256,8,9
 329 14 329 14 321 8 c 258,10,-1
 178 -108 l 258,11,12
 173 -112 173 -112 165 -112 c 256,13,14
 156 -112 156 -112 151 -108 c 258,15,-1
 8 8 l 258,16,17
 0 14 0 14 0 24 c 256,18,19
 0 35 0 35 20 56 c 256,20,21
 40 77 40 77 81 94 c 256,22,23
 121 112 121 112 165 112 c 256,0,1
EndSplineSet
EndChar

StartChar: noteheads.d2ti
Encoding: 367 57687 111
Width: 328
Flags: W
HStem: -112 225<131 198>
VStem: 0 329<-3 54>
LayerCount: 2
Fore
SplineSet
165 112 m 256,0,1
 200 112 200 112 232 101 c 256,2,3
 264 90 264 90 285 74 c 256,4,5
 305 58 305 58 317 45 c 256,6,7
 329 31 329 31 329 24 c 256,8,9
 329 14 329 14 321 8 c 258,10,-1
 178 -108 l 258,11,12
 173 -112 173 -112 165 -112 c 256,13,14
 156 -112 156 -112 151 -108 c 258,15,-1
 8 8 l 258,16,17
 0 14 0 14 0 24 c 256,18,19
 0 35 0 35 20 56 c 256,20,21
 40 77 40 77 81 94 c 256,22,23
 121 112 121 112 165 112 c 256,0,1
EndSplineSet
EndChar

StartChar: scripts.ufermata
Encoding: 368 57688 112
Width: 330
Flags: W
HStem: -18 135<-47 47> 262 102<-107 107>
VStem: -332 38<-13 67> -67 135<3 97> 294 38<-18 67>
CounterMasks: 1 38
LayerCount: 2
Fore
SplineSet
-67 50 m 256,0,1
 -67 78 -67 78 -48 98 c 256,2,3
 -28 118 -28 118 0 117 c 256,4,5
 28 117 28 117 48 98 c 256,6,7
 68 78 68 78 67 50 c 256,8,9
 67 22 67 22 48 2 c 256,10,11
 28 -18 28 -18 0 -18 c 256,12,13
 -28 -18 -28 -18 -48 2 c 256,14,15
 -67 22 -67 22 -67 50 c 256,0,1
0 363 m 256,16,17
 61 363 61 363 114 338 c 256,18,19
 167 313 167 313 202 274 c 256,20,21
 237 235 237 235 263 191 c 256,22,23
 289 147 289 147 304 104 c 256,24,25
 319 61 319 61 325 34 c 256,26,27
 332 7 332 7 332 -3 c 256,28,29
 332 -9 332 -9 326 -13 c 256,30,31
 320 -17 320 -17 313 -18 c 256,32,33
 297 -18 297 -18 294 0 c 256,34,35
 274 112 274 112 192 187 c 256,36,37
 110 262 110 262 0 262 c 256,38,39
 -110 262 -110 262 -192 187 c 256,40,41
 -274 112 -274 112 -294 0 c 256,42,43
 -297 -18 -297 -18 -313 -18 c 256,44,45
 -320 -18 -320 -18 -326 -13 c 256,46,47
 -332 -9 -332 -9 -332 -3 c 256,48,49
 -332 7 -332 7 -325 34 c 256,50,51
 -318 61 -318 61 -304 104 c 256,52,53
 -289 147 -289 147 -263 191 c 256,54,55
 -237 235 -237 235 -202 274 c 256,56,57
 -167 313 -167 313 -114 338 c 256,58,59
 -61 363 -61 363 0 363 c 256,16,17
EndSplineSet
EndChar

StartChar: scripts.dfermata
Encoding: 369 57689 113
Width: 330
Flags: W
HStem: -363 102<-107 107> -117 135<-47 47>
VStem: -332 38<-67 13> -67 135<-97 -3> 294 38<-67 18>
CounterMasks: 1 38
LayerCount: 2
Fore
SplineSet
-67 -50 m 256,0,1
 -67 -22 -67 -22 -48 -2 c 256,2,3
 -28 18 -28 18 0 18 c 256,4,5
 28 18 28 18 48 -2 c 256,6,7
 68 -22 68 -22 67 -50 c 256,8,9
 67 -78 67 -78 48 -98 c 256,10,11
 28 -118 28 -118 0 -117 c 256,12,13
 -28 -117 -28 -117 -48 -98 c 256,14,15
 -67 -78 -67 -78 -67 -50 c 256,0,1
0 -363 m 256,16,17
 -61 -363 -61 -363 -114 -338 c 256,18,19
 -167 -313 -167 -313 -202 -274 c 256,20,21
 -237 -235 -237 -235 -263 -191 c 256,22,23
 -289 -147 -289 -147 -304 -104 c 256,24,25
 -319 -61 -319 -61 -325 -34 c 256,26,27
 -332 -7 -332 -7 -332 3 c 256,28,29
 -332 9 -332 9 -326 13 c 256,30,31
 -320 17 -320 17 -313 18 c 256,32,33
 -297 18 -297 18 -294 0 c 256,34,35
 -274 -112 -274 -112 -192 -187 c 256,36,37
 -110 -262 -110 -262 0 -262 c 256,38,39
 110 -262 110 -262 192 -187 c 256,40,41
 274 -112 274 -112 294 0 c 256,42,43
 297 18 297 18 313 18 c 256,44,45
 320 18 320 18 326 13 c 256,46,47
 332 9 332 9 332 3 c 256,48,49
 332 -7 332 -7 325 -34 c 256,50,51
 318 -61 318 -61 304 -104 c 256,52,53
 289 -147 289 -147 263 -191 c 256,54,55
 237 -235 237 -235 202 -274 c 256,56,57
 167 -313 167 -313 114 -338 c 256,58,59
 61 -363 61 -363 0 -363 c 256,16,17
EndSplineSet
EndChar

StartChar: scripts.ushortfermata
Encoding: 370 57690 114
Width: 250
Flags: W
HStem: 0 133<-71 22>
VStem: -91 133<20 113>
DStem2: -245 34 -214 11 0.412342 0.911029<-16.1074 450.032> 17 539 -25 429 0.411681 -0.911328<83.2791 563.371>
LayerCount: 2
Fore
SplineSet
-91 67 m 256,0,1
 -91 95 -91 95 -72 114 c 256,2,3
 -53 133 -53 133 -25 133 c 256,4,5
 3 133 3 133 22 114 c 256,6,7
 42 95 42 95 42 67 c 256,8,9
 42 39 42 39 22 20 c 256,10,11
 2 0 2 0 -25 0 c 256,12,13
 -53 0 -53 0 -72 20 c 256,14,15
 -91 39 -91 39 -91 67 c 256,0,1
-231 0 m 256,16,17
 -239 0 -239 0 -245 5 c 256,18,19
 -250 10 -250 10 -250 19 c 256,20,21
 -250 24 -250 24 -245 34 c 258,22,-1
 -17 539 l 258,23,24
 -12 550 -12 550 0 550 c 256,25,26
 12 550 12 550 17 539 c 258,27,-1
 245 33 l 258,28,29
 249 26 249 26 249 18 c 256,30,31
 249 9 249 9 244 4 c 256,32,33
 239 0 239 0 231 0 c 258,34,-1
 182 0 l 258,35,36
 170 0 170 0 165 11 c 258,37,-1
 -25 429 l 257,38,-1
 -214 11 l 258,39,40
 -218 0 -218 0 -231 0 c 256,16,17
EndSplineSet
EndChar

StartChar: scripts.dshortfermata
Encoding: 371 57691 115
Width: 250
Flags: W
HStem: -133 133<-22 71>
VStem: -42 133<-113 -20>
DStem2: 25 -429 -17 -539 0.411447 -0.911434<-480.086 0> 25 -429 17 -539 0.411447 0.911434<0 466.216>
LayerCount: 2
Fore
SplineSet
91 -67 m 256,0,1
 91 -95 91 -95 72 -114 c 256,2,3
 53 -133 53 -133 25 -133 c 256,4,5
 -3 -133 -3 -133 -22 -114 c 256,6,7
 -42 -95 -42 -95 -42 -67 c 256,8,9
 -42 -39 -42 -39 -22 -20 c 256,10,11
 -2 0 -2 0 25 0 c 256,12,13
 53 0 53 0 72 -20 c 256,14,15
 91 -39 91 -39 91 -67 c 256,0,1
231 0 m 256,16,17
 239 0 239 0 245 -5 c 256,18,19
 250 -10 250 -10 250 -19 c 256,20,21
 250 -20 250 -20 248 -26 c 258,22,-1
 17 -539 l 258,23,24
 12 -550 12 -550 0 -550 c 256,25,26
 -12 -550 -12 -550 -17 -539 c 258,27,-1
 -248 -26 l 258,28,29
 -250 -20 -250 -20 -250 -19 c 256,30,31
 -250 -11 -250 -11 -245 -5 c 256,32,33
 -240 0 -240 0 -231 0 c 258,34,-1
 -182 0 l 258,35,36
 -170 0 -170 0 -165 -11 c 258,37,-1
 25 -429 l 257,38,-1
 214 -11 l 258,39,40
 219 0 219 0 231 0 c 256,16,17
EndSplineSet
EndChar

StartChar: scripts.ulongfermata
Encoding: 372 57692 116
Width: 311
Flags: W
HStem: 0 135<-47 47> 275 100<-275 275>
VStem: -312 36<0 275> -67 135<20 115> 275 38<0 275>
LayerCount: 2
Fore
SplineSet
-67 67 m 256,0,1
 -67 95 -67 95 -48 115 c 256,2,3
 -28 135 -28 135 0 135 c 256,4,5
 28 135 28 135 48 115 c 256,6,7
 68 95 68 95 67 67 c 256,8,9
 67 39 67 39 48 20 c 256,10,11
 28 0 28 0 0 0 c 256,12,13
 -28 0 -28 0 -48 20 c 256,14,15
 -67 39 -67 39 -67 67 c 256,0,1
-302 375 m 258,16,-1
 303 375 l 258,17,18
 314 375 314 375 313 365 c 258,19,-1
 313 19 l 258,20,21
 313 12 313 12 308 6 c 256,22,23
 302 0 302 0 294 0 c 256,24,25
 286 0 286 0 281 6 c 256,26,27
 276 12 276 12 275 19 c 258,28,-1
 275 275 l 257,29,-1
 -275 275 l 257,30,-1
 -275 19 l 258,31,32
 -275 12 -275 12 -281 6 c 256,33,34
 -286 0 -286 0 -294 0 c 256,35,36
 -301 0 -301 0 -306 5 c 256,37,38
 -311 10 -311 10 -312 19 c 258,39,-1
 -312 365 l 258,40,41
 -312 375 -312 375 -302 375 c 258,16,-1
EndSplineSet
EndChar

StartChar: scripts.dlongfermata
Encoding: 373 57693 117
Width: 311
Flags: W
HStem: -375 100<-275 275> -135 135<-47 47>
VStem: -312 36<-275 -0> -67 135<-115 -20> 275 38<-275 -0>
LayerCount: 2
Fore
SplineSet
-67 -67 m 256,0,1
 -67 -39 -67 -39 -48 -20 c 256,2,3
 -28 0 -28 0 0 0 c 256,4,5
 28 0 28 0 48 -20 c 256,6,7
 68 -40 68 -40 67 -67 c 256,8,9
 67 -95 67 -95 48 -115 c 256,10,11
 28 -135 28 -135 0 -135 c 256,12,13
 -28 -135 -28 -135 -48 -115 c 256,14,15
 -67 -95 -67 -95 -67 -67 c 256,0,1
-302 -375 m 258,16,17
 -312 -375 -312 -375 -312 -365 c 258,18,-1
 -312 -19 l 258,19,20
 -312 -11 -312 -11 -306 -5 c 256,21,22
 -301 0 -301 0 -294 0 c 256,23,24
 -286 0 -286 0 -281 -6 c 256,25,26
 -276 -12 -276 -12 -275 -19 c 258,27,-1
 -275 -275 l 257,28,-1
 275 -275 l 257,29,-1
 275 -19 l 258,30,31
 275 -12 275 -12 281 -6 c 256,32,33
 286 0 286 0 294 0 c 256,34,35
 302 0 302 0 308 -6 c 256,36,37
 314 -12 314 -12 313 -19 c 258,38,-1
 313 -365 l 258,39,40
 313 -375 313 -375 303 -375 c 258,41,-1
 -302 -375 l 258,16,17
EndSplineSet
EndChar

StartChar: scripts.uverylongfermata
Encoding: 374 57694 118
Width: 375
Flags: W
HStem: 0 119<-41 41> 150 74<-212 212> 275 125<-337 337>
VStem: -375 38<0 275> -250 38<0 150> -60 119<18 101> 212 38<0 150> 337 38<0 275>
LayerCount: 2
Fore
SplineSet
-60 60 m 256,0,1
 -60 84 -60 84 -42 102 c 256,2,3
 -24 120 -24 120 0 119 c 256,4,5
 24 119 24 119 42 102 c 256,6,7
 60 84 60 84 60 60 c 256,8,9
 60 36 60 36 42 18 c 256,10,11
 24 0 24 0 0 0 c 256,12,13
 -24 0 -24 0 -42 18 c 256,14,15
 -60 36 -60 36 -60 60 c 256,0,1
-240 225 m 258,16,-1
 240 225 l 258,17,18
 250 225 250 225 250 215 c 258,19,-1
 250 19 l 258,20,21
 250 12 250 12 244 6 c 256,22,23
 238 0 238 0 231 0 c 256,24,25
 224 0 224 0 218 6 c 256,26,27
 212 12 212 12 212 19 c 258,28,-1
 212 150 l 257,29,-1
 -212 150 l 257,30,-1
 -212 19 l 258,31,32
 -212 12 -212 12 -218 6 c 256,33,34
 -224 0 -224 0 -231 0 c 256,35,36
 -238 0 -238 0 -244 6 c 256,37,38
 -250 12 -250 12 -250 19 c 258,39,-1
 -250 215 l 258,40,41
 -250 225 -250 225 -240 225 c 258,16,-1
-365 400 m 258,42,-1
 365 400 l 258,43,44
 375 400 375 400 375 390 c 258,45,-1
 375 19 l 258,46,47
 375 12 375 12 370 6 c 256,48,49
 365 0 365 0 356 0 c 256,50,51
 348 0 348 0 342 6 c 256,52,53
 337 12 337 12 337 19 c 258,54,-1
 337 275 l 257,55,-1
 -337 275 l 257,56,-1
 -337 19 l 258,57,58
 -337 12 -337 12 -342 6 c 256,59,60
 -347 0 -347 0 -356 0 c 256,61,62
 -364 0 -364 0 -370 6 c 256,63,64
 -375 12 -375 12 -375 19 c 258,65,-1
 -375 390 l 258,66,67
 -375 400 -375 400 -365 400 c 258,42,-1
EndSplineSet
EndChar

StartChar: scripts.dverylongfermata
Encoding: 375 57695 119
Width: 375
Flags: W
HStem: -400 125<-337 337> -225 74<-212 212> -119 119<-41 41>
VStem: -375 38<-275 -0> -250 38<-150 -0> -60 119<-101 -18> 212 38<-150 -0> 337 38<-275 -0>
LayerCount: 2
Fore
SplineSet
-60 -60 m 256,0,1
 -60 -36 -60 -36 -42 -18 c 256,2,3
 -24 0 -24 0 0 0 c 256,4,5
 24 0 24 0 42 -18 c 256,6,7
 60 -36 60 -36 60 -60 c 256,8,9
 60 -84 60 -84 42 -102 c 256,10,11
 24 -120 24 -120 0 -119 c 256,12,13
 -24 -119 -24 -119 -42 -102 c 256,14,15
 -60 -84 -60 -84 -60 -60 c 256,0,1
-240 -225 m 258,16,17
 -250 -225 -250 -225 -250 -215 c 258,18,-1
 -250 -19 l 258,19,20
 -250 -12 -250 -12 -244 -6 c 256,21,22
 -238 0 -238 0 -231 0 c 256,23,24
 -224 0 -224 0 -218 -6 c 256,25,26
 -212 -12 -212 -12 -212 -19 c 258,27,-1
 -212 -150 l 257,28,-1
 212 -150 l 257,29,-1
 212 -19 l 258,30,31
 212 -12 212 -12 218 -6 c 256,32,33
 224 0 224 0 231 0 c 256,34,35
 238 0 238 0 244 -6 c 256,36,37
 250 -12 250 -12 250 -19 c 258,38,-1
 250 -215 l 258,39,40
 250 -225 250 -225 240 -225 c 258,41,-1
 -240 -225 l 258,16,17
-365 -400 m 258,42,43
 -375 -400 -375 -400 -375 -390 c 258,44,-1
 -375 -19 l 258,45,46
 -375 -12 -375 -12 -370 -6 c 256,47,48
 -365 0 -365 0 -356 0 c 256,49,50
 -348 0 -348 0 -342 -6 c 256,51,52
 -337 -12 -337 -12 -337 -19 c 258,53,-1
 -337 -275 l 257,54,-1
 337 -275 l 257,55,-1
 337 -19 l 258,56,57
 337 -12 337 -12 342 -6 c 256,58,59
 347 0 347 0 356 0 c 256,60,61
 364 0 364 0 370 -6 c 256,62,63
 375 -12 375 -12 375 -19 c 258,64,-1
 375 -390 l 258,65,66
 375 -401 375 -401 365 -400 c 258,67,-1
 -365 -400 l 258,42,43
EndSplineSet
EndChar

StartChar: scripts.thumb
Encoding: 376 57696 120
Width: 98
Flags: W
HStem: -200 105<-21 21> 95 30<-29 30>
VStem: -100 53<-80 79> -21 43<-200 -115> 48 52<-79 79>
LayerCount: 2
Fore
SplineSet
21 -125 m 257,0,-1
 24 -176 l 258,1,2
 25 -186 25 -186 18 -193 c 256,3,4
 10 -200 10 -200 0 -200 c 256,5,6
 -10 -200 -10 -200 -18 -193 c 256,7,8
 -26 -186 -26 -186 -24 -176 c 258,9,-1
 -21 -125 l 257,10,-1
 -21 -123 l 257,11,12
 -57 -114 -57 -114 -79 -79 c 256,13,14
 -100 -44 -100 -44 -100 0 c 256,15,16
 -100 51 -100 51 -72 88 c 256,17,18
 -44 125 -44 125 0 125 c 256,19,20
 44 125 44 125 72 88 c 256,21,22
 100 51 100 51 100 0 c 256,23,24
 100 -44 100 -44 78 -79 c 256,25,26
 57 -114 57 -114 21 -123 c 257,27,-1
 21 -125 l 257,0,-1
48 0 m 256,28,29
 48 95 48 95 0 95 c 256,30,31
 -47 95 -47 95 -47 0 c 256,32,33
 -47 -95 -47 -95 0 -95 c 256,34,35
 48 -95 48 -95 48 0 c 256,28,29
EndSplineSet
EndChar

StartChar: scripts.sforzato
Encoding: 377 57697 121
Width: 223
Flags: W
HStem: -19 37<179 225> 88 37<-225 -184>
VStem: 180 45<-22 22>
DStem2: 40 -23 206 -19 0.968224 0.250086<-276.873 0>
LayerCount: 2
Fore
SplineSet
225 0 m 256,0,1
 225 -19 225 -19 206 -19 c 257,2,-1
 -206 -125 l 258,3,4
 -225 -130 -225 -130 -225 -106 c 256,5,6
 -225 -90 -225 -90 -211 -88 c 258,7,-1
 40 -23 l 257,8,-1
 180 0 l 257,9,-1
 40 23 l 257,10,-1
 -211 88 l 258,11,12
 -225 91 -225 91 -225 106 c 256,13,14
 -225 129 -225 129 -206 125 c 258,15,-1
 206 19 l 257,16,17
 225 19 225 19 225 0 c 256,0,1
EndSplineSet
EndChar

StartChar: scripts.espr
Encoding: 378 57698 122
Width: 474
Flags: W
HStem: -125 37<-71 -30 30 71> -19 37<-475 -429 429 475> 88 36<30 71>
VStem: -475 41<-21 21> 434 41<-21 21>
DStem2: -456 19 -292 23 0.967468 0.252994<18.659 433.209> 292 -23 456 -19 0.967494 0.252894<-273.136 137.418>
LayerCount: 2
Fore
SplineSet
-475 0 m 256,0,1
 -475 19 -475 19 -456 19 c 257,2,-1
 -53 124 l 258,3,4
 -31 130 -31 130 -30 103 c 256,5,6
 -30 92 -30 92 -44 88 c 258,7,-1
 -292 23 l 257,8,-1
 -434 0 l 257,9,-1
 -292 -23 l 257,10,-1
 -44 -88 l 258,11,12
 -30 -93 -30 -93 -30 -103 c 256,13,14
 -30 -128 -30 -128 -49 -125 c 258,15,-1
 -456 -19 l 257,16,17
 -475 -19 -475 -19 -475 0 c 256,0,1
475 0 m 256,18,19
 475 -19 475 -19 456 -19 c 257,20,-1
 49 -125 l 258,21,22
 30 -128 30 -128 30 -103 c 256,23,24
 30 -93 30 -93 44 -88 c 258,25,-1
 292 -23 l 257,26,-1
 434 0 l 257,27,-1
 292 23 l 257,28,-1
 44 88 l 258,29,30
 30 92 30 92 30 103 c 256,31,32
 30 130 30 130 53 124 c 258,33,-1
 456 19 l 257,34,35
 475 19 475 19 475 0 c 256,18,19
EndSplineSet
EndChar

StartChar: scripts.staccato
Encoding: 379 57699 123
Width: 48
Flags: W
HStem: -50 100<-35 35>
VStem: -50 100<-35 35>
LayerCount: 2
Fore
SplineSet
-50 0 m 256,0,1
 -50 21 -50 21 -35 35 c 256,2,3
 -20 50 -20 50 0 50 c 256,4,5
 21 50 21 50 35 35 c 256,6,7
 50 20 50 20 50 0 c 256,8,9
 50 -21 50 -21 35 -35 c 256,10,11
 20 -50 20 -50 0 -50 c 256,12,13
 -21 -50 -21 -50 -35 -35 c 256,14,15
 -50 -21 -50 -21 -50 0 c 256,0,1
EndSplineSet
EndChar

StartChar: scripts.ustaccatissimo
Encoding: 380 57700 124
Width: 48
Flags: W
HStem: -13 263<-14 14>
VStem: -51 102<169 237> -13 25<-13 38>
LayerCount: 2
Fore
SplineSet
-13 0 m 258,0,-1
 -51 207 l 257,1,2
 -51 225 -51 225 -36 237 c 256,3,4
 -21 250 -21 250 0 250 c 256,5,6
 21 250 21 250 36 237 c 256,7,8
 51 224 51 224 51 207 c 257,9,10
 13 0 l 258,11,12
 11 -13 11 -13 0 -13 c 256,13,14
 -11 -13 -11 -13 -13 0 c 258,0,-1
EndSplineSet
EndChar

StartChar: scripts.dstaccatissimo
Encoding: 381 57701 125
Width: 48
Flags: W
HStem: -250 263<-14 14>
VStem: -51 102<-237 -169> -13 25<-38 13>
LayerCount: 2
Fore
SplineSet
-13 0 m 258,0,1
 -11 13 -11 13 0 13 c 256,2,3
 11 13 11 13 13 0 c 258,4,-1
 51 -207 l 257,5,6
 51 -225 51 -225 36 -237 c 256,7,8
 21 -250 21 -250 0 -250 c 256,9,10
 -21 -250 -21 -250 -36 -237 c 256,11,12
 -51 -224 -51 -224 -51 -207 c 257,13,-1
 -13 0 l 258,0,1
EndSplineSet
EndChar

StartChar: scripts.tenuto
Encoding: 382 57702 126
Width: 148
Flags: W
HStem: -20 39<-150 150>
VStem: -150 301<-20 20>
LayerCount: 2
Fore
SplineSet
130 -20 m 258,0,-1
 -130 -20 l 258,1,2
 -138 -20 -138 -20 -144 -14 c 256,3,4
 -150 -8 -150 -8 -150 0 c 256,5,6
 -150 8 -150 8 -144 14 c 256,7,8
 -138 20 -138 20 -130 20 c 258,9,-1
 130 20 l 258,10,11
 138 20 138 20 144 14 c 256,12,13
 150 8 150 8 150 0 c 256,14,15
 150 -8 150 -8 144 -14 c 256,16,17
 138 -20 138 -20 130 -20 c 258,0,-1
EndSplineSet
EndChar

StartChar: scripts.uportato
Encoding: 383 57703 127
Width: 148
Flags: W
HStem: -18 35<-145 145> 125 80<-28 28>
VStem: -40 80<137 193>
LayerCount: 2
Fore
SplineSet
-40 165 m 256,0,1
 -40 182 -40 182 -28 193 c 256,2,3
 -16 205 -16 205 0 205 c 256,4,5
 17 205 17 205 28 193 c 256,6,7
 40 181 40 181 40 165 c 256,8,9
 40 148 40 148 28 137 c 256,10,11
 16 125 16 125 0 125 c 256,12,13
 -17 125 -17 125 -28 137 c 256,14,15
 -40 148 -40 148 -40 165 c 256,0,1
132 -18 m 258,16,-1
 -132 -18 l 258,17,18
 -140 -18 -140 -18 -145 -13 c 256,19,20
 -150 -8 -150 -8 -150 0 c 256,21,22
 -150 8 -150 8 -145 13 c 256,23,24
 -140 18 -140 18 -132 18 c 258,25,-1
 132 18 l 258,26,27
 140 18 140 18 145 13 c 256,28,29
 150 8 150 8 150 0 c 256,30,31
 150 -8 150 -8 145 -13 c 256,32,33
 140 -18 140 -18 132 -18 c 258,16,-1
EndSplineSet
EndChar

StartChar: scripts.dportato
Encoding: 384 57704 128
Width: 148
Flags: W
HStem: -205 80<-28 28> -18 35<-145 145>
VStem: -40 80<-193 -137>
LayerCount: 2
Fore
SplineSet
-40 -165 m 256,0,1
 -40 -148 -40 -148 -28 -137 c 256,2,3
 -16 -125 -16 -125 0 -125 c 256,4,5
 17 -125 17 -125 28 -137 c 256,6,7
 40 -149 40 -149 40 -165 c 256,8,9
 40 -182 40 -182 28 -193 c 256,10,11
 16 -205 16 -205 0 -205 c 256,12,13
 -17 -205 -17 -205 -28 -193 c 256,14,15
 -40 -182 -40 -182 -40 -165 c 256,0,1
132 18 m 258,16,17
 140 18 140 18 145 13 c 256,18,19
 150 8 150 8 150 0 c 256,20,21
 150 -8 150 -8 145 -13 c 256,22,23
 140 -18 140 -18 132 -18 c 258,24,-1
 -132 -18 l 258,25,26
 -140 -18 -140 -18 -145 -13 c 256,27,28
 -150 -8 -150 -8 -150 0 c 256,29,30
 -150 8 -150 8 -145 13 c 256,31,32
 -140 18 -140 18 -132 18 c 258,33,-1
 132 18 l 258,16,17
EndSplineSet
EndChar

StartChar: scripts.umarcato
Encoding: 385 57705 129
Width: 125
Flags: W
HStem: 0 275
VStem: -125 250<0 16>
DStem2: 11 268 -34 157 0.41273 -0.910853<81.9734 264.229> -11 268 -101 7 0.41273 0.910853<-280.097 -110.187>
LayerCount: 2
Fore
SplineSet
-112 0 m 256,0,1
 -125 0 -125 0 -125 12 c 256,2,3
 -125 16 -125 16 -124 18 c 258,4,-1
 -11 268 l 258,5,6
 -8 275 -8 275 0 275 c 256,7,8
 8 275 8 275 11 268 c 258,9,-1
 124 18 l 258,10,11
 125 16 125 16 125 12 c 256,12,13
 125 0 125 0 112 0 c 258,14,-1
 46 0 l 258,15,16
 38 0 38 0 34 7 c 258,17,-1
 -34 157 l 257,18,-1
 -101 7 l 258,19,20
 -104 0 -104 0 -112 0 c 256,0,1
EndSplineSet
EndChar

StartChar: scripts.dmarcato
Encoding: 386 57706 130
Width: 125
Flags: W
HStem: -275 275
VStem: -125 250<-16 0>
DStem2: 34 -157 -124 -18 0.41273 -0.910853<-182.257 0> 34 -157 11 -268 0.41273 0.910853<0 169.91>
LayerCount: 2
Fore
SplineSet
112 0 m 256,0,1
 125 0 125 0 125 -12 c 256,2,3
 125 -16 125 -16 124 -18 c 258,4,-1
 11 -268 l 258,5,6
 8 -275 8 -275 0 -275 c 256,7,8
 -8 -275 -8 -275 -11 -268 c 258,9,-1
 -124 -18 l 258,10,11
 -125 -16 -125 -16 -125 -12 c 256,12,13
 -125 0 -125 0 -112 0 c 258,14,-1
 -46 0 l 258,15,16
 -38 0 -38 0 -34 -7 c 258,17,-1
 34 -157 l 257,18,-1
 101 -7 l 258,19,20
 104 0 104 0 112 0 c 256,0,1
EndSplineSet
EndChar

StartChar: scripts.open
Encoding: 387 57707 131
Width: 98
Flags: W
HStem: -125 30<-34 34> 95 30<-34 34>
VStem: -100 43<-72 72> 57 43<-72 72>
LayerCount: 2
Fore
SplineSet
100 0 m 256,0,1
 100 -51 100 -51 72 -88 c 256,2,3
 44 -125 44 -125 0 -125 c 256,4,5
 -44 -125 -44 -125 -72 -88 c 256,6,7
 -100 -51 -100 -51 -100 0 c 256,8,9
 -100 51 -100 51 -72 88 c 256,10,11
 -44 125 -44 125 0 125 c 256,12,13
 44 125 44 125 72 88 c 256,14,15
 100 51 100 51 100 0 c 256,0,1
57 0 m 256,16,17
 57 39 57 39 43 67 c 256,18,19
 29 95 29 95 0 95 c 256,20,21
 -29 95 -29 95 -43 67 c 256,22,23
 -57 39 -57 39 -57 0 c 256,24,25
 -57 -39 -57 -39 -43 -67 c 256,26,27
 -29 -95 -29 -95 0 -95 c 256,28,29
 29 -95 29 -95 43 -67 c 256,30,31
 57 -39 57 -39 57 0 c 256,16,17
EndSplineSet
EndChar

StartChar: scripts.stopped
Encoding: 388 57708 132
Width: 136
Flags: W
HStem: -25 51<-137 -25 25 137>
VStem: -25 51<-137 -25 25 137>
LayerCount: 2
Fore
SplineSet
0 -138 m 256,0,1
 -10 -138 -10 -138 -18 -130 c 256,2,3
 -26 -123 -26 -123 -25 -112 c 258,4,-1
 -25 -25 l 257,5,-1
 -112 -25 l 258,6,7
 -123 -25 -123 -25 -130 -18 c 256,8,9
 -137 -10 -137 -10 -138 0 c 256,10,11
 -138 10 -138 10 -130 18 c 256,12,13
 -123 26 -123 26 -112 25 c 258,14,-1
 -25 25 l 257,15,-1
 -25 112 l 258,16,17
 -25 123 -25 123 -18 130 c 256,18,19
 -10 137 -10 137 0 138 c 256,20,21
 10 138 10 138 18 130 c 256,22,23
 26 123 26 123 25 112 c 258,24,-1
 25 25 l 257,25,-1
 112 25 l 258,26,27
 123 25 123 25 130 18 c 256,28,29
 137 10 137 10 138 0 c 256,30,31
 138 -10 138 -10 130 -18 c 256,32,33
 123 -26 123 -26 112 -25 c 258,34,-1
 25 -25 l 257,35,-1
 25 -112 l 258,36,37
 25 -123 25 -123 18 -130 c 256,38,39
 10 -138 10 -138 0 -138 c 256,0,1
EndSplineSet
EndChar

StartChar: scripts.upbow
Encoding: 389 57709 133
Width: 161
Flags: W
HStem: 0 49<-24 24>
VStem: -163 35<484 520> -18 35<0 41> 128 35<484 520>
DStem2: 40 213 18 18 0.288062 0.957612<-168.642 314.943>
CounterMasks: 1 70
LayerCount: 2
Fore
SplineSet
0 0 m 256,0,1
 18 0 18 0 18 18 c 257,2,-1
 162 498 l 258,3,4
 163 501 163 501 163 505 c 256,5,6
 163 520 163 520 145 520 c 256,7,8
 131 520 131 520 128 508 c 258,9,-1
 40 213 l 257,10,-1
 0 49 l 257,11,-1
 -40 213 l 257,12,-1
 -128 508 l 258,13,14
 -131 520 -131 520 -145 520 c 256,15,16
 -164 520 -164 520 -163 505 c 256,17,18
 -163 501 -163 501 -162 498 c 258,19,-1
 -18 18 l 257,20,21
 -18 0 -18 0 0 0 c 256,0,1
EndSplineSet
EndChar

StartChar: scripts.downbow
Encoding: 390 57710 134
Width: 186
Flags: W
HStem: 0 21G<-175 -169 170 176> 200 133<-157 157>
VStem: -188 31<0 200> 157 31<0 200>
LayerCount: 2
Fore
SplineSet
-178 333 m 258,0,-1
 178 333 l 258,1,2
 189 333 189 333 188 323 c 258,3,-1
 188 15 l 258,4,5
 188 9 188 9 184 4 c 256,6,7
 179 0 179 0 173 0 c 256,8,9
 167 0 167 0 162 4 c 256,10,11
 157 8 157 8 157 15 c 258,12,-1
 157 200 l 257,13,-1
 -157 200 l 257,14,-1
 -157 15 l 258,15,16
 -157 9 -157 9 -162 4 c 256,17,18
 -166 0 -166 0 -172 0 c 256,19,20
 -178 0 -178 0 -183 4 c 256,21,22
 -188 8 -188 8 -188 15 c 258,23,-1
 -188 323 l 258,24,25
 -189 333 -189 333 -178 333 c 258,0,-1
EndSplineSet
EndChar

StartChar: scripts.reverseturn
Encoding: 391 57711 135
Width: 272
Flags: W
HStem: -132 105<107 188> -132 78<-213 -113> 26 105<-188 -107> 54 78<113 213>
VStem: -273 30<-36 38> 243 30<-38 36>
DStem2: -57 12 -1 -66 0.752265 0.658861<-121.265 196.339>
LayerCount: 2
Fore
SplineSet
139 132 m 256,0,1
 195 132 195 132 234 93 c 256,2,3
 274 54 274 54 273 0 c 256,4,5
 273 -54 273 -54 241 -93 c 256,6,7
 208 -132 208 -132 159 -132 c 256,8,9
 132 -132 132 -132 111 -117 c 256,10,11
 90 -102 90 -102 91 -79 c 256,12,13
 91 -55 91 -55 106 -41 c 256,14,15
 122 -27 122 -27 145 -26 c 256,16,17
 180 -26 180 -26 193 -57 c 257,18,19
 214 -54 214 -54 229 -39 c 256,20,21
 243 -24 243 -24 243 0 c 256,22,23
 243 23 243 23 225 39 c 256,24,25
 207 54 207 54 182 54 c 256,26,27
 150 54 150 54 117 35 c 256,28,29
 85 16 85 16 57 -12 c 256,30,31
 29 -39 29 -39 -1 -66 c 256,32,33
 -30 -93 -30 -93 -66 -113 c 256,34,35
 -102 -132 -102 -132 -139 -132 c 256,36,37
 -195 -132 -195 -132 -234 -93 c 256,38,39
 -274 -54 -274 -54 -273 0 c 256,40,41
 -273 54 -273 54 -241 93 c 256,42,43
 -208 132 -208 132 -159 132 c 256,44,45
 -132 132 -132 132 -111 117 c 256,46,47
 -90 102 -90 102 -91 79 c 256,48,49
 -91 55 -91 55 -106 41 c 256,50,51
 -122 27 -122 27 -145 26 c 256,52,53
 -180 26 -180 26 -193 57 c 257,54,55
 -214 54 -214 54 -229 39 c 256,56,57
 -243 24 -243 24 -243 0 c 256,58,59
 -243 -23 -243 -23 -225 -39 c 256,60,61
 -207 -54 -207 -54 -182 -54 c 256,62,63
 -150 -54 -150 -54 -117 -35 c 256,64,65
 -85 -16 -85 -16 -57 12 c 256,66,67
 -29 39 -29 39 1 66 c 256,68,69
 30 93 30 93 66 113 c 256,70,71
 102 132 102 132 139 132 c 256,0,1
EndSplineSet
EndChar

StartChar: scripts.turn
Encoding: 392 57712 136
Width: 272
Flags: W
HStem: -132 105<-188 -112> -132 78<113 213> 26 105<112 188> 54 78<-214 -113>
VStem: -273 30<-39 36> 243 30<-36 39>
DStem2: -1 66 -57 -12 0.728583 -0.684958<-100.086 193.591>
LayerCount: 2
Fore
SplineSet
139 -132 m 256,0,1
 102 -132 102 -132 66 -113 c 256,2,3
 30 -94 30 -94 1 -66 c 256,4,5
 -28 -39 -28 -39 -57 -12 c 256,6,7
 -85 15 -85 15 -118 35 c 256,8,9
 -151 54 -151 54 -182 54 c 256,10,11
 -207 54 -207 54 -225 39 c 256,12,13
 -243 24 -243 24 -243 0 c 256,14,15
 -243 -23 -243 -23 -229 -39 c 256,16,17
 -214 -54 -214 -54 -193 -57 c 257,18,19
 -180 -27 -180 -27 -145 -26 c 256,20,21
 -122 -26 -122 -26 -106 -41 c 256,22,23
 -91 -55 -91 -55 -91 -79 c 256,24,25
 -91 -102 -91 -102 -111 -117 c 256,26,27
 -132 -132 -132 -132 -159 -132 c 256,28,29
 -208 -132 -208 -132 -241 -93 c 256,30,31
 -274 -54 -274 -54 -273 0 c 256,32,33
 -273 55 -273 55 -234 93 c 256,34,35
 -195 132 -195 132 -139 132 c 256,36,37
 -102 132 -102 132 -66 113 c 256,38,39
 -30 94 -30 94 -1 66 c 256,40,41
 28 39 28 39 57 12 c 256,42,43
 85 -15 85 -15 118 -35 c 256,44,45
 151 -54 151 -54 182 -54 c 256,46,47
 207 -54 207 -54 225 -39 c 256,48,49
 243 -24 243 -24 243 0 c 256,50,51
 243 23 243 23 229 39 c 256,52,53
 214 54 214 54 193 57 c 257,54,55
 180 27 180 27 145 26 c 256,56,57
 122 26 122 26 106 41 c 256,58,59
 91 55 91 55 91 79 c 256,60,61
 91 102 91 102 111 117 c 256,62,63
 132 132 132 132 159 132 c 256,64,65
 208 132 208 132 241 93 c 256,66,67
 274 54 274 54 273 0 c 256,68,69
 273 -55 273 -55 234 -93 c 256,70,71
 195 -132 195 -132 139 -132 c 256,0,1
EndSplineSet
EndChar

StartChar: scripts.trill
Encoding: 393 57713 137
Width: 211
Flags: W
HStem: -11 50<-138 -69> 172 25<-292 -195> 278 24<-276 -179> 295 35<7 99> 305 27<162 233>
VStem: -322 25<203 258> -180 79<40 177> -51 24<54 146> 174 104<197 270>
DStem2: -176 121 -88 151 0.197063 0.980391<-36.1253 73.8122 92.2726 138.671 172.445 395.508> -63 274 -69 244 0.874157 0.485643<0 95.0578> 63 262 144 262 0.198847 0.980031<-255.855 6.69943>
LayerCount: 2
Fore
SplineSet
-322 223 m 256,0,1
 -322 256 -322 256 -295 279 c 256,2,3
 -268 302 -268 302 -226 303 c 256,4,5
 -184 303 -184 303 -144 278 c 257,6,-1
 -98 510 l 257,7,8
 -88 505 -88 505 -78 505 c 256,9,10
 -47 505 -47 505 -10 540 c 257,11,-1
 -63 274 l 257,12,-1
 1 310 l 258,13,14
 38 330 38 330 75 330 c 257,15,16
 122 330 122 330 139 302 c 257,17,18
 166 332 166 332 208 332 c 256,19,20
 237 332 237 332 257 314 c 256,21,22
 277 296 277 296 277 263 c 256,23,24
 277 228 277 228 258 200 c 256,25,26
 239 173 239 173 212 173 c 256,27,28
 194 173 194 173 184 187 c 256,29,30
 174 201 174 201 174 221 c 256,31,32
 174 255 174 255 193 270 c 256,33,34
 213 285 213 285 234 285 c 258,35,-1
 237 285 l 257,36,37
 226 305 226 305 199 305 c 256,38,39
 180 305 180 305 165 293 c 256,40,41
 149 281 149 281 144 262 c 258,42,-1
 90 -8 l 257,43,44
 73 3 73 3 52 3 c 256,45,46
 31 3 31 3 9 -8 c 257,47,-1
 63 262 l 257,48,-1
 63 269 l 258,49,50
 63 295 63 295 34 295 c 256,51,52
 24 295 24 295 10 288 c 257,53,-1
 -69 244 l 257,54,-1
 -76 213 l 257,55,56
 -26 156 -26 156 -26 104 c 256,57,58
 -26 60 -26 60 -56 24 c 256,59,60
 -85 -11 -85 -11 -124 -11 c 256,61,62
 -152 -11 -152 -11 -166 16 c 256,63,64
 -180 42 -180 42 -180 80 c 256,65,66
 -180 104 -180 104 -176 121 c 258,67,-1
 -161 197 l 257,68,69
 -221 172 -221 172 -262 172 c 256,70,71
 -295 172 -295 172 -309 188 c 256,72,73
 -322 204 -322 204 -322 223 c 256,0,1
-297 227 m 256,74,75
 -297 198 -297 198 -258 197 c 257,76,77
 -217 197 -217 197 -155 225 c 257,78,-1
 -150 249 l 257,79,80
 -189 278 -189 278 -231 278 c 256,81,82
 -265 278 -265 278 -281 262 c 256,83,84
 -297 246 -297 246 -297 227 c 256,74,75
-86 39 m 256,85,86
 -70 39 -70 39 -61 59 c 256,87,88
 -51 79 -51 79 -51 100 c 256,89,90
 -51 137 -51 137 -83 178 c 257,91,-1
 -88 151 l 257,92,93
 -101 92 -101 92 -101 68 c 256,94,95
 -101 39 -101 39 -86 39 c 256,85,86
EndSplineSet
EndChar

StartChar: scripts.upedalheel
Encoding: 394 57714 138
Width: 125
Flags: W
HStem: -125 38<-54 54>
VStem: -125 38<-53 161> 87 38<-53 161>
LayerCount: 2
Fore
SplineSet
0 -87 m 256,0,1
 36 -87 36 -87 62 -62 c 256,2,3
 87 -37 87 -37 87 0 c 258,4,-1
 87 148 l 258,5,6
 87 156 87 156 92 162 c 256,7,8
 97 167 97 167 106 167 c 256,9,10
 114 167 114 167 120 162 c 256,11,12
 125 157 125 157 125 148 c 258,13,-1
 125 0 l 258,14,15
 125 -52 125 -52 88 -88 c 256,16,17
 51 -125 51 -125 0 -125 c 256,18,19
 -52 -125 -52 -125 -88 -88 c 256,20,21
 -125 -51 -125 -51 -125 0 c 258,22,-1
 -125 148 l 258,23,24
 -125 156 -125 156 -120 162 c 256,25,26
 -115 167 -115 167 -106 167 c 256,27,28
 -98 167 -98 167 -92 162 c 256,29,30
 -87 157 -87 157 -87 148 c 258,31,-1
 -87 0 l 258,32,33
 -87 -36 -87 -36 -62 -62 c 256,34,35
 -36 -87 -36 -87 0 -87 c 256,0,1
EndSplineSet
EndChar

StartChar: scripts.dpedalheel
Encoding: 395 57715 139
Width: 125
Flags: W
HStem: 87 38<-54 54>
VStem: -125 38<-161 53> 87 38<-161 53>
LayerCount: 2
Fore
SplineSet
0 87 m 256,0,1
 -36 87 -36 87 -62 62 c 256,2,3
 -87 37 -87 37 -87 0 c 258,4,-1
 -87 -148 l 258,5,6
 -87 -156 -87 -156 -92 -162 c 256,7,8
 -97 -167 -97 -167 -106 -167 c 256,9,10
 -114 -167 -114 -167 -120 -162 c 256,11,12
 -125 -157 -125 -157 -125 -148 c 258,13,-1
 -125 0 l 258,14,15
 -125 52 -125 52 -88 88 c 256,16,17
 -51 125 -51 125 0 125 c 256,18,19
 52 125 52 125 88 88 c 256,20,21
 125 51 125 51 125 0 c 258,22,-1
 125 -148 l 258,23,24
 125 -156 125 -156 120 -162 c 256,25,26
 115 -167 115 -167 106 -167 c 256,27,28
 98 -167 98 -167 92 -162 c 256,29,30
 87 -157 87 -157 87 -148 c 258,31,-1
 87 0 l 258,32,33
 87 36 87 36 62 62 c 256,34,35
 36 87 36 87 0 87 c 256,0,1
EndSplineSet
EndChar

StartChar: scripts.upedaltoe
Encoding: 396 57716 140
Width: 125
Flags: W
HStem: 0 53<-26 26>
VStem: -19 37<0 41>
DStem2: -88 362 -124 351 0.302741 -0.953073<-5.53415 215.897>
LayerCount: 2
Fore
SplineSet
0 0 m 256,0,1
 -19 0 -19 0 -19 19 c 257,2,-1
 -124 351 l 258,3,4
 -125 353 -125 353 -125 356 c 256,5,6
 -125 364 -125 364 -120 370 c 256,7,8
 -115 375 -115 375 -106 375 c 256,9,10
 -91 375 -91 375 -88 362 c 258,11,-1
 -23 156 l 257,12,-1
 0 53 l 257,13,-1
 23 156 l 257,14,-1
 88 362 l 258,15,16
 91 375 91 375 106 375 c 256,17,18
 114 375 114 375 120 370 c 256,19,20
 125 365 125 365 125 356 c 256,21,22
 125 353 125 353 124 351 c 258,23,-1
 19 19 l 257,24,25
 19 0 19 0 0 0 c 256,0,1
EndSplineSet
EndChar

StartChar: scripts.dpedaltoe
Encoding: 397 57717 141
Width: 125
Flags: W
HStem: -53 53<-26 26>
VStem: -19 37<-41 -0>
DStem2: 19 -19 23 -156 0.302741 -0.953073<26.9585 354.144>
LayerCount: 2
Fore
SplineSet
0 0 m 256,0,1
 19 0 19 0 19 -19 c 257,2,-1
 124 -351 l 258,3,4
 125 -353 125 -353 125 -356 c 256,5,6
 125 -364 125 -364 120 -370 c 256,7,8
 115 -375 115 -375 106 -375 c 256,9,10
 90 -375 90 -375 88 -362 c 258,11,-1
 23 -156 l 257,12,-1
 0 -53 l 257,13,-1
 -23 -156 l 257,14,-1
 -88 -362 l 258,15,16
 -91 -375 -91 -375 -106 -375 c 256,17,18
 -114 -375 -114 -375 -120 -370 c 256,19,20
 -125 -365 -125 -365 -125 -356 c 256,21,22
 -125 -353 -125 -353 -124 -351 c 258,23,-1
 -19 -19 l 257,24,25
 -19 0 -19 0 0 0 c 256,0,1
EndSplineSet
EndChar

StartChar: scripts.flageolet
Encoding: 398 57718 142
Width: 131
Flags: W
HStem: -133 20<-46 46> 113 20<-46 46>
VStem: -133 20<-46 46> 113 20<-46 46>
LayerCount: 2
Fore
SplineSet
0 133 m 256,0,1
 56 133 56 133 94 94 c 256,2,3
 133 55 133 55 133 0 c 256,4,5
 133 -56 133 -56 94 -94 c 256,6,7
 55 -133 55 -133 0 -133 c 256,8,9
 -56 -133 -56 -133 -94 -94 c 256,10,11
 -133 -55 -133 -55 -133 0 c 256,12,13
 -133 56 -133 56 -94 94 c 256,14,15
 -56 133 -56 133 0 133 c 256,0,1
0 113 m 256,16,17
 -47 113 -47 113 -80 80 c 256,18,19
 -113 47 -113 47 -113 0 c 256,20,21
 -113 -47 -113 -47 -80 -80 c 256,22,23
 -47 -113 -47 -113 0 -113 c 256,24,25
 47 -113 47 -113 80 -80 c 256,26,27
 113 -47 113 -47 113 0 c 256,28,29
 113 47 113 47 80 80 c 256,30,31
 47 113 47 113 0 113 c 256,16,17
EndSplineSet
EndChar

StartChar: scripts.segno
Encoding: 399 57719 143
Width: 250
Flags: W
HStem: -375 30<61 146> -80 61<-193 -151> 20 61<151 193> 345 30<-146 -61>
VStem: -250 78<189 303> -250 60<-375 -315> -202 61<-71 -29> -77 112<187 282> -35 112<-281 -187> 142 61<29 71> 172 78<-303 -189> 190 60<315 375>
DStem2: -250 -375 -190 -375 0.506382 0.862309<30.1653 403.982 495.94 869.758>
LayerCount: 2
Fore
SplineSet
142 50 m 256,0,1
 142 63 142 63 150 71 c 256,2,3
 159 80 159 80 172 80 c 256,4,5
 185 80 185 80 193 71 c 256,6,7
 202 62 202 62 202 50 c 256,8,9
 202 37 202 37 193 28 c 256,10,11
 184 19 184 19 172 20 c 256,12,13
 159 20 159 20 150 28 c 256,14,15
 142 37 142 37 142 50 c 256,0,1
-202 -50 m 256,16,17
 -202 -37 -202 -37 -193 -28 c 256,18,19
 -184 -19 -184 -19 -172 -20 c 256,20,21
 -159 -20 -159 -20 -150 -28 c 256,22,23
 -141 -37 -141 -37 -142 -50 c 256,24,25
 -142 -63 -142 -63 -150 -71 c 256,26,27
 -159 -80 -159 -80 -172 -80 c 256,28,29
 -185 -80 -185 -80 -193 -71 c 256,30,31
 -202 -63 -202 -63 -202 -50 c 256,16,17
-35 -227 m 256,32,33
 -35 -168 -35 -168 19 -168 c 256,34,35
 47 -168 47 -168 62 -187 c 256,36,37
 77 -206 77 -206 77 -230 c 256,38,39
 77 -251 77 -251 66 -270 c 256,40,41
 55 -288 55 -288 37 -294 c 257,42,43
 42 -316 42 -316 62 -331 c 256,44,45
 82 -345 82 -345 106 -345 c 256,46,47
 134 -345 134 -345 153 -323 c 256,48,49
 172 -301 172 -301 172 -270 c 256,50,51
 172 -150 172 -150 0 -51 c 257,52,-1
 -190 -375 l 257,53,-1
 -250 -375 l 257,54,-1
 -46 -26 l 257,55,56
 -140 26 -140 26 -195 83 c 256,57,58
 -250 141 -250 141 -250 219 c 256,59,60
 -250 284 -250 284 -208 330 c 256,61,62
 -166 375 -166 375 -106 375 c 256,63,64
 -47 375 -47 375 -6 332 c 256,65,66
 36 289 36 289 35 227 c 256,67,68
 35 168 35 168 -19 168 c 256,69,70
 -47 168 -47 168 -62 187 c 256,71,72
 -77 206 -77 206 -77 230 c 256,73,74
 -77 251 -77 251 -66 270 c 256,75,76
 -55 288 -55 288 -37 294 c 257,77,78
 -42 316 -42 316 -62 331 c 256,79,80
 -82 345 -82 345 -106 345 c 256,81,82
 -134 345 -134 345 -153 323 c 256,83,84
 -172 301 -172 301 -172 270 c 256,85,86
 -172 150 -172 150 0 51 c 257,87,-1
 190 375 l 257,88,-1
 250 375 l 257,89,-1
 46 26 l 257,90,91
 140 -26 140 -26 195 -83 c 256,92,93
 250 -141 250 -141 250 -219 c 256,94,95
 250 -284 250 -284 208 -330 c 256,96,97
 166 -375 166 -375 106 -375 c 256,98,99
 47 -375 47 -375 6 -331 c 256,100,101
 -35 -288 -35 -288 -35 -227 c 256,32,33
EndSplineSet
EndChar

StartChar: scripts.coda
Encoding: 400 57720 144
Width: 253
Flags: W
HStem: -15 29<-269 -166 -93 -15 15 93 166 269>
VStem: -166 73<-130 -15 15 130> -15 29<-353 -247 -219 -15 15 219 247 353> 93 73<-130 -15 15 130>
CounterMasks: 1 70
LayerCount: 2
Fore
SplineSet
15 -338 m 258,0,1
 15 -344 15 -344 10 -348 c 256,2,3
 6 -352 6 -352 0 -353 c 256,4,5
 -6 -353 -6 -353 -10 -348 c 256,6,7
 -14 -344 -14 -344 -15 -338 c 258,8,-1
 -15 -249 l 257,9,10
 -84 -242 -84 -242 -124 -175 c 256,11,12
 -164 -108 -164 -108 -166 -15 c 257,13,-1
 -254 -15 l 258,14,15
 -260 -15 -260 -15 -264 -10 c 256,16,17
 -268 -6 -268 -6 -269 0 c 256,18,19
 -269 6 -269 6 -264 10 c 256,20,21
 -260 14 -260 14 -254 15 c 258,22,-1
 -166 15 l 257,23,24
 -163 107 -163 107 -124 174 c 256,25,26
 -84 242 -84 242 -15 249 c 257,27,-1
 -15 338 l 258,28,29
 -15 344 -15 344 -10 348 c 256,30,31
 -6 352 -6 352 0 353 c 256,32,33
 6 353 6 353 10 348 c 256,34,35
 14 344 14 344 15 338 c 258,36,-1
 15 249 l 257,37,38
 84 242 84 242 124 175 c 256,39,40
 164 108 164 108 166 15 c 257,41,-1
 254 15 l 258,42,43
 260 15 260 15 264 10 c 256,44,45
 268 6 268 6 269 0 c 256,46,47
 269 -6 269 -6 264 -10 c 256,48,49
 260 -14 260 -14 254 -15 c 258,50,-1
 166 -15 l 257,51,52
 163 -107 163 -107 124 -174 c 256,53,54
 84 -242 84 -242 15 -249 c 257,55,-1
 15 -338 l 258,0,1
15 15 m 257,56,-1
 93 15 l 257,57,58
 93 57 93 57 90 85 c 256,59,60
 87 114 87 114 80 146 c 256,61,62
 73 178 73 178 57 196 c 256,63,64
 40 215 40 215 15 219 c 257,65,-1
 15 15 l 257,56,-1
15 -15 m 257,66,-1
 15 -219 l 257,67,68
 40 -215 40 -215 57 -196 c 256,69,70
 74 -177 74 -177 80 -146 c 256,71,72
 87 -114 87 -114 90 -85 c 256,73,74
 93 -56 93 -56 93 -15 c 257,75,-1
 15 -15 l 257,66,-1
-15 15 m 257,76,-1
 -15 219 l 257,77,78
 -40 215 -40 215 -57 196 c 256,79,80
 -74 177 -74 177 -80 146 c 256,81,82
 -87 114 -87 114 -90 85 c 256,83,84
 -93 56 -93 56 -93 15 c 257,85,-1
 -15 15 l 257,76,-1
-15 -15 m 257,86,-1
 -93 -15 l 257,87,88
 -93 -57 -93 -57 -90 -85 c 256,89,90
 -87 -114 -87 -114 -80 -146 c 256,91,92
 -73 -178 -73 -178 -57 -196 c 256,93,94
 -40 -215 -40 -215 -15 -219 c 257,95,-1
 -15 -15 l 257,86,-1
EndSplineSet
EndChar

StartChar: scripts.varcoda
Encoding: 401 57721 145
Width: 253
Flags: W
HStem: -250 30<-79 -15 15 79> -15 29<-269 -167 -79 -15 15 79 167 269> 220 30<-79 -15 15 79>
VStem: -167 88<-220 -15 15 220> -15 29<-353 -250 -220 -15 15 220 250 353> 79 88<-220 -15 15 220>
CounterMasks: 1 fc
LayerCount: 2
Fore
SplineSet
15 -338 m 258,0,1
 15 -344 15 -344 10 -348 c 256,2,3
 6 -352 6 -352 0 -353 c 256,4,5
 -6 -353 -6 -353 -10 -348 c 256,6,7
 -14 -344 -14 -344 -15 -338 c 258,8,-1
 -15 -250 l 257,9,-1
 -157 -250 l 258,10,11
 -167 -250 -167 -250 -167 -240 c 258,12,-1
 -167 -15 l 257,13,-1
 -254 -15 l 258,14,15
 -260 -15 -260 -15 -264 -10 c 256,16,17
 -268 -6 -268 -6 -269 0 c 256,18,19
 -269 6 -269 6 -264 10 c 256,20,21
 -260 14 -260 14 -254 15 c 258,22,-1
 -167 15 l 257,23,-1
 -167 240 l 258,24,25
 -167 250 -167 250 -157 250 c 258,26,-1
 -15 250 l 257,27,-1
 -15 338 l 258,28,29
 -15 344 -15 344 -10 348 c 256,30,31
 -6 352 -6 352 0 353 c 256,32,33
 6 353 6 353 10 348 c 256,34,35
 14 344 14 344 15 338 c 258,36,-1
 15 250 l 257,37,-1
 157 250 l 258,38,39
 167 250 167 250 167 240 c 258,40,-1
 167 15 l 257,41,-1
 254 15 l 258,42,43
 260 15 260 15 264 10 c 256,44,45
 268 6 268 6 269 0 c 256,46,47
 269 -6 269 -6 264 -10 c 256,48,49
 260 -14 260 -14 254 -15 c 258,50,-1
 167 -15 l 257,51,-1
 167 -240 l 258,52,53
 167 -250 167 -250 157 -250 c 258,54,-1
 89 -250 l 257,55,-1
 15 -250 l 257,56,-1
 15 -338 l 258,0,1
15 15 m 257,57,-1
 79 15 l 257,58,-1
 79 220 l 257,59,-1
 15 220 l 257,60,-1
 15 15 l 257,57,-1
15 -15 m 257,61,-1
 15 -220 l 257,62,-1
 79 -220 l 257,63,-1
 79 -15 l 257,64,-1
 15 -15 l 257,61,-1
-15 15 m 257,65,-1
 -15 220 l 257,66,-1
 -79 220 l 257,67,-1
 -79 15 l 257,68,-1
 -15 15 l 257,65,-1
-15 -15 m 257,69,-1
 -79 -15 l 257,70,-1
 -79 -220 l 257,71,-1
 -15 -220 l 257,72,-1
 -15 -15 l 257,69,-1
EndSplineSet
EndChar

StartChar: scripts.rcomma
Encoding: 402 57722 146
Width: 125
Flags: W
HStem: -153 311<12 55>
VStem: 50 62<-33 93>
LayerCount: 2
Fore
SplineSet
50 13 m 256,0,1
 50 52 50 52 34 82 c 256,2,3
 18 112 18 112 18 119 c 256,4,5
 18 135 18 135 28 146 c 256,6,7
 39 157 39 157 55 157 c 256,8,9
 82 157 82 157 97 124 c 256,10,11
 112 91 112 91 112 59 c 256,12,13
 112 -22 112 -22 25 -146 c 256,14,15
 20 -153 20 -153 12 -153 c 256,16,17
 -3 -153 -3 -153 -3 -138 c 256,18,19
 -3 -135 -3 -135 11 -114 c 256,20,21
 25 -93 25 -93 37 -58 c 256,22,23
 50 -23 50 -23 50 13 c 256,0,1
EndSplineSet
EndChar

StartChar: scripts.lcomma
Encoding: 403 57723 147
Width: 0
Flags: W
HStem: -157 311<-55 -12>
VStem: -112 62<-93 33>
LayerCount: 2
Fore
SplineSet
-50 -13 m 256,0,1
 -50 -52 -50 -52 -34 -82 c 256,2,3
 -18 -112 -18 -112 -18 -119 c 256,4,5
 -18 -135 -18 -135 -28 -146 c 256,6,7
 -39 -157 -39 -157 -55 -157 c 256,8,9
 -82 -157 -82 -157 -97 -124 c 256,10,11
 -112 -91 -112 -91 -112 -59 c 256,12,13
 -112 22 -112 22 -25 146 c 256,14,15
 -20 153 -20 153 -12 153 c 256,16,17
 3 153 3 153 3 138 c 256,18,19
 3 135 3 135 -11 114 c 256,20,21
 -25 93 -25 93 -37 58 c 256,22,23
 -50 23 -50 23 -50 -13 c 256,0,1
EndSplineSet
EndChar

StartChar: scripts.rvarcomma
Encoding: 404 57724 148
Width: 60
Flags: W
VStem: -77 28<-165 -156>
LayerCount: 2
Fore
SplineSet
-63 -165 m 256,0,1
 -77 -165 -77 -165 -77 -150 c 256,2,3
 -77 -146 -77 -146 -76 -144 c 258,4,-1
 28 164 l 258,5,6
 36 188 36 188 62 188 c 256,7,8
 79 188 79 188 89 177 c 256,9,10
 100 165 100 165 101 150 c 256,11,12
 101 146 101 146 97 136 c 258,13,-1
 -49 -156 l 258,14,15
 -54 -165 -54 -165 -63 -165 c 256,0,1
EndSplineSet
EndChar

StartChar: scripts.lvarcomma
Encoding: 405 57725 149
Width: 60
Flags: W
VStem: 49 28<156 165>
LayerCount: 2
Fore
SplineSet
63 165 m 256,0,1
 77 165 77 165 77 150 c 256,2,3
 77 146 77 146 76 144 c 258,4,-1
 -28 -164 l 258,5,6
 -36 -188 -36 -188 -62 -188 c 256,7,8
 -79 -188 -79 -188 -89 -177 c 256,9,10
 -100 -165 -100 -165 -101 -150 c 256,11,12
 -101 -146 -101 -146 -97 -136 c 258,13,-1
 49 156 l 258,14,15
 54 165 54 165 63 165 c 256,0,1
EndSplineSet
EndChar

StartChar: scripts.arpeggio
Encoding: 406 57726 150
Width: 198
Flags: W
VStem: -1 111<30 95> 90 111<155 220>
DStem2: 62 302 73 253 0.771086 -0.63673<-9.87597 72.3619> 127 -3 138 -52 0.768702 -0.639607<-32.2913 50.1032>
LayerCount: 2
Fore
SplineSet
-1 75 m 256,0,1
 -1 92 -1 92 21 111 c 256,2,3
 43 130 43 130 67 154 c 256,4,5
 90 178 90 178 90 206 c 256,6,7
 90 233 90 233 73 253 c 257,8,-1
 42 278 l 258,9,10
 36 282 36 282 36 290 c 256,11,12
 36 296 36 296 41 301 c 256,13,14
 45 306 45 306 52 306 c 256,15,16
 58 306 58 306 62 302 c 258,17,-1
 190 195 l 258,18,19
 201 187 201 187 201 175 c 256,20,21
 201 158 201 158 179 139 c 256,22,23
 157 120 157 120 133 96 c 256,24,25
 110 72 110 72 110 44 c 256,26,27
 110 17 110 17 127 -3 c 257,28,-1
 158 -28 l 258,29,30
 164 -32 164 -32 164 -40 c 256,31,32
 164 -46 164 -46 160 -51 c 256,33,34
 156 -56 156 -56 148 -56 c 256,35,36
 142 -56 142 -56 138 -52 c 258,37,-1
 10 55 l 258,38,39
 -1 63 -1 63 -1 75 c 256,0,1
EndSplineSet
EndChar

StartChar: scripts.trill_element
Encoding: 407 57727 151
Width: 250
Flags: W
HStem: -1 111<155 220> 90 111<30 95>
DStem2: -52 62 -3 73 0.63673 0.771086<-9.87597 72.3619> 253 127 302 138 0.639607 0.768702<-32.2913 50.1032>
LayerCount: 2
Fore
SplineSet
175 -1 m 256,0,1
 158 -1 158 -1 139 21 c 256,2,3
 120 43 120 43 96 67 c 256,4,5
 72 90 72 90 44 90 c 256,6,7
 17 90 17 90 -3 73 c 257,8,-1
 -28 42 l 258,9,10
 -32 36 -32 36 -40 36 c 256,11,12
 -46 36 -46 36 -51 41 c 256,13,14
 -56 45 -56 45 -56 52 c 256,15,16
 -56 58 -56 58 -52 62 c 258,17,-1
 55 190 l 258,18,19
 63 201 63 201 75 201 c 256,20,21
 92 201 92 201 111 179 c 256,22,23
 130 157 130 157 154 133 c 256,24,25
 178 110 178 110 206 110 c 256,26,27
 233 110 233 110 253 127 c 257,28,-1
 278 158 l 258,29,30
 282 164 282 164 290 164 c 256,31,32
 296 164 296 164 301 160 c 256,33,34
 306 156 306 156 306 148 c 256,35,36
 306 142 306 142 302 138 c 258,37,-1
 195 10 l 258,38,39
 187 -1 187 -1 175 -1 c 256,0,1
EndSplineSet
EndChar

StartChar: scripts.arpeggio.arrow.M1
Encoding: 408 57728 152
Width: 198
Flags: W
HStem: 0 307
VStem: -60 319
LayerCount: 2
Fore
SplineSet
42 278 m 258,0,1
 36 283 36 283 36 291 c 256,2,3
 36 298 36 298 41 302 c 256,4,5
 46 306 46 306 52 307 c 256,6,7
 57 307 57 307 62 302 c 258,8,-1
 148 210 l 258,9,10
 163 193 163 193 168 168 c 257,11,-1
 246 205 l 258,12,13
 260 212 260 212 260 200 c 256,14,15
 260 193 260 193 229 164 c 256,16,17
 198 134 198 134 160 88 c 256,18,19
 121 43 121 43 106 3 c 257,20,21
 106 0 106 0 99 0 c 256,22,23
 96 0 96 0 95 2 c 256,24,25
 80 42 80 42 41 87 c 256,26,27
 2 132 2 132 -29 163 c 256,28,29
 -60 193 -60 193 -60 200 c 256,30,31
 -60 205 -60 205 -56 207 c 256,32,33
 -52 208 -52 208 -47 206 c 258,34,-1
 45 162 l 257,35,36
 49 168 49 168 58 178 c 256,37,38
 67 188 67 188 73 195 c 256,39,40
 78 201 78 201 83 210 c 256,41,42
 87 219 87 219 87 226 c 256,43,44
 87 242 87 242 73 253 c 258,45,-1
 42 278 l 258,0,1
EndSplineSet
EndChar

StartChar: scripts.arpeggio.arrow.1
Encoding: 409 57729 153
Width: 198
Flags: W
HStem: -57 307
VStem: -60 319
LayerCount: 2
Fore
SplineSet
158 -28 m 258,0,1
 164 -33 164 -33 164 -41 c 256,2,3
 164 -48 164 -48 159 -52 c 256,4,5
 154 -56 154 -56 148 -57 c 256,6,7
 143 -57 143 -57 138 -52 c 258,8,-1
 52 40 l 258,9,10
 37 57 37 57 32 82 c 257,11,-1
 -46 45 l 258,12,13
 -60 38 -60 38 -60 50 c 256,14,15
 -60 57 -60 57 -29 86 c 256,16,17
 2 116 2 116 41 162 c 256,18,19
 80 207 80 207 94 247 c 257,20,21
 94 250 94 250 101 250 c 256,22,23
 104 250 104 250 105 248 c 257,24,25
 120 208 120 208 159 162 c 256,26,27
 198 116 198 116 229 86 c 256,28,29
 260 56 260 56 260 50 c 256,30,31
 260 45 260 45 256 43 c 256,32,33
 252 42 252 42 247 44 c 258,34,-1
 155 88 l 257,35,36
 151 82 151 82 142 72 c 256,37,38
 133 62 133 62 127 55 c 256,39,40
 122 49 122 49 118 40 c 256,41,42
 114 31 114 31 113 24 c 256,43,44
 113 8 113 8 127 -3 c 258,45,-1
 158 -28 l 258,0,1
EndSplineSet
EndChar

StartChar: scripts.trilelement
Encoding: 410 57730 154
Width: 102
Flags: W
HStem: -125 250
VStem: -121 242
LayerCount: 2
Fore
SplineSet
-80 1 m 257,0,-1
 -88 -11 l 257,1,-1
 -121 11 l 257,2,-1
 -51 116 l 258,3,4
 -45 125 -45 125 -34 125 c 256,5,6
 -25 125 -25 125 -19 118 c 258,7,-1
 80 -1 l 257,8,-1
 88 11 l 257,9,-1
 121 -11 l 257,10,-1
 51 -116 l 258,11,12
 45 -125 45 -125 34 -125 c 256,13,14
 25 -125 25 -125 19 -118 c 258,15,-1
 -80 1 l 257,0,-1
EndSplineSet
EndChar

StartChar: scripts.prall
Encoding: 411 57731 155
Width: 207
Flags: W
HStem: -125 250
DStem2: -248 -24 -215 -46 0.550681 0.834716<-10.4019 56.687> 184 -1 248 24 0.550681 0.834716<0 67.089>
LayerCount: 2
Fore
SplineSet
215 46 m 258,0,1
 221 55 221 55 231 55 c 256,2,3
 239 55 239 55 245 49 c 256,4,5
 251 43 251 43 251 35 c 256,6,7
 251 28 251 28 248 24 c 258,8,-1
 155 -116 l 258,9,10
 149 -125 149 -125 138 -125 c 256,11,12
 129 -125 129 -125 123 -118 c 258,13,-1
 25 1 l 257,14,-1
 -53 -116 l 258,15,16
 -59 -125 -59 -125 -70 -125 c 256,17,18
 -79 -125 -79 -125 -85 -118 c 258,19,-1
 -184 1 l 257,20,-1
 -215 -46 l 258,21,22
 -221 -55 -221 -55 -231 -55 c 256,23,24
 -239 -55 -239 -55 -245 -49 c 256,25,26
 -251 -43 -251 -43 -251 -35 c 256,27,28
 -251 -28 -251 -28 -248 -24 c 258,29,-1
 -155 116 l 258,30,31
 -149 125 -149 125 -138 125 c 256,32,33
 -129 125 -129 125 -123 118 c 258,34,-1
 -25 -1 l 257,35,-1
 53 116 l 258,36,37
 59 125 59 125 70 125 c 256,38,39
 79 125 79 125 85 118 c 258,40,-1
 184 -1 l 257,41,-1
 215 46 l 258,0,1
EndSplineSet
EndChar

StartChar: scripts.mordent
Encoding: 412 57732 156
Width: 207
Flags: W
VStem: -20 39<-167 -66 66 167>
DStem2: -248 -24 -215 -46 0.550681 0.834716<-10.4019 56.687> 184 -1 248 24 0.550681 0.834716<0 67.089>
LayerCount: 2
Fore
SplineSet
20 -147 m 258,0,1
 20 -155 20 -155 14 -161 c 256,2,3
 8 -167 8 -167 0 -167 c 256,4,5
 -8 -167 -8 -167 -14 -161 c 256,6,7
 -20 -155 -20 -155 -20 -147 c 258,8,-1
 -20 -66 l 257,9,-1
 -53 -116 l 258,10,11
 -59 -125 -59 -125 -70 -125 c 256,12,13
 -79 -125 -79 -125 -85 -118 c 258,14,-1
 -184 1 l 257,15,-1
 -215 -46 l 258,16,17
 -221 -55 -221 -55 -231 -55 c 256,18,19
 -239 -55 -239 -55 -245 -49 c 256,20,21
 -251 -43 -251 -43 -251 -35 c 256,22,23
 -251 -28 -251 -28 -248 -24 c 258,24,-1
 -155 116 l 258,25,26
 -149 125 -149 125 -138 125 c 256,27,28
 -129 125 -129 125 -123 118 c 258,29,-1
 -25 -1 l 257,30,-1
 -20 6 l 257,31,-1
 -20 147 l 258,32,33
 -20 155 -20 155 -14 161 c 256,34,35
 -8 167 -8 167 0 167 c 256,36,37
 8 167 8 167 14 161 c 256,38,39
 20 155 20 155 20 147 c 258,40,-1
 20 66 l 257,41,-1
 53 116 l 258,42,43
 59 125 59 125 70 125 c 256,44,45
 79 125 79 125 85 118 c 258,46,-1
 184 -1 l 257,47,-1
 215 46 l 258,48,49
 221 55 221 55 231 55 c 256,50,51
 239 55 239 55 245 49 c 256,52,53
 251 43 251 43 251 35 c 256,54,55
 251 28 251 28 248 24 c 258,56,-1
 155 -116 l 258,57,58
 149 -125 149 -125 138 -125 c 256,59,60
 129 -125 129 -125 123 -118 c 258,61,-1
 25 1 l 257,62,-1
 20 -6 l 257,63,-1
 20 -147 l 258,0,1
EndSplineSet
EndChar

StartChar: scripts.prallprall
Encoding: 413 57733 157
Width: 311
Flags: W
HStem: -125 250
DStem2: -352 -24 -319 -46 0.550681 0.834716<-11.5273 56.1493> 288 -1 352 24 0.550681 0.834716<0 67.6766>
LayerCount: 2
Fore
SplineSet
319 46 m 258,0,1
 325 55 325 55 336 55 c 256,2,3
 344 55 344 55 350 49 c 256,4,5
 356 43 356 43 356 35 c 256,6,7
 356 30 356 30 352 24 c 258,8,-1
 259 -116 l 258,9,10
 253 -125 253 -125 243 -125 c 256,11,12
 233 -125 233 -125 227 -118 c 258,13,-1
 129 1 l 257,14,-1
 51 -116 l 258,15,16
 45 -125 45 -125 34 -125 c 256,17,18
 25 -125 25 -125 19 -118 c 258,19,-1
 -80 1 l 257,20,-1
 -158 -116 l 258,21,22
 -164 -125 -164 -125 -174 -125 c 256,23,24
 -184 -125 -184 -125 -190 -118 c 258,25,-1
 -288 1 l 257,26,-1
 -319 -46 l 258,27,28
 -325 -55 -325 -55 -336 -55 c 256,29,30
 -344 -55 -344 -55 -350 -49 c 256,31,32
 -356 -43 -356 -43 -356 -35 c 256,33,34
 -356 -30 -356 -30 -352 -24 c 258,35,-1
 -259 116 l 258,36,37
 -253 125 -253 125 -242 125 c 256,38,39
 -233 125 -233 125 -227 118 c 258,40,-1
 -129 -1 l 257,41,-1
 -51 116 l 258,42,43
 -45 125 -45 125 -34 125 c 256,44,45
 -25 125 -25 125 -19 118 c 258,46,-1
 80 -1 l 257,47,-1
 158 116 l 258,48,49
 164 125 164 125 174 125 c 256,50,51
 184 125 184 125 190 118 c 258,52,-1
 288 -1 l 257,53,-1
 319 46 l 258,0,1
EndSplineSet
EndChar

StartChar: scripts.prallmordent
Encoding: 414 57734 158
Width: 311
Flags: W
VStem: 84 40<-167 -66 66 167>
DStem2: -352 -24 -319 -46 0.550681 0.834716<-11.5273 56.1493> 288 -1 352 24 0.550681 0.834716<0 67.6766>
LayerCount: 2
Fore
SplineSet
124 -147 m 258,0,1
 124 -155 124 -155 118 -161 c 256,2,3
 112 -167 112 -167 104 -167 c 256,4,5
 96 -167 96 -167 90 -161 c 256,6,7
 84 -155 84 -155 84 -147 c 258,8,-1
 84 -66 l 257,9,-1
 51 -116 l 258,10,11
 45 -125 45 -125 34 -125 c 256,12,13
 25 -125 25 -125 19 -118 c 258,14,-1
 -80 1 l 257,15,-1
 -158 -116 l 258,16,17
 -164 -125 -164 -125 -174 -125 c 256,18,19
 -184 -125 -184 -125 -190 -118 c 258,20,-1
 -288 1 l 257,21,-1
 -319 -46 l 258,22,23
 -325 -55 -325 -55 -336 -55 c 256,24,25
 -344 -55 -344 -55 -350 -49 c 256,26,27
 -356 -43 -356 -43 -356 -35 c 256,28,29
 -356 -30 -356 -30 -352 -24 c 258,30,-1
 -259 116 l 258,31,32
 -253 125 -253 125 -242 125 c 256,33,34
 -233 125 -233 125 -227 118 c 258,35,-1
 -129 -1 l 257,36,-1
 -51 116 l 258,37,38
 -45 125 -45 125 -34 125 c 256,39,40
 -25 125 -25 125 -19 118 c 258,41,-1
 80 -1 l 257,42,-1
 84 6 l 257,43,-1
 84 147 l 258,44,45
 84 155 84 155 90 161 c 256,46,47
 96 167 96 167 104 167 c 256,48,49
 112 167 112 167 118 161 c 256,50,51
 124 155 124 155 124 147 c 258,52,-1
 124 66 l 257,53,-1
 158 116 l 258,54,55
 164 125 164 125 174 125 c 256,56,57
 184 125 184 125 190 118 c 258,58,-1
 288 -1 l 257,59,-1
 319 46 l 258,60,61
 325 55 325 55 336 55 c 256,62,63
 344 55 344 55 350 49 c 256,64,65
 356 43 356 43 356 35 c 256,66,67
 356 30 356 30 352 24 c 258,68,-1
 259 -116 l 258,69,70
 253 -125 253 -125 243 -125 c 256,71,72
 233 -125 233 -125 227 -118 c 258,73,-1
 129 1 l 257,74,-1
 124 -6 l 257,75,-1
 124 -147 l 258,0,1
EndSplineSet
EndChar

StartChar: scripts.upprall
Encoding: 415 57735 159
Width: 311
Flags: W
VStem: -393 40<-250 -70>
DStem2: -352 -24 -319 -46 0.550681 0.834716<-84.8354 56.1493> 288 -1 352 24 0.550681 0.834716<0 67.6766>
LayerCount: 2
Fore
SplineSet
-336 -305 m 256,0,1
 -355 -305 -355 -305 -374 -256 c 256,2,3
 -393 -207 -393 -207 -393 -160 c 256,4,5
 -393 -86 -393 -86 -352 -24 c 258,6,-1
 -259 116 l 258,7,8
 -253 125 -253 125 -242 125 c 256,9,10
 -233 125 -233 125 -227 118 c 258,11,-1
 -129 -1 l 257,12,-1
 -51 116 l 258,13,14
 -45 125 -45 125 -34 125 c 256,15,16
 -25 125 -25 125 -19 118 c 258,17,-1
 80 -1 l 257,18,-1
 158 116 l 258,19,20
 164 125 164 125 174 125 c 256,21,22
 184 125 184 125 190 118 c 258,23,-1
 288 -1 l 257,24,-1
 319 46 l 258,25,26
 325 55 325 55 336 55 c 256,27,28
 344 55 344 55 350 49 c 256,29,30
 356 43 356 43 356 35 c 256,31,32
 356 30 356 30 352 24 c 258,33,-1
 259 -116 l 258,34,35
 253 -125 253 -125 243 -125 c 256,36,37
 233 -125 233 -125 227 -118 c 258,38,-1
 129 1 l 257,39,-1
 51 -116 l 258,40,41
 45 -125 45 -125 34 -125 c 256,42,43
 25 -125 25 -125 19 -118 c 258,44,-1
 -80 1 l 257,45,-1
 -158 -116 l 258,46,47
 -164 -125 -164 -125 -174 -125 c 256,48,49
 -184 -125 -184 -125 -190 -118 c 258,50,-1
 -288 1 l 257,51,-1
 -319 -46 l 258,52,53
 -352 -96 -352 -96 -353 -160 c 256,54,55
 -353 -193 -353 -193 -343 -221 c 256,56,57
 -334 -249 -334 -249 -325 -265 c 256,58,59
 -316 -281 -316 -281 -316 -285 c 256,60,61
 -316 -293 -316 -293 -322 -299 c 256,62,63
 -328 -305 -328 -305 -336 -305 c 256,0,1
EndSplineSet
EndChar

StartChar: scripts.upmordent
Encoding: 416 57736 160
Width: 311
Flags: W
VStem: -393 40<-250 -70> 84 40<-167 -66 66 167>
DStem2: -352 -24 -319 -46 0.550681 0.834716<-84.8354 56.1493> 288 -1 352 24 0.550681 0.834716<0 67.6766>
LayerCount: 2
Fore
SplineSet
-336 -305 m 256,0,1
 -355 -305 -355 -305 -374 -256 c 256,2,3
 -393 -207 -393 -207 -393 -160 c 256,4,5
 -393 -86 -393 -86 -352 -24 c 258,6,-1
 -259 116 l 258,7,8
 -253 125 -253 125 -242 125 c 256,9,10
 -233 125 -233 125 -227 118 c 258,11,-1
 -129 -1 l 257,12,-1
 -51 116 l 258,13,14
 -45 125 -45 125 -34 125 c 256,15,16
 -25 125 -25 125 -19 118 c 258,17,-1
 80 -1 l 257,18,-1
 84 6 l 257,19,-1
 84 147 l 258,20,21
 84 155 84 155 90 161 c 256,22,23
 96 167 96 167 104 167 c 256,24,25
 112 167 112 167 118 161 c 256,26,27
 124 155 124 155 124 147 c 258,28,-1
 124 66 l 257,29,-1
 158 116 l 258,30,31
 164 125 164 125 174 125 c 256,32,33
 184 125 184 125 190 118 c 258,34,-1
 288 -1 l 257,35,-1
 319 46 l 258,36,37
 325 55 325 55 336 55 c 256,38,39
 344 55 344 55 350 49 c 256,40,41
 356 43 356 43 356 35 c 256,42,43
 356 30 356 30 352 24 c 258,44,-1
 259 -116 l 258,45,46
 253 -125 253 -125 243 -125 c 256,47,48
 233 -125 233 -125 227 -118 c 258,49,-1
 129 1 l 257,50,-1
 124 -6 l 257,51,-1
 124 -147 l 258,52,53
 124 -155 124 -155 118 -161 c 256,54,55
 112 -167 112 -167 104 -167 c 256,56,57
 96 -167 96 -167 90 -161 c 256,58,59
 84 -155 84 -155 84 -147 c 258,60,-1
 84 -66 l 257,61,-1
 51 -116 l 258,62,63
 45 -125 45 -125 34 -125 c 256,64,65
 25 -125 25 -125 19 -118 c 258,66,-1
 -80 1 l 257,67,-1
 -158 -116 l 258,68,69
 -164 -125 -164 -125 -174 -125 c 256,70,71
 -184 -125 -184 -125 -190 -118 c 258,72,-1
 -288 1 l 257,73,-1
 -319 -46 l 258,74,75
 -352 -96 -352 -96 -353 -160 c 256,76,77
 -353 -193 -353 -193 -343 -221 c 256,78,79
 -334 -249 -334 -249 -325 -265 c 256,80,81
 -316 -281 -316 -281 -316 -285 c 256,82,83
 -316 -293 -316 -293 -322 -299 c 256,84,85
 -328 -305 -328 -305 -336 -305 c 256,0,1
EndSplineSet
EndChar

StartChar: scripts.pralldown
Encoding: 417 57737 161
Width: 311
Flags: W
VStem: 353 40<-250 -70>
DStem2: -319 46 -352 24 0.550681 -0.834716<-11.324 56.336> 352 -24 288 1 0.550681 -0.834716<-56.1493 84.8354>
LayerCount: 2
Fore
SplineSet
336 -305 m 256,0,1
 328 -305 328 -305 322 -299 c 256,2,3
 316 -293 316 -293 316 -285 c 256,4,5
 316 -281 316 -281 325 -265 c 256,6,7
 334 -249 334 -249 343 -221 c 256,8,9
 352 -193 352 -193 353 -160 c 256,10,11
 353 -96 353 -96 319 -46 c 258,12,-1
 288 1 l 257,13,-1
 190 -118 l 258,14,15
 184 -125 184 -125 174 -125 c 256,16,17
 164 -125 164 -125 158 -116 c 258,18,-1
 80 1 l 257,19,-1
 -19 -118 l 258,20,21
 -25 -125 -25 -125 -34 -125 c 256,22,23
 -45 -125 -45 -125 -51 -116 c 258,24,-1
 -129 1 l 257,25,-1
 -227 -118 l 258,26,27
 -233 -125 -233 -125 -243 -125 c 256,28,29
 -253 -125 -253 -125 -259 -116 c 258,30,-1
 -352 24 l 258,31,32
 -356 30 -356 30 -356 35 c 257,33,34
 -356 43 -356 43 -350 49 c 256,35,36
 -344 55 -344 55 -336 55 c 256,37,38
 -325 55 -325 55 -319 46 c 258,39,-1
 -288 -1 l 257,40,-1
 -190 118 l 258,41,42
 -184 125 -184 125 -174 125 c 256,43,44
 -164 125 -164 125 -158 116 c 258,45,-1
 -80 -1 l 257,46,-1
 19 118 l 258,47,48
 25 125 25 125 34 125 c 256,49,50
 45 125 45 125 51 116 c 258,51,-1
 129 -1 l 257,52,-1
 227 118 l 258,53,54
 233 125 233 125 242 125 c 256,55,56
 253 125 253 125 259 116 c 258,57,-1
 352 -24 l 258,58,59
 393 -86 393 -86 393 -160 c 256,60,61
 393 -207 393 -207 374 -256 c 256,62,63
 355 -305 355 -305 336 -305 c 256,0,1
EndSplineSet
EndChar

StartChar: scripts.downprall
Encoding: 418 57738 162
Width: 311
Flags: W
VStem: -393 40<5 180>
DStem2: 288 -1 352 24 0.550681 0.834716<0 67.6766>
LayerCount: 2
Fore
SplineSet
-393 90 m 256,0,1
 -393 140 -393 140 -373 188 c 256,2,3
 -353 236 -353 236 -336 235 c 256,4,5
 -324 235 -324 235 -318 225 c 256,6,7
 -313 213 -313 213 -319 204 c 256,8,9
 -352 154 -352 154 -353 90 c 256,10,11
 -353 43 -353 43 -334 4 c 257,12,-1
 -259 116 l 258,13,14
 -253 125 -253 125 -242 125 c 256,15,16
 -233 125 -233 125 -227 118 c 258,17,-1
 -129 -1 l 257,18,-1
 -51 116 l 258,19,20
 -45 125 -45 125 -34 125 c 256,21,22
 -25 125 -25 125 -19 118 c 258,23,-1
 80 -1 l 257,24,-1
 158 116 l 258,25,26
 164 125 164 125 174 125 c 256,27,28
 184 125 184 125 190 118 c 258,29,-1
 288 -1 l 257,30,-1
 319 46 l 258,31,32
 325 55 325 55 336 55 c 256,33,34
 344 55 344 55 350 49 c 256,35,36
 356 43 356 43 356 35 c 256,37,38
 356 30 356 30 352 24 c 258,39,-1
 259 -116 l 258,40,41
 253 -125 253 -125 243 -125 c 256,42,43
 233 -125 233 -125 227 -118 c 258,44,-1
 129 1 l 257,45,-1
 51 -116 l 258,46,47
 45 -125 45 -125 34 -125 c 256,48,49
 25 -125 25 -125 19 -118 c 258,50,-1
 -80 1 l 257,51,-1
 -158 -116 l 258,52,53
 -164 -125 -164 -125 -174 -125 c 256,54,55
 -184 -125 -184 -125 -190 -118 c 258,56,-1
 -288 1 l 257,57,-1
 -319 -46 l 258,58,59
 -325 -55 -325 -55 -336 -55 c 256,60,61
 -356 -55 -356 -55 -374 -5 c 256,62,63
 -393 44 -393 44 -393 90 c 256,0,1
EndSplineSet
EndChar

StartChar: scripts.downmordent
Encoding: 419 57739 163
Width: 311
Flags: W
VStem: -393 40<5 180> 84 40<-167 -66 66 167>
DStem2: 288 -1 352 24 0.550681 0.834716<0 67.6766>
LayerCount: 2
Fore
SplineSet
-393 90 m 256,0,1
 -393 140 -393 140 -373 188 c 256,2,3
 -353 236 -353 236 -336 235 c 256,4,5
 -324 235 -324 235 -318 225 c 256,6,7
 -313 213 -313 213 -319 204 c 256,8,9
 -352 154 -352 154 -353 90 c 256,10,11
 -353 43 -353 43 -334 4 c 257,12,-1
 -259 116 l 258,13,14
 -253 125 -253 125 -242 125 c 256,15,16
 -233 125 -233 125 -227 118 c 258,17,-1
 -129 -1 l 257,18,-1
 -51 116 l 258,19,20
 -45 125 -45 125 -34 125 c 256,21,22
 -25 125 -25 125 -19 118 c 258,23,-1
 80 -1 l 257,24,-1
 84 6 l 257,25,-1
 84 147 l 258,26,27
 84 155 84 155 90 161 c 256,28,29
 96 167 96 167 104 167 c 256,30,31
 112 167 112 167 118 161 c 256,32,33
 124 155 124 155 124 147 c 258,34,-1
 124 66 l 257,35,-1
 158 116 l 258,36,37
 164 125 164 125 174 125 c 256,38,39
 184 125 184 125 190 118 c 258,40,-1
 288 -1 l 257,41,-1
 319 46 l 258,42,43
 325 55 325 55 336 55 c 256,44,45
 344 55 344 55 350 49 c 256,46,47
 356 43 356 43 356 35 c 256,48,49
 356 30 356 30 352 24 c 258,50,-1
 259 -116 l 258,51,52
 253 -125 253 -125 243 -125 c 256,53,54
 233 -125 233 -125 227 -118 c 258,55,-1
 129 1 l 257,56,-1
 124 -6 l 257,57,-1
 124 -147 l 258,58,59
 124 -155 124 -155 118 -161 c 256,60,61
 112 -167 112 -167 104 -167 c 256,62,63
 96 -167 96 -167 90 -161 c 256,64,65
 84 -155 84 -155 84 -147 c 258,66,-1
 84 -66 l 257,67,-1
 51 -116 l 258,68,69
 45 -125 45 -125 34 -125 c 256,70,71
 25 -125 25 -125 19 -118 c 258,72,-1
 -80 1 l 257,73,-1
 -158 -116 l 258,74,75
 -164 -125 -164 -125 -174 -125 c 256,76,77
 -184 -125 -184 -125 -190 -118 c 258,78,-1
 -288 1 l 257,79,-1
 -319 -46 l 258,80,81
 -325 -55 -325 -55 -336 -55 c 256,82,83
 -356 -55 -356 -55 -374 -5 c 256,84,85
 -393 44 -393 44 -393 90 c 256,0,1
EndSplineSet
EndChar

StartChar: scripts.prallup
Encoding: 420 57740 164
Width: 311
Flags: W
VStem: 353 40<5 180>
DStem2: -319 46 -352 24 0.550681 -0.834716<-11.324 56.336>
LayerCount: 2
Fore
SplineSet
393 90 m 256,0,1
 393 44 393 44 375 -5 c 256,2,3
 357 -54 357 -54 336 -55 c 256,4,5
 325 -55 325 -55 319 -46 c 258,6,-1
 288 1 l 257,7,-1
 190 -118 l 258,8,9
 184 -125 184 -125 174 -125 c 256,10,11
 164 -125 164 -125 158 -116 c 258,12,-1
 80 1 l 257,13,-1
 -19 -118 l 258,14,15
 -25 -125 -25 -125 -34 -125 c 256,16,17
 -45 -125 -45 -125 -51 -116 c 258,18,-1
 -129 1 l 257,19,-1
 -227 -118 l 258,20,21
 -233 -125 -233 -125 -243 -125 c 256,22,23
 -253 -125 -253 -125 -259 -116 c 258,24,-1
 -352 24 l 258,25,26
 -356 30 -356 30 -356 35 c 257,27,28
 -356 43 -356 43 -350 49 c 256,29,30
 -344 55 -344 55 -336 55 c 256,31,32
 -325 55 -325 55 -319 46 c 258,33,-1
 -288 -1 l 257,34,-1
 -190 118 l 258,35,36
 -184 125 -184 125 -174 125 c 256,37,38
 -164 125 -164 125 -158 116 c 258,39,-1
 -80 -1 l 257,40,-1
 19 118 l 258,41,42
 25 125 25 125 34 125 c 256,43,44
 45 125 45 125 51 116 c 258,45,-1
 129 -1 l 257,46,-1
 227 118 l 258,47,48
 233 125 233 125 242 125 c 256,49,50
 253 125 253 125 259 116 c 258,51,-1
 334 4 l 257,52,53
 353 43 353 43 353 90 c 256,54,55
 353 154 353 154 319 204 c 256,56,57
 316 209 316 209 316 215 c 256,58,59
 316 220 316 220 319 225 c 256,60,61
 324 236 324 236 336 235 c 256,62,63
 354 236 354 236 373 188 c 256,64,65
 393 140 393 140 393 90 c 256,0,1
EndSplineSet
EndChar

StartChar: scripts.lineprall
Encoding: 421 57741 165
Width: 311
Flags: W
VStem: -356 40<31 485>
DStem2: 288 -1 352 24 0.550681 0.834716<0 67.6766>
LayerCount: 2
Fore
SplineSet
319 46 m 258,0,1
 325 55 325 55 336 55 c 256,2,3
 344 55 344 55 350 49 c 256,4,5
 356 43 356 43 356 35 c 256,6,7
 356 30 356 30 352 24 c 258,8,-1
 259 -116 l 258,9,10
 253 -125 253 -125 242 -125 c 256,11,12
 233 -125 233 -125 227 -118 c 258,13,-1
 129 1 l 257,14,-1
 51 -116 l 258,15,16
 45 -125 45 -125 34 -125 c 256,17,18
 25 -125 25 -125 19 -118 c 258,19,-1
 -80 1 l 257,20,-1
 -158 -116 l 258,21,22
 -164 -125 -164 -125 -174 -125 c 256,23,24
 -184 -125 -184 -125 -190 -118 c 258,25,-1
 -288 1 l 257,26,-1
 -319 -46 l 258,27,28
 -325 -55 -325 -55 -336 -55 c 256,29,30
 -344 -55 -344 -55 -350 -49 c 256,31,32
 -356 -43 -356 -43 -356 -35 c 258,33,-1
 -356 465 l 258,34,35
 -356 473 -356 473 -350 479 c 256,36,37
 -344 485 -344 485 -336 485 c 256,38,39
 -328 485 -328 485 -322 479 c 256,40,41
 -316 473 -316 473 -316 465 c 258,42,-1
 -316 31 l 257,43,-1
 -259 116 l 258,44,45
 -253 125 -253 125 -242 125 c 256,46,47
 -233 125 -233 125 -227 118 c 258,48,-1
 -129 -1 l 257,49,-1
 -51 116 l 258,50,51
 -45 125 -45 125 -34 125 c 256,52,53
 -25 125 -25 125 -19 118 c 258,54,-1
 80 -1 l 257,55,-1
 158 116 l 258,56,57
 164 125 164 125 174 125 c 256,58,59
 184 125 184 125 190 118 c 258,60,-1
 288 -1 l 257,61,-1
 319 46 l 258,0,1
EndSplineSet
EndChar

StartChar: scripts.caesura.curved
Encoding: 422 57742 166
Width: 500
Flags: W
VStem: 101 62<124 312>
DStem2: 152 -174 307 200 0.210889 0.97751<0 477.865>
LayerCount: 2
Fore
SplineSet
282 313 m 256,0,1
 295 313 295 313 304 304 c 256,2,3
 313 294 313 294 313 281 c 256,4,5
 313 250 313 250 307 200 c 256,6,7
 300 150 300 150 269 39 c 256,8,9
 238 -72 238 -72 186 -189 c 256,10,11
 181 -200 181 -200 169 -200 c 256,12,13
 159 -200 159 -200 154 -191 c 256,14,15
 149 -182 149 -182 152 -174 c 256,16,17
 234 13 234 13 251 283 c 256,18,19
 252 296 252 296 261 305 c 256,20,21
 270 313 270 313 282 313 c 256,0,1
19 -200 m 256,22,23
 11 -200 11 -200 5 -194 c 256,24,25
 0 -188 0 -188 0 -181 c 256,26,27
 0 -177 0 -177 8 -158 c 256,28,29
 16 -139 16 -139 29 -103 c 256,30,31
 42 -67 42 -67 56 -18 c 256,32,33
 70 31 70 31 82 111 c 256,34,35
 95 191 95 191 101 283 c 256,36,37
 102 296 102 296 111 305 c 256,38,39
 120 314 120 314 132 313 c 256,40,41
 145 313 145 313 154 304 c 256,42,43
 163 294 163 294 163 281 c 256,44,45
 163 250 163 250 157 200 c 256,46,47
 151 150 151 150 119 39 c 256,48,49
 88 -72 88 -72 36 -189 c 257,50,51
 31 -200 31 -200 19 -200 c 256,22,23
EndSplineSet
EndChar

StartChar: scripts.caesura.straight
Encoding: 423 57743 167
Width: 500
Flags: W
DStem2: 9 -182 81 -182 0.447966 0.89405<0.629605 549.496> 149 -182 221 -182 0.44646 0.894804<0.332918 549.009>
LayerCount: 2
Fore
SplineSet
149 -182 m 258,0,-1
 381 282 l 258,1,2
 389 300 389 300 410 300 c 258,3,-1
 442 300 l 258,4,5
 454 300 454 300 454 288 c 256,6,7
 454 284 454 284 453 282 c 258,8,-1
 221 -182 l 258,9,10
 213 -200 213 -200 192 -200 c 258,11,-1
 160 -200 l 258,12,13
 153 -200 153 -200 150 -194 c 256,14,15
 148 -191 148 -191 148 -187 c 256,16,17
 148 -185 148 -185 149 -182 c 258,0,-1
9 -182 m 258,18,-1
 241 282 l 258,19,20
 249 300 249 300 270 300 c 258,21,-1
 302 300 l 258,22,23
 314 300 314 300 314 288 c 256,24,25
 314 284 314 284 313 282 c 258,26,-1
 81 -182 l 258,27,28
 73 -200 73 -200 52 -200 c 258,29,-1
 20 -200 l 258,30,31
 8 -200 8 -200 8 -188 c 256,32,33
 8 -184 8 -184 9 -182 c 258,18,-1
EndSplineSet
EndChar

StartChar: flags.u3
Encoding: 424 57744 168
Width: 240
Flags: W
HStem: -20 20G<0 16>
VStem: 0 16<-65 0> 183 42<-667 -446>
LayerCount: 2
Fore
SplineSet
0 -250 m 257,0,-1
 0 0 l 257,1,-1
 16 0 l 257,2,3
 16 -54 16 -54 37 -111 c 256,4,5
 58 -168 58 -168 89 -217 c 256,6,7
 119 -266 119 -266 151 -315 c 256,8,9
 182 -365 182 -365 204 -422 c 256,10,11
 225 -479 225 -479 225 -533 c 256,12,13
 225 -633 225 -633 183 -740 c 257,14,15
 176 -752 176 -752 164 -752 c 256,16,17
 154 -752 154 -752 147 -744 c 256,18,19
 139 -736 139 -736 141 -725 c 257,20,21
 183 -626 183 -626 183 -533 c 256,22,23
 183 -485 183 -485 154 -428 c 256,24,25
 125 -371 125 -371 94 -335 c 256,26,27
 64 -299 64 -299 16 -250 c 257,28,-1
 0 -250 l 257,0,-1
EndSplineSet
EndChar

StartChar: flags.u4
Encoding: 425 57745 169
Width: 240
Flags: W
HStem: -20 20G<0 16>
VStem: 0 16<-500 -425 -269 -213 -60 0> 183 42<-799 -600 -516 -400>
LayerCount: 2
Fore
SplineSet
16 0 m 257,0,1
 16 -49 16 -49 37 -99 c 256,2,3
 58 -149 58 -149 88 -192 c 256,4,5
 118 -235 118 -235 147 -278 c 256,6,7
 177 -321 177 -321 198 -371 c 256,8,9
 219 -421 219 -421 219 -470 c 256,10,11
 219 -516 219 -516 196 -565 c 257,12,13
 225 -625 225 -625 225 -682 c 256,14,15
 225 -771 225 -771 183 -865 c 257,16,17
 176 -877 176 -877 164 -877 c 256,18,19
 154 -877 154 -877 147 -869 c 256,20,21
 139 -861 139 -861 141 -850 c 257,22,23
 183 -766 183 -766 183 -682 c 256,24,25
 183 -648 183 -648 168 -612 c 256,26,27
 153 -576 153 -576 125 -541 c 256,28,29
 98 -506 98 -506 74 -481 c 256,30,31
 50 -456 50 -456 16 -425 c 257,32,-1
 16 -500 l 257,33,-1
 0 -500 l 257,34,-1
 0 0 l 257,35,-1
 16 0 l 257,0,1
169 -517 m 257,36,37
 176 -496 176 -496 176 -470 c 256,38,39
 176 -436 176 -436 162 -400 c 256,40,41
 148 -364 148 -364 121 -329 c 256,42,43
 94 -294 94 -294 72 -270 c 256,44,45
 50 -246 50 -246 16 -213 c 257,46,47
 16 -254 16 -254 33 -298 c 256,48,49
 50 -342 50 -342 68 -371 c 256,50,51
 87 -400 87 -400 121 -446 c 256,52,53
 154 -493 154 -493 169 -517 c 257,36,37
EndSplineSet
EndChar

StartChar: flags.u5
Encoding: 426 57746 170
Width: 223
Flags: W
HStem: -20 20G<0 16>
VStem: 0 16<-750 -647 -489 -430 -272 -212 -60 0> 166 43<-506 -389> 183 42<-998 -806 -724 -606>
LayerCount: 2
Fore
SplineSet
16 -212 m 257,0,-1
 16 -217 l 258,1,2
 16 -256 16 -256 32 -298 c 256,3,4
 48 -340 48 -340 65 -367 c 256,5,6
 82 -394 82 -394 115 -440 c 256,7,8
 148 -486 148 -486 162 -507 c 257,9,10
 166 -492 166 -492 166 -474 c 256,11,12
 166 -430 166 -430 140 -377 c 256,13,14
 113 -325 113 -325 85 -292 c 256,15,16
 58 -258 58 -258 16 -212 c 257,0,-1
16 0 m 257,17,18
 16 -49 16 -49 36 -100 c 256,19,20
 56 -151 56 -151 84 -194 c 256,21,22
 112 -237 112 -237 141 -281 c 256,23,24
 169 -324 169 -324 189 -375 c 256,25,26
 209 -425 209 -425 209 -474 c 256,27,28
 209 -515 209 -515 190 -556 c 257,29,30
 219 -616 219 -616 219 -669 c 256,31,32
 219 -720 219 -720 195 -773 c 257,33,34
 225 -831 225 -831 225 -887 c 256,35,36
 225 -973 225 -973 183 -1062 c 257,37,38
 176 -1074 176 -1074 164 -1074 c 256,39,40
 154 -1074 154 -1074 147 -1066 c 256,41,42
 139 -1058 139 -1058 141 -1047 c 257,43,44
 183 -966 183 -966 183 -887 c 256,45,46
 183 -825 183 -825 136 -767 c 256,47,48
 89 -708 89 -708 16 -647 c 257,49,-1
 16 -750 l 257,50,-1
 0 -750 l 257,51,-1
 0 0 l 257,52,-1
 16 0 l 257,17,18
16 -430 m 257,53,-1
 16 -435 l 258,54,55
 16 -475 16 -475 33 -517 c 256,56,57
 50 -559 50 -559 67 -586 c 256,58,59
 85 -613 85 -613 119 -658 c 256,60,61
 153 -703 153 -703 167 -725 c 257,62,63
 176 -698 176 -698 176 -669 c 256,64,65
 176 -626 176 -626 148 -578 c 256,66,67
 120 -530 120 -530 90 -500 c 256,68,69
 61 -470 61 -470 16 -430 c 257,53,-1
EndSplineSet
EndChar

StartChar: flags.u6
Encoding: 427 57747 171
Width: 223
Flags: W
HStem: -20 20G<0 16>
VStem: 0 16<-1000 -887 -730 -662 -507 -437 -281 -212 -61 0> 166 43<-518 -392> 176 43<-1266 -1040 -960 -825 -748 -599>
LayerCount: 2
Fore
SplineSet
16 -212 m 257,0,-1
 16 -225 l 258,1,2
 16 -265 16 -265 32 -307 c 256,3,4
 48 -349 48 -349 65 -377 c 256,5,6
 82 -405 82 -405 115 -452 c 256,7,8
 148 -498 148 -498 162 -519 c 257,9,10
 166 -503 166 -503 166 -482 c 256,11,12
 166 -448 166 -448 153 -411 c 256,13,14
 139 -373 139 -373 114 -336 c 256,15,16
 89 -299 89 -299 68 -272 c 256,17,18
 46 -246 46 -246 16 -212 c 257,0,-1
16 0 m 257,19,20
 16 -49 16 -49 36 -101 c 256,21,22
 56 -153 56 -153 84 -197 c 256,23,24
 112 -241 112 -241 141 -286 c 256,25,26
 169 -330 169 -330 189 -381 c 256,27,28
 209 -432 209 -432 209 -482 c 256,29,30
 209 -525 209 -525 190 -569 c 257,31,32
 219 -630 219 -630 219 -684 c 256,33,34
 219 -740 219 -740 190 -795 c 257,35,36
 219 -856 219 -856 219 -909 c 256,37,38
 219 -956 219 -956 184 -998 c 257,39,40
 225 -1070 225 -1070 225 -1134 c 256,41,42
 225 -1223 225 -1223 183 -1313 c 257,43,44
 176 -1324 176 -1324 164 -1324 c 256,45,46
 154 -1324 154 -1324 147 -1316 c 256,47,48
 139 -1308 139 -1308 141 -1297 c 257,49,50
 183 -1215 183 -1215 183 -1134 c 256,51,52
 183 -1100 183 -1100 168 -1065 c 256,53,54
 153 -1031 153 -1031 125 -998 c 256,55,56
 97 -964 97 -964 74 -940 c 256,57,58
 51 -917 51 -917 16 -887 c 257,59,-1
 16 -1000 l 257,60,-1
 0 -1000 l 257,61,-1
 0 0 l 257,62,-1
 16 0 l 257,19,20
16 -437 m 257,63,-1
 16 -450 l 258,64,65
 16 -490 16 -490 32 -533 c 256,66,67
 48 -576 48 -576 66 -604 c 256,68,69
 84 -632 84 -632 117 -679 c 256,70,71
 150 -725 150 -725 164 -748 c 257,72,73
 176 -718 176 -718 176 -684 c 256,74,75
 176 -622 176 -622 131 -562 c 256,76,77
 86 -501 86 -501 16 -437 c 257,63,-1
16 -662 m 257,78,-1
 16 -675 l 258,79,80
 16 -714 16 -714 32 -756 c 256,81,82
 48 -798 48 -798 64 -823 c 256,83,84
 80 -848 80 -848 115 -896 c 256,85,86
 149 -943 149 -943 161 -961 c 257,87,88
 176 -938 176 -938 176 -909 c 257,89,90
 176 -847 176 -847 131 -787 c 256,91,92
 86 -726 86 -726 16 -662 c 257,78,-1
EndSplineSet
EndChar

StartChar: flags.d3
Encoding: 428 57748 172
Width: 284
Flags: W
HStem: 0 21G<0 16>
VStem: 0 16<0 59> 243 42<433 628>
LayerCount: 2
Fore
SplineSet
212 724 m 256,0,1
 235 724 235 724 260 650 c 256,2,3
 284 577 284 577 285 513 c 256,4,5
 285 457 285 457 257 402 c 256,6,7
 230 347 230 347 190 301 c 256,8,9
 150 256 150 256 110 211 c 256,10,11
 70 166 70 166 43 111 c 256,12,13
 16 56 16 56 16 0 c 257,14,-1
 0 0 l 257,15,-1
 0 250 l 257,16,-1
 16 250 l 257,17,18
 60 277 60 277 94 302 c 256,19,20
 128 327 128 327 165 361 c 256,21,22
 202 395 202 395 222 434 c 256,23,24
 243 473 243 473 243 513 c 256,25,26
 243 605 243 605 189 697 c 257,27,28
 187 708 187 708 195 716 c 256,29,30
 202 724 202 724 212 724 c 256,0,1
EndSplineSet
EndChar

StartChar: flags.ugrace
Encoding: 429 57749 173
Width: 207
Flags: W
DStem2: 194 -231 224 -269 0.779012 0.627009<-477.111 14.8755>
LayerCount: 2
Fore
SplineSet
-166 -521 m 258,0,-1
 194 -231 l 258,1,2
 201 -226 201 -226 209 -226 c 256,3,4
 220 -226 220 -226 227 -233 c 256,5,6
 234 -240 234 -240 233 -250 c 256,7,8
 233 -263 233 -263 224 -269 c 258,9,-1
 -135 -559 l 258,10,11
 -142 -564 -142 -564 -150 -564 c 256,12,13
 -161 -564 -161 -564 -168 -557 c 256,14,15
 -175 -550 -175 -550 -175 -540 c 256,16,17
 -175 -527 -175 -527 -166 -521 c 258,0,-1
EndSplineSet
EndChar

StartChar: flags.dgrace
Encoding: 430 57750 174
Width: 268
Flags: W
HStem: 223 314
DStem2: -182 534 -206 492 0.866551 -0.499089<-11.4841 545.436>
LayerCount: 2
Fore
SplineSet
-206 492 m 258,0,1
 -218 498 -218 498 -218 513 c 256,2,3
 -218 523 -218 523 -211 530 c 256,4,5
 -204 537 -204 537 -193 537 c 256,6,7
 -188 537 -188 537 -182 534 c 258,8,-1
 281 269 l 258,9,10
 294 262 294 262 294 248 c 256,11,12
 294 238 294 238 287 230 c 256,13,14
 280 222 280 222 269 223 c 256,15,16
 263 223 263 223 257 226 c 258,17,-1
 -206 492 l 258,0,1
EndSplineSet
EndChar

StartChar: flags.d4
Encoding: 431 57751 175
Width: 284
Flags: W
HStem: 0 21G<0 16> 480 20G<0 16>
VStem: 0 16<0 52 200 275 425 500> 230 42<364 507 664 743> 243 42<592 746>
LayerCount: 2
Fore
SplineSet
16 200 m 257,0,1
 58 224 58 224 90 246 c 256,2,3
 122 267 122 267 156 299 c 256,4,5
 191 330 191 330 210 366 c 256,6,7
 230 402 230 402 230 438 c 256,8,9
 230 474 230 474 216 508 c 257,10,11
 196 486 196 486 153 445 c 256,12,13
 109 404 109 404 84 378 c 256,14,15
 59 352 59 352 37 310 c 256,16,17
 16 268 16 268 16 225 c 258,18,-1
 16 200 l 257,0,1
285 663 m 256,19,20
 285 603 285 603 247 547 c 257,21,22
 271 494 271 494 272 438 c 256,23,24
 272 388 272 388 245 341 c 256,25,26
 219 294 219 294 182 256 c 256,27,28
 144 218 144 218 106 181 c 256,29,30
 68 143 68 143 42 97 c 256,31,32
 16 50 16 50 16 0 c 257,33,-1
 0 0 l 257,34,-1
 0 500 l 257,35,-1
 16 500 l 257,36,-1
 16 425 l 257,37,38
 243 543 243 543 243 663 c 256,39,40
 243 690 243 690 229 725 c 257,41,42
 227 736 227 736 234 744 c 256,43,44
 241 752 241 752 252 752 c 256,45,46
 263 752 263 752 270 740 c 256,47,48
 277 728 277 728 280 710 c 256,49,50
 282 692 282 692 284 682 c 256,51,52
 285 671 285 671 285 663 c 256,19,20
EndSplineSet
EndChar

StartChar: flags.d5
Encoding: 432 57752 176
Width: 284
Flags: W
HStem: 0 21G<0 16>
VStem: 0 16<0 55 210 277 435 501 660 750> 222 42<380 508> 235 42<591 734> 243 42<816 958>
LayerCount: 2
Fore
SplineSet
16 210 m 257,0,1
 57 237 57 237 87 260 c 256,2,3
 117 283 117 283 151 315 c 256,4,5
 186 347 186 347 204 384 c 256,6,7
 223 420 223 420 222 457 c 256,8,9
 222 484 222 484 211 509 c 257,10,11
 191 486 191 486 150 445 c 256,12,13
 108 405 108 405 83 378 c 256,14,15
 58 351 58 351 37 310 c 256,16,17
 16 268 16 268 16 225 c 258,18,-1
 16 210 l 257,0,1
285 886 m 256,19,20
 285 827 285 827 247 771 c 257,21,22
 276 717 276 717 277 661 c 256,23,24
 277 604 277 604 240 547 c 257,25,26
 264 502 264 502 264 457 c 256,27,28
 264 406 264 406 239 357 c 256,29,30
 214 308 214 308 177 268 c 256,31,32
 140 228 140 228 103 189 c 256,33,34
 66 149 66 149 41 100 c 256,35,36
 16 51 16 51 16 0 c 257,37,-1
 0 0 l 257,38,-1
 0 750 l 257,39,-1
 16 750 l 257,40,-1
 16 660 l 257,41,42
 243 767 243 767 243 886 c 256,43,44
 243 914 243 914 229 947 c 257,45,46
 227 958 227 958 234 966 c 256,47,48
 241 974 241 974 252 974 c 256,49,50
 285 974 285 974 285 886 c 256,19,20
16 435 m 257,51,52
 235 544 235 544 235 661 c 256,53,54
 235 696 235 696 217 734 c 257,55,56
 197 711 197 711 154 670 c 256,57,58
 110 629 110 629 85 604 c 256,59,60
 60 578 60 578 38 536 c 256,61,62
 16 494 16 494 16 450 c 258,63,-1
 16 435 l 257,51,52
EndSplineSet
EndChar

StartChar: flags.d6
Encoding: 433 57753 177
Width: 284
Flags: W
HStem: 0 21G<0 16>
VStem: 0 16<0 63 205 278 425 500 650 719 875 1000> 204 43<401 525> 227 42<608 738> 235 42<803 911> 243 42<969 1093>
LayerCount: 2
Fore
SplineSet
285 1026 m 256,0,1
 285 987 285 987 266 954 c 257,2,3
 277 912 277 912 277 871 c 256,4,5
 277 828 277 828 258 790 c 257,6,7
 269 737 269 737 269 688 c 256,8,9
 269 635 269 635 244 587 c 257,10,11
 247 539 247 539 247 490 c 257,12,13
 247 438 247 438 223 387 c 256,14,15
 199 335 199 335 165 292 c 256,16,17
 132 249 132 249 98 204 c 256,18,19
 64 160 64 160 40 108 c 256,20,21
 16 56 16 56 16 5 c 258,22,-1
 16 0 l 257,23,-1
 0 0 l 257,24,-1
 0 1000 l 257,25,-1
 16 1000 l 257,26,-1
 16 875 l 257,27,28
 72 884 72 884 120 900 c 256,29,30
 168 917 168 917 205 950 c 256,31,32
 243 983 243 983 243 1026 c 256,33,34
 243 1042 243 1042 240 1059 c 256,35,36
 237 1076 237 1076 237 1077 c 256,37,38
 237 1087 237 1087 244 1093 c 256,39,40
 251 1099 251 1099 260 1099 c 256,41,42
 275 1099 275 1099 280 1083 c 256,43,44
 285 1068 285 1068 285 1026 c 256,0,1
16 205 m 257,45,46
 54 240 54 240 80 267 c 256,47,48
 106 294 106 294 139 333 c 256,49,50
 171 372 171 372 188 411 c 256,51,52
 205 451 205 451 204 490 c 258,53,-1
 204 526 l 257,54,55
 185 502 185 502 145 458 c 256,56,57
 104 414 104 414 80 385 c 256,58,59
 57 357 57 357 37 313 c 256,60,61
 16 269 16 269 16 225 c 258,62,-1
 16 205 l 257,45,46
16 425 m 257,63,64
 57 453 57 453 88 478 c 256,65,66
 119 503 119 503 154 538 c 256,67,68
 189 573 189 573 208 612 c 256,69,70
 227 651 227 651 227 688 c 256,71,72
 227 704 227 704 223 738 c 257,73,74
 201 712 201 712 159 672 c 256,75,76
 117 632 117 632 90 605 c 256,77,78
 62 578 62 578 39 536 c 256,79,80
 16 494 16 494 16 450 c 258,81,-1
 16 425 l 257,63,64
16 650 m 257,82,83
 235 757 235 757 235 871 c 256,84,85
 235 893 235 893 231 912 c 257,86,87
 209 891 209 891 165 860 c 256,88,89
 122 830 122 830 93 809 c 256,90,91
 63 788 63 788 39 751 c 256,92,93
 16 715 16 715 16 675 c 258,94,-1
 16 650 l 257,82,83
EndSplineSet
EndChar

StartChar: clefs.C
Encoding: 434 57754 178
Width: 680
Flags: W
HStem: -500 28<379 480> -233 160<312 370> -70 28<409 507> 42 28<410 507> 73 160<312 370> 472 28<379 480>
VStem: 0 139<-500 500> 180 41<-500 -19 19 500> 263 104<-442 -342 342 442> 305 27<-233 -150 150 233> 555 125<-371 -160 160 371>
LayerCount: 2
Fore
SplineSet
318 0 m 256,0,1
 318 -73 318 -73 363 -73 c 256,2,3
 377 -73 377 -73 406 -58 c 256,4,5
 435 -42 435 -42 451 -42 c 256,6,7
 545 -42 545 -42 612 -102 c 256,8,9
 679 -162 679 -162 680 -250 c 256,10,11
 680 -500 680 -500 415 -500 c 256,12,13
 352 -500 352 -500 307 -459 c 256,14,15
 263 -418 263 -418 263 -358 c 256,16,17
 263 -326 263 -326 285 -304 c 256,18,19
 307 -282 307 -282 339 -281 c 256,20,21
 370 -281 370 -281 393 -304 c 256,22,23
 415 -326 415 -326 415 -358 c 256,24,25
 415 -378 415 -378 391 -396 c 256,26,27
 367 -414 367 -414 366 -434 c 256,28,29
 366 -451 366 -451 380 -461 c 256,30,31
 394 -472 394 -472 415 -472 c 256,32,33
 496 -472 496 -472 525 -416 c 256,34,35
 554 -360 554 -360 555 -250 c 256,36,37
 555 -165 555 -165 538 -121 c 256,38,39
 518 -70 518 -70 451 -70 c 256,40,41
 399 -70 399 -70 366 -114 c 256,42,43
 332 -158 332 -158 332 -219 c 256,44,45
 332 -234 332 -234 318 -233 c 256,46,47
 304 -233 304 -233 305 -219 c 256,48,49
 305 -103 305 -103 221 -19 c 257,50,-1
 221 -490 l 258,51,52
 221 -500 221 -500 211 -500 c 258,53,-1
 190 -500 l 258,54,55
 179 -500 179 -500 180 -490 c 258,56,-1
 180 490 l 258,57,58
 180 500 180 500 190 500 c 258,59,-1
 211 500 l 258,60,61
 221 500 221 500 221 490 c 258,62,-1
 221 19 l 257,63,64
 305 103 305 103 305 219 c 256,65,66
 305 234 305 234 318 233 c 256,67,68
 332 233 332 233 332 219 c 256,69,70
 332 158 332 158 366 114 c 256,71,72
 400 70 400 70 451 70 c 256,73,74
 518 70 518 70 538 121 c 256,75,76
 555 165 555 165 555 250 c 256,77,78
 555 360 555 360 525 416 c 256,79,80
 496 472 496 472 415 472 c 256,81,82
 395 472 395 472 381 461 c 256,83,84
 366 451 366 451 366 434 c 256,85,86
 366 414 366 414 391 396 c 256,87,88
 415 378 415 378 415 358 c 256,89,90
 415 326 415 326 393 304 c 256,91,92
 371 282 371 282 339 281 c 256,93,94
 308 281 308 281 285 304 c 256,95,96
 263 326 263 326 263 358 c 256,97,98
 263 418 263 418 307 459 c 256,99,100
 351 500 351 500 415 500 c 256,101,102
 680 500 680 500 680 250 c 256,103,104
 680 162 680 162 612 102 c 256,105,106
 545 42 545 42 451 42 c 256,107,108
 435 42 435 42 406 58 c 256,109,110
 377 74 377 74 363 73 c 256,111,112
 318 73 318 73 318 0 c 256,0,1
129 -500 m 258,113,-1
 10 -500 l 258,114,115
 0 -500 0 -500 0 -490 c 258,116,-1
 0 490 l 258,117,118
 0 500 0 500 10 500 c 258,119,-1
 129 500 l 258,120,121
 139 500 139 500 139 490 c 258,122,-1
 139 -490 l 258,123,124
 139 -500 139 -500 129 -500 c 258,113,-1
EndSplineSet
EndChar

StartChar: clefs.C_change
Encoding: 435 57755 179
Width: 549
Flags: W
HStem: -400 24<314 398> -54 23<335 414> 30 23<335 414> 375 25<316 398>
VStem: 0 112<-400 400> 149 36<-400 -15 15 400> 223 85<-351 -274 274 351> 252 25<-182 -110 110 182> 452 97<-307 -119 119 308>
LayerCount: 2
Fore
SplineSet
265 0 m 256,0,1
 265 -57 265 -57 298 -57 c 256,2,3
 310 -57 310 -57 332 -43 c 256,4,5
 354 -30 354 -30 367 -30 c 256,6,7
 441 -30 441 -30 495 -80 c 256,8,9
 549 -129 549 -129 549 -200 c 256,10,11
 549 -400 549 -400 344 -400 c 256,12,13
 295 -400 295 -400 259 -367 c 256,14,15
 223 -334 223 -334 223 -287 c 256,16,17
 223 -262 223 -262 240 -244 c 256,18,19
 258 -226 258 -226 283 -227 c 256,20,21
 308 -227 308 -227 326 -244 c 256,22,23
 344 -262 344 -262 344 -287 c 256,24,25
 344 -302 344 -302 326 -317 c 256,26,27
 308 -333 308 -333 308 -348 c 256,28,29
 308 -360 308 -360 318 -368 c 256,30,31
 329 -376 329 -376 344 -376 c 256,32,33
 407 -376 407 -376 430 -332 c 256,34,35
 452 -288 452 -288 452 -200 c 256,36,37
 452 -126 452 -126 435 -90 c 256,38,39
 418 -54 418 -54 367 -54 c 256,40,41
 327 -54 327 -54 302 -88 c 256,42,43
 277 -123 277 -123 277 -170 c 256,44,45
 277 -182 277 -182 265 -182 c 256,46,47
 252 -182 252 -182 252 -170 c 256,48,49
 252 -78 252 -78 186 -15 c 257,50,-1
 186 -390 l 258,51,52
 186 -401 186 -401 176 -400 c 258,53,-1
 159 -400 l 258,54,55
 149 -400 149 -400 149 -390 c 258,56,-1
 149 390 l 258,57,58
 149 401 149 401 159 400 c 258,59,-1
 176 400 l 258,60,61
 186 400 186 400 186 390 c 258,62,-1
 186 15 l 257,63,64
 252 78 252 78 252 170 c 256,65,66
 252 182 252 182 265 182 c 256,67,68
 278 182 278 182 277 170 c 256,69,70
 277 123 277 123 302 88 c 256,71,72
 327 53 327 53 367 54 c 256,73,74
 418 54 418 54 435 90 c 256,75,76
 452 126 452 126 452 200 c 256,77,78
 452 287 452 287 430 331 c 256,79,80
 408 375 408 375 344 375 c 256,81,82
 329 375 329 375 318 368 c 256,83,84
 307 361 307 361 308 348 c 256,85,86
 308 333 308 333 326 317 c 256,87,88
 344 301 344 301 344 287 c 256,89,90
 344 262 344 262 326 244 c 256,91,92
 308 226 308 226 283 227 c 256,93,94
 258 227 258 227 240 244 c 256,95,96
 222 262 222 262 223 287 c 256,97,98
 223 334 223 334 259 367 c 256,99,100
 295 400 295 400 344 400 c 256,101,102
 549 400 549 400 549 200 c 256,103,104
 549 129 549 129 495 80 c 256,105,106
 441 31 441 31 367 30 c 256,107,108
 354 30 354 30 332 43 c 256,109,110
 310 56 310 56 298 57 c 256,111,112
 265 57 265 57 265 0 c 256,0,1
102 -400 m 258,113,-1
 10 -400 l 258,114,115
 0 -400 0 -400 0 -390 c 258,116,-1
 0 390 l 258,117,118
 0 401 0 401 10 400 c 258,119,-1
 102 400 l 258,120,121
 113 400 113 400 112 390 c 258,122,-1
 112 -390 l 258,123,124
 113 -400 113 -400 102 -400 c 258,113,-1
EndSplineSet
EndChar

StartChar: clefs.F
Encoding: 436 57756 180
Width: 671
Flags: W
HStem: -176 102<572 643> -87 206<79 173> 74 102<572 643> 237 25<174 292>
VStem: 0 212<-43 81> 403 122<-111 118> 557 102<-161 -89 89 161>
LayerCount: 2
Fore
SplineSet
557 125 m 256,0,1
 557 146 557 146 571 161 c 256,2,3
 586 176 586 176 607 176 c 256,4,5
 628 176 628 176 644 161 c 256,6,7
 659 146 659 146 658 125 c 256,8,9
 658 104 658 104 644 89 c 256,10,11
 629 74 629 74 607 74 c 256,12,13
 586 74 586 74 571 89 c 256,14,15
 557 104 557 104 557 125 c 256,0,1
557 -125 m 256,16,17
 557 -104 557 -104 571 -89 c 256,18,19
 586 -74 586 -74 607 -74 c 256,20,21
 628 -74 628 -74 644 -89 c 256,22,23
 659 -104 659 -104 658 -125 c 256,24,25
 658 -146 658 -146 644 -161 c 256,26,27
 629 -176 629 -176 607 -176 c 256,28,29
 586 -176 586 -176 571 -161 c 256,30,31
 557 -146 557 -146 557 -125 c 256,16,17
232 263 m 256,32,33
 364 263 364 263 445 197 c 256,34,35
 526 131 526 131 525 12 c 256,36,37
 525 -64 525 -64 495 -133 c 256,38,39
 464 -202 464 -202 417 -254 c 256,40,41
 370 -306 370 -306 299 -355 c 256,42,43
 228 -405 228 -405 161 -439 c 256,44,45
 15 -513 15 -513 0 -513 c 256,46,47
 -13 -513 -13 -513 -13 -500 c 256,48,49
 -13 -495 -13 -495 -9 -491 c 257,50,51
 61 -450 61 -450 113 -416 c 256,52,53
 164 -382 164 -382 222 -333 c 256,54,55
 280 -284 280 -284 317 -236 c 256,56,57
 354 -189 354 -189 378 -126 c 256,58,59
 403 -64 403 -64 403 2 c 256,60,61
 403 97 403 97 356 167 c 256,62,63
 309 237 309 237 232 237 c 256,64,65
 178 237 178 237 138 202 c 256,66,67
 97 167 97 167 78 111 c 257,68,69
 96 119 96 119 112 119 c 256,70,71
 153 119 153 119 183 89 c 256,72,73
 212 59 212 59 212 19 c 256,74,75
 212 -25 212 -25 183 -56 c 256,76,77
 154 -87 154 -87 112 -87 c 256,78,79
 67 -87 67 -87 34 -56 c 256,80,81
 0 -25 0 -25 0 19 c 256,82,83
 0 119 0 119 68 190 c 256,84,85
 135 263 135 263 232 263 c 256,32,33
EndSplineSet
EndChar

